<svg width="32" height="32" viewBox="0 0 32 32" fill="none" xmlns="http://www.w3.org/2000/svg">
<path fill-rule="evenodd" clip-rule="evenodd" d="M4.12606 4.12655C5.90536 2.34726 8.56787 1.66699 11.9998 1.66699H19.9998C23.4318 1.66699 26.0943 2.34726 27.8736 4.12655C29.6529 5.90584 30.3332 8.56836 30.3332 12.0003V20.0003C30.3332 23.4323 29.6529 26.0948 27.8736 27.8741C26.0943 29.6534 23.4318 30.3337 19.9998 30.3337H11.9998C8.56787 30.3337 5.90536 29.6534 4.12606 27.8741C2.34677 26.0948 1.6665 23.4323 1.6665 20.0003V12.0003C1.6665 8.56836 2.34677 5.90584 4.12606 4.12655ZM5.54028 5.54077C4.31957 6.76147 3.6665 8.76562 3.6665 12.0003V20.0003C3.6665 23.235 4.31957 25.2392 5.54028 26.4599C6.76099 27.6806 8.76513 28.3337 11.9998 28.3337H19.9998C23.2345 28.3337 25.2387 27.6806 26.4594 26.4599C27.6801 25.2392 28.3332 23.235 28.3332 20.0003V12.0003C28.3332 8.76562 27.6801 6.76147 26.4594 5.54077C25.2387 4.32006 23.2345 3.66699 19.9998 3.66699H11.9998C8.76513 3.66699 6.76099 4.32006 5.54028 5.54077Z" fill="#FFEBE5"/>
<path fill-rule="evenodd" clip-rule="evenodd" d="M16.0002 12.333C13.9751 12.333 12.3335 13.9746 12.3335 15.9997C12.3335 18.0247 13.9751 19.6663 16.0002 19.6663C18.0252 19.6663 19.6668 18.0247 19.6668 15.9997C19.6668 13.9746 18.0252 12.333 16.0002 12.333ZM10.3335 15.9997C10.3335 12.8701 12.8705 10.333 16.0002 10.333C19.1298 10.333 21.6668 12.8701 21.6668 15.9997C21.6668 19.1293 19.1298 21.6663 16.0002 21.6663C12.8705 21.6663 10.3335 19.1293 10.3335 15.9997Z" fill="#FFEBE5"/>
<path fill-rule="evenodd" clip-rule="evenodd" d="M22.5146 9.33301C22.5146 8.78072 22.9624 8.33301 23.5146 8.33301H23.5301C24.0823 8.33301 24.5301 8.78072 24.5301 9.33301C24.5301 9.88529 24.0823 10.333 23.5301 10.333H23.5146C22.9624 10.333 22.5146 9.88529 22.5146 9.33301Z" fill="#FFEBE5"/>
</svg>
