<svg width="32" height="32" viewBox="0 0 32 32" fill="none" xmlns="http://www.w3.org/2000/svg">
<path fill-rule="evenodd" clip-rule="evenodd" d="M7.45317 3.66699C6.77567 3.66699 6.08375 3.94156 5.38135 4.63298L5.37378 4.64043L5.36606 4.64772C4.75971 5.21974 4.33991 5.84505 4.07707 6.51312L4.075 6.51839C3.80537 7.19244 3.6665 7.93217 3.6665 8.72033C3.6665 9.95058 3.95006 11.2714 4.54755 12.6909C5.15331 14.1166 5.99299 15.571 7.04998 17.0408C8.12451 18.5164 9.32984 19.9295 10.667 21.2799C12.0177 22.6173 13.4317 23.8235 14.9223 24.9123C16.3876 25.9791 17.8553 26.8198 19.3118 27.4404C20.7448 28.0509 22.0646 28.3337 23.2665 28.3337C24.0729 28.3337 24.8084 28.1846 25.4819 27.9039L25.4873 27.9017C26.147 27.6313 26.747 27.2048 27.3122 26.5821C27.629 26.2325 27.8686 25.8626 28.0556 25.4667C28.2202 25.1181 28.2932 24.7703 28.2932 24.4403C28.2932 24.2256 28.2503 24.0238 28.1584 23.7894C28.0958 23.6537 27.9882 23.5152 27.7773 23.3692L27.7676 23.3624L23.3628 20.2351C23.0702 20.0367 22.8287 19.9041 22.6212 19.8192C22.4315 19.7416 22.2933 19.7203 22.1865 19.7203C22.0582 19.7203 21.9294 19.7513 21.7598 19.8545L21.7316 19.8717L21.7024 19.8869C21.5183 19.983 21.2798 20.1612 20.9869 20.4541L20.9823 20.4588L19.9736 21.4541C19.9727 21.455 19.9719 21.4558 19.971 21.4567C19.6474 21.7791 19.2246 21.9737 18.7198 21.9737C18.5224 21.9737 18.2882 21.9515 18.0354 21.8567L18.0138 21.8486L17.9926 21.8395C17.9376 21.8159 17.8865 21.7925 17.8503 21.7758L17.8399 21.7711C17.7966 21.7512 17.7819 21.7449 17.7751 21.7421L17.7257 21.7224L17.6786 21.6974C17.138 21.4112 16.5035 20.9621 15.7806 20.3504L15.7793 20.3493C15.0466 19.7272 14.3341 19.0552 13.606 18.3407L13.5993 18.3341L13.5927 18.3273C12.8815 17.6024 12.2272 16.8798 11.617 16.1747L11.6097 16.1663C11.0054 15.4521 10.5425 14.8191 10.2553 14.2925L10.2126 14.2143L10.1846 14.1303C10.1846 14.1303 10.1812 14.1209 10.1639 14.08C10.1624 14.0765 10.1608 14.0728 10.1592 14.0689C10.1425 14.0297 10.1163 13.9678 10.0902 13.8981L10.0702 13.8448L10.0564 13.7895C10.0133 13.6172 9.9865 13.4417 9.9865 13.2403C9.9865 12.788 10.1406 12.3563 10.4846 12.008L11.4992 10.9534L11.5061 10.9466C11.7808 10.6719 11.9718 10.4228 12.0893 10.2149L12.0972 10.2009L12.1056 10.187C12.2067 10.021 12.2398 9.87904 12.2398 9.76033C12.2398 9.67466 12.215 9.52996 12.134 9.34091L12.1308 9.33329L12.1276 9.32563C12.0431 9.11905 11.9121 8.88098 11.7083 8.59796L11.7042 8.59231L8.60426 4.22291C8.4742 4.03505 8.31222 3.90639 8.11411 3.81495L8.10725 3.81179L8.10044 3.80852C7.91069 3.71744 7.68647 3.66699 7.45317 3.66699ZM3.98595 3.20018C4.98854 2.2163 6.16062 1.66699 7.45317 1.66699C7.96408 1.66699 8.48399 1.7755 8.95906 2.00219C9.44991 2.23005 9.89729 2.5789 10.2451 3.07929L13.3334 7.43223C13.6068 7.81234 13.8208 8.18424 13.9756 8.56079C14.1328 8.92978 14.2398 9.34224 14.2398 9.76033C14.2398 10.2761 14.0895 10.7692 13.8226 11.2128C13.5955 11.6108 13.2855 11.9946 12.9274 12.3537L12.009 13.3083C12.0183 13.3302 12.0308 13.3599 12.0443 13.3943C12.2438 13.7442 12.5972 14.2366 13.133 14.8702C13.7198 15.5482 14.3422 16.2352 15.0137 16.92C15.7231 17.616 16.395 18.2484 17.0734 18.8244C17.7145 19.3668 18.2141 19.7125 18.5772 19.9099C18.6065 19.9225 18.6335 19.9348 18.6556 19.9449L19.5727 19.0399C19.5736 19.0391 19.5744 19.0382 19.5752 19.0374C19.9398 18.6732 20.3308 18.3521 20.7481 18.1291C21.1841 17.8695 21.6595 17.7203 22.1865 17.7203C22.5864 17.7203 22.9815 17.8057 23.3785 17.9681C23.7558 18.1225 24.125 18.3348 24.4955 18.5867L24.5038 18.5924L28.921 21.7285C29.3938 22.057 29.7643 22.473 29.9952 22.9976L30.002 23.0131L30.0083 23.0289C30.1782 23.4536 30.2932 23.9138 30.2932 24.4403C30.2932 25.0703 30.1528 25.7093 29.8641 26.3207C29.5977 26.8847 29.2507 27.4214 28.7942 27.9252C28.0535 28.7415 27.2141 29.3549 26.2485 29.7512C25.3228 30.1365 24.3258 30.3337 23.2665 30.3337C21.7484 30.3337 20.1616 29.9764 18.5279 29.2803C16.9179 28.5943 15.3191 27.6751 13.7446 26.5288L13.7433 26.5278C12.1688 25.3777 10.6775 24.1052 9.25615 22.6975L9.24929 22.6907C7.8418 21.2696 6.56887 19.7779 5.43141 18.2156L5.42802 18.2109C4.2995 16.642 3.37997 15.0577 2.7061 13.4713L2.70486 13.4684C2.02276 11.8484 1.6665 10.263 1.6665 8.72033C1.6665 7.69611 1.84731 6.70342 2.21698 5.77822C2.59299 4.8237 3.18361 3.95905 3.98595 3.20018Z" fill="#FFEBE5"/>
</svg>
