<svg width="770" height="496" viewBox="0 0 770 496" fill="none" xmlns="http://www.w3.org/2000/svg">
<g clip-path="url(#clip0_905_2361)">
<path d="M216.188 144.795H169.119C168.159 144.795 167.381 145.574 167.381 146.535V492.602C167.381 493.563 168.159 494.342 169.119 494.342H216.188C217.148 494.342 217.926 493.563 217.926 492.602V146.535C217.926 145.574 217.148 144.795 216.188 144.795Z" fill="white"/>
<path d="M216.188 495.584H169.119C167.476 495.584 166.139 494.247 166.139 492.602V146.535C166.139 144.891 167.476 143.553 169.119 143.553H216.188C217.831 143.553 219.168 144.891 219.168 146.535V492.602C219.168 494.247 217.831 495.584 216.188 495.584ZM169.119 146.038C168.85 146.038 168.623 146.266 168.623 146.535V492.602C168.623 492.872 168.85 493.099 169.119 493.099H216.188C216.457 493.099 216.684 492.872 216.684 492.602V146.535C216.684 146.266 216.457 146.038 216.188 146.038H169.119Z" fill="#FF8600"/>
<path d="M309.05 99.6982H261.981C261.021 99.6982 260.243 100.477 260.243 101.438V492.602C260.243 493.563 261.021 494.341 261.981 494.341H309.05C310.01 494.341 310.788 493.563 310.788 492.602V101.438C310.788 100.477 310.01 99.6982 309.05 99.6982Z" fill="white"/>
<path d="M309.05 495.584H261.982C260.338 495.584 259.001 494.246 259.001 492.602V101.438C259.001 99.7936 260.338 98.4561 261.982 98.4561H309.05C310.693 98.4561 312.03 99.7936 312.03 101.438V492.602C312.03 494.246 310.693 495.584 309.05 495.584ZM261.982 100.941C261.712 100.941 261.485 101.168 261.485 101.438V492.602C261.485 492.872 261.712 493.099 261.982 493.099H309.05C309.319 493.099 309.546 492.872 309.546 492.602V101.438C309.546 101.168 309.319 100.941 309.05 100.941H261.982Z" fill="#FF8600"/>
<path d="M493.025 72.2964H445.957C444.997 72.2964 444.218 73.0751 444.218 74.0357V492.602C444.218 493.562 444.997 494.341 445.957 494.341H493.025C493.985 494.341 494.764 493.562 494.764 492.602V74.0357C494.764 73.0751 493.985 72.2964 493.025 72.2964Z" fill="white"/>
<path d="M493.025 495.584H445.957C444.313 495.584 442.977 494.246 442.977 492.602V74.036C442.977 72.3918 444.313 71.0542 445.957 71.0542H493.025C494.668 71.0542 496.005 72.3918 496.005 74.036V492.602C496.005 494.246 494.668 495.584 493.025 495.584ZM445.957 73.539C445.687 73.539 445.46 73.7666 445.46 74.036V492.602C445.46 492.871 445.687 493.099 445.957 493.099H493.025C493.294 493.099 493.522 492.871 493.522 492.602V74.036C493.522 73.7666 493.294 73.539 493.025 73.539H445.957Z" fill="#FF8600"/>
<path d="M403.277 180.68H356.209C355.249 180.68 354.47 181.458 354.47 182.419V492.602C354.47 493.563 355.249 494.342 356.209 494.342H403.277C404.237 494.342 405.015 493.563 405.015 492.602V182.419C405.015 181.458 404.237 180.68 403.277 180.68Z" fill="white"/>
<path d="M403.277 495.584H356.209C354.565 495.584 353.229 494.247 353.229 492.602V182.419C353.229 180.775 354.565 179.438 356.209 179.438H403.277C404.92 179.438 406.257 180.775 406.257 182.419V492.602C406.257 494.247 404.92 495.584 403.277 495.584ZM356.209 181.922C355.939 181.922 355.712 182.15 355.712 182.419V492.602C355.712 492.872 355.939 493.099 356.209 493.099H403.277C403.546 493.099 403.774 492.872 403.774 492.602V182.419C403.774 182.15 403.546 181.922 403.277 181.922H356.209Z" fill="#FF8600"/>
<path d="M579.749 17.2227H532.68C531.72 17.2227 530.942 18.0014 530.942 18.962V492.603C530.942 493.563 531.72 494.342 532.68 494.342H579.749C580.709 494.342 581.487 493.563 581.487 492.603V18.962C581.487 18.0014 580.709 17.2227 579.749 17.2227Z" fill="white"/>
<path d="M579.749 495.585H532.68C531.037 495.585 529.7 494.247 529.7 492.603V18.9622C529.7 17.318 531.037 15.9805 532.68 15.9805H579.749C581.392 15.9805 582.729 17.318 582.729 18.9622V492.603C582.729 494.247 581.392 495.585 579.749 495.585ZM532.68 18.4653C532.411 18.4653 532.184 18.6929 532.184 18.9622V492.603C532.184 492.872 532.411 493.1 532.68 493.1H579.749C580.018 493.1 580.245 492.872 580.245 492.603V18.9622C580.245 18.6929 580.018 18.4653 579.749 18.4653H532.68Z" fill="#FF8600"/>
<path d="M128.92 258.946L126.044 254.894C129.387 252.519 255.897 159.981 266.229 152.274C267.357 151.433 268.869 151.353 270.079 152.07L409.289 234.574L604.993 19.2109L608.667 22.5542L412.147 238.816C411.043 240.031 409.216 240.306 407.803 239.469L268.399 156.851C253.628 167.796 132.196 256.618 128.92 258.946V258.946Z" fill="#FF470D"/>
<path d="M624.433 41.7651C623.597 41.7651 622.778 41.4398 622.159 40.8253L587.024 5.93247C586.023 4.93904 585.723 3.45487 586.26 2.15159C586.798 0.844585 588.06 0 589.475 0H624.436C626.216 0 627.664 1.44665 627.664 3.22478V38.5388C627.664 39.8443 626.885 41.0127 625.679 41.5151C625.275 41.6833 624.852 41.7651 624.433 41.7651ZM593.105 4.96961L622.697 34.3579V4.96961H593.105Z" fill="#FF470D"/>
<path d="M702.925 469.944V486.312C702.925 489.255 668.264 491.641 625.507 491.641C582.751 491.641 548.089 489.255 548.089 486.312V469.944" fill="white"/>
<path d="M625.508 492.636C604.807 492.636 585.341 492.08 570.697 491.072C563.556 490.581 557.943 490.008 554.014 489.368C548.228 488.427 547.096 487.535 547.096 486.313V469.945H549.083V486.063C549.692 486.458 553.222 487.954 572.585 489.206C586.966 490.136 605.761 490.648 625.508 490.648C645.254 490.648 664.049 490.136 678.43 489.206C697.793 487.954 701.323 486.458 701.932 486.063V469.945H703.919V486.313C703.919 487.535 702.787 488.427 697.001 489.368C693.072 490.008 687.459 490.581 680.319 491.072C665.674 492.08 646.209 492.636 625.508 492.636Z" fill="#FF470D"/>
<path d="M702.925 454.722V471.09C702.925 474.033 668.264 476.419 625.507 476.419C582.751 476.419 548.089 474.033 548.089 471.09V454.722" fill="white"/>
<path d="M625.508 477.413C604.807 477.413 585.341 476.858 570.697 475.849C563.556 475.358 557.943 474.784 554.014 474.145C548.228 473.203 547.096 472.312 547.096 471.09V454.722H549.083V470.84C549.692 471.235 553.222 472.731 572.585 473.983C586.966 474.913 605.761 475.425 625.508 475.425C645.254 475.425 664.049 474.913 678.43 473.983C697.793 472.731 701.323 471.235 701.932 470.84V454.722H703.919V471.09C703.919 472.312 702.787 473.203 697.001 474.145C693.072 474.784 687.459 475.358 680.319 475.849C665.674 476.858 646.208 477.413 625.508 477.413Z" fill="#FF470D"/>
<path d="M702.925 438.745V455.113C702.925 458.056 668.264 460.442 625.507 460.442C582.751 460.442 548.089 458.056 548.089 455.113V438.745" fill="white"/>
<path d="M625.508 461.436C604.807 461.436 585.341 460.881 570.697 459.873C563.556 459.381 557.943 458.808 554.014 458.168C548.228 457.227 547.096 456.335 547.096 455.113V438.745H549.083V454.864C549.692 455.259 553.222 456.755 572.585 458.007C586.966 458.936 605.761 459.448 625.508 459.448C645.254 459.448 664.049 458.936 678.43 458.007C697.793 456.755 701.323 455.258 701.932 454.864V438.745H703.919V455.113C703.919 456.335 702.787 457.227 697.001 458.168C693.072 458.808 687.459 459.381 680.319 459.873C665.674 460.881 646.208 461.436 625.508 461.436Z" fill="#FF470D"/>
<path d="M702.925 423.523V439.891C702.925 442.834 668.264 445.22 625.507 445.22C582.751 445.22 548.089 442.834 548.089 439.891V423.523" fill="white"/>
<path d="M625.508 446.214C604.807 446.214 585.341 445.659 570.697 444.651C563.556 444.159 557.943 443.586 554.014 442.947C548.228 442.005 547.096 441.113 547.096 439.891V423.523H549.083V439.642C549.692 440.037 553.222 441.533 572.585 442.785C586.966 443.714 605.761 444.226 625.508 444.226C645.254 444.226 664.049 443.714 678.43 442.785C697.793 441.533 701.323 440.037 701.932 439.642V423.523H703.919V439.891C703.919 441.113 702.787 442.005 697.001 442.947C693.072 443.586 687.459 444.16 680.319 444.651C665.674 445.659 646.209 446.214 625.508 446.214Z" fill="#FF470D"/>
<path d="M702.925 407.729V424.097C702.925 427.04 668.264 429.426 625.507 429.426C582.751 429.426 548.089 427.04 548.089 424.097V407.729" fill="white"/>
<path d="M625.508 430.42C604.806 430.42 585.341 429.865 570.697 428.857C563.556 428.365 557.943 427.792 554.014 427.152C548.228 426.211 547.096 425.319 547.096 424.097V407.729H549.083V423.848C549.692 424.243 553.222 425.739 572.585 426.99C586.966 427.92 605.761 428.432 625.508 428.432C645.254 428.432 664.049 427.92 678.43 426.99C697.793 425.739 701.323 424.242 701.932 423.848V407.729H703.919V424.097C703.919 425.319 702.787 426.211 697.001 427.152C693.072 427.792 687.459 428.366 680.319 428.857C665.674 429.865 646.209 430.42 625.508 430.42Z" fill="#FF470D"/>
<path d="M702.925 392.505V408.873C702.925 411.817 668.264 414.202 625.507 414.202C582.751 414.202 548.089 411.817 548.089 408.873V392.505" fill="white"/>
<path d="M625.508 415.196C604.807 415.196 585.341 414.641 570.697 413.633C563.556 413.141 557.943 412.568 554.014 411.929C548.228 410.987 547.096 410.095 547.096 408.873V392.505H549.083V408.624C549.692 409.019 553.222 410.515 572.585 411.767C586.966 412.696 605.761 413.208 625.508 413.208C645.254 413.208 664.049 412.696 678.43 411.767C697.793 410.515 701.323 409.019 701.932 408.624V392.505H703.919V408.873C703.919 410.095 702.787 410.987 697.001 411.929C693.072 412.568 687.459 413.142 680.319 413.633C665.674 414.641 646.208 415.196 625.508 415.196Z" fill="#FF470D"/>
<path d="M702.925 376.646V393.014C702.925 395.957 668.264 398.343 625.507 398.343C582.751 398.343 548.089 395.957 548.089 393.014V376.646" fill="white"/>
<path d="M625.508 399.337C604.807 399.337 585.341 398.782 570.697 397.774C563.556 397.282 557.943 396.709 554.014 396.069C548.228 395.128 547.096 394.236 547.096 393.014V376.646H549.083V392.765C549.692 393.16 553.222 394.656 572.585 395.907C586.966 396.837 605.761 397.349 625.508 397.349C645.254 397.349 664.049 396.837 678.43 395.907C697.793 394.656 701.323 393.16 701.932 392.765V376.646H703.919V393.014C703.919 394.236 702.787 395.128 697.001 396.069C693.072 396.709 687.459 397.283 680.319 397.774C665.674 398.782 646.209 399.337 625.508 399.337Z" fill="#FF470D"/>
<path d="M702.925 360.353V376.721C702.925 379.664 668.264 382.05 625.507 382.05C582.751 382.05 548.089 379.664 548.089 376.721V360.353" fill="white"/>
<path d="M625.508 383.044C604.807 383.044 585.341 382.489 570.697 381.481C563.556 380.989 557.943 380.416 554.014 379.776C548.228 378.835 547.096 377.943 547.096 376.721V360.353H549.083V376.471C549.692 376.867 553.222 378.363 572.585 379.614C586.966 380.544 605.761 381.056 625.508 381.056C645.254 381.056 664.049 380.544 678.43 379.614C697.793 378.363 701.323 376.866 701.932 376.471V360.353H703.919V376.721C703.919 377.943 702.787 378.835 697.001 379.776C693.072 380.416 687.459 380.989 680.319 381.481C665.674 382.489 646.208 383.044 625.508 383.044Z" fill="#FF470D"/>
<path d="M702.925 360.353C702.925 363.295 668.264 365.681 625.508 365.681C609.296 365.681 594.249 365.338 581.812 364.751C561.449 363.792 548.088 362.18 548.088 360.353C548.088 358.527 561.449 356.912 581.812 355.953C594.249 355.366 609.296 355.023 625.508 355.023C668.264 355.023 702.925 357.409 702.925 360.353Z" fill="white"/>
<path d="M625.508 366.675C609.805 366.675 594.679 366.353 581.766 365.744C571.559 365.263 563.061 364.613 557.188 363.863C554.168 363.478 551.829 363.065 550.235 362.636C548.604 362.197 547.095 361.616 547.095 360.353C547.095 359.091 548.604 358.509 550.235 358.07C551.829 357.64 554.168 357.227 557.188 356.841C563.059 356.091 571.558 355.441 581.766 354.96C594.674 354.352 609.8 354.03 625.508 354.03C646.21 354.03 665.676 354.585 680.318 355.593C687.459 356.085 693.072 356.658 697.001 357.298C702.787 358.239 703.919 359.131 703.919 360.354C703.919 361.576 702.787 362.467 697.001 363.408C693.072 364.047 687.459 364.621 680.318 365.112C665.674 366.12 646.208 366.675 625.508 366.675V366.675ZM549.565 360.353C551.854 361.271 560.477 362.751 581.859 363.759C594.742 364.366 609.835 364.687 625.508 364.687C645.254 364.687 664.048 364.175 678.43 363.245C694.871 362.183 699.897 360.944 701.412 360.353C699.897 359.761 694.871 358.522 678.43 357.459C664.05 356.529 645.255 356.017 625.508 356.017C609.83 356.017 594.737 356.338 581.859 356.945C560.475 357.953 551.852 359.433 549.565 360.353V360.353Z" fill="#FF470D"/>
<path d="M405.57 491.487C457.776 491.487 500.097 449.142 500.097 396.906C500.097 344.671 457.776 302.326 405.57 302.326C353.364 302.326 311.043 344.671 311.043 396.906C311.043 449.142 353.364 491.487 405.57 491.487Z" fill="white"/>
<path d="M405.56 492.504C404.218 492.504 402.874 492.476 401.528 492.419C388.752 491.884 376.364 488.813 364.709 483.294C353.054 477.775 342.827 470.137 334.313 460.591C326.09 451.371 319.802 440.77 315.626 429.082C311.449 417.394 309.594 405.208 310.111 392.861C310.646 380.078 313.715 367.683 319.231 356.021C324.747 344.359 332.381 334.127 341.921 325.608C351.136 317.38 361.731 311.089 373.412 306.91C385.094 302.731 397.275 300.877 409.613 301.392C422.388 301.928 434.776 304.998 446.431 310.517C458.087 316.037 468.314 323.675 476.828 333.221C485.051 342.44 491.338 353.042 495.515 364.73C499.691 376.418 501.547 388.604 501.03 400.951C500.494 413.734 497.426 426.128 491.91 437.79L491.012 437.365L491.91 437.79C486.394 449.452 478.759 459.685 469.219 468.204C460.005 476.432 449.41 482.722 437.728 486.901C427.322 490.624 416.519 492.504 405.561 492.504H405.56ZM405.633 303.27C395.019 303.27 384.372 305.101 374.081 308.782C350.556 317.198 331.714 334.277 321.026 356.872C298.964 403.516 318.941 459.423 365.559 481.498C388.141 492.192 413.534 493.446 437.059 485.03C460.585 476.614 479.427 459.535 490.114 436.94C500.801 414.345 502.055 388.938 493.644 365.399C485.233 341.861 468.164 323.008 445.581 312.314C432.877 306.299 419.283 303.27 405.634 303.27L405.633 303.27Z" fill="#FF470D"/>
<path d="M404.902 481.474C392.564 481.474 380.28 478.737 368.798 473.3C348.388 463.636 332.962 446.598 325.36 425.324C317.759 404.051 318.892 381.089 328.551 360.668C338.21 340.247 355.238 324.812 376.499 317.206C397.761 309.6 420.71 310.734 441.119 320.398C461.529 330.063 476.955 347.101 484.556 368.374C492.158 389.648 491.025 412.61 481.366 433.031L480.468 432.606L481.366 433.031C471.707 453.452 454.679 468.887 433.417 476.492C424.118 479.819 414.493 481.474 404.902 481.474V481.474ZM405.087 314.262C374.148 314.262 344.436 331.73 330.347 361.518C320.915 381.459 319.808 403.882 327.231 424.655C334.654 445.429 349.718 462.067 369.648 471.504C389.577 480.941 411.987 482.048 432.749 474.621C453.51 467.194 470.139 452.121 479.57 432.18C499.041 391.016 481.411 341.677 440.27 322.195C428.9 316.811 416.902 314.262 405.087 314.262Z" fill="#FF470D"/>
<path d="M424.29 365.735C429.468 368.223 433.949 371.381 437.732 375.207L433.183 384.826L428.777 382.739C429.253 379.659 428.98 377.05 427.958 374.912C426.935 372.774 425.094 371.021 422.437 369.654L412.305 391.074C415.518 395.03 417.791 398.287 419.124 400.843C420.456 403.401 421.216 405.904 421.401 408.353C421.585 410.803 421.061 413.335 419.825 415.947C417.536 420.786 414.42 423.88 410.477 425.229C406.534 426.578 401.823 426.21 396.346 424.124L392.428 432.407L387.799 430.216L391.675 422.022C389.062 420.712 386.398 419.069 383.683 417.093C380.967 415.117 378.732 413.222 376.974 411.409L381.608 401.611L386.059 403.719C385.325 407.114 385.536 409.949 386.694 412.223C387.852 414.497 390.109 416.502 393.465 418.236L404.376 395.168L403.516 394.107C400.513 390.396 398.411 387.393 397.209 385.097C396.007 382.803 395.315 380.54 395.135 378.31C394.954 376.081 395.419 373.794 396.529 371.449C397.596 369.192 398.966 367.37 400.64 365.982C402.312 364.594 404.17 363.603 406.214 363.008C408.256 362.412 410.421 362.193 412.708 362.349C414.995 362.505 417.27 362.993 419.535 363.81L423.558 355.305L428.187 357.497L424.29 365.735V365.735ZM408.183 399.097L398.157 420.294C401.057 421.305 403.652 421.307 405.944 420.302C408.234 419.298 410.061 417.356 411.423 414.476C412.631 411.923 412.966 409.447 412.43 407.049C411.894 404.651 410.478 402.001 408.183 399.097ZM408.519 387.101L417.744 367.595C415.038 366.714 412.524 366.713 410.201 367.593C407.877 368.474 406.147 370.116 405.01 372.521C403.872 374.926 403.588 377.236 404.157 379.449C404.726 381.662 406.18 384.214 408.519 387.101H408.519Z" fill="#FF8600"/>
<path d="M285.997 436.183C276.229 449.552 271.195 454.605 259.628 463.845C258.888 464.436 255.464 465.427 253.281 467.651C248.833 472.178 242.935 472.959 240.851 473.234C239.684 473.388 231.231 474.564 225.126 470.188C223.532 469.045 222.988 468.163 222.914 467.298C222.742 465.333 225.057 464.041 227.664 461.307C228.981 459.928 230.148 458.104 232.482 454.457C237.148 447.166 239.307 439.978 240.345 436.437C243.377 426.098 243.916 424.202 243.133 422.226C242.135 419.699 240.178 417.987 238.062 416.136C235.274 413.696 233.473 413.08 229.44 410.809C224.501 408.028 221.208 406.174 218.488 403.511C220.073 399.702 221.95 395.152 224.62 389.238C229.333 378.794 232.42 373.166 234.26 369.648C239.428 369.255 245.704 368.4 251.773 366.606C256.978 368.714 262.38 371.124 268.75 375.281C275.914 379.952 280.459 384.569 289.548 393.805C293.797 398.121 297.763 402.514 299.946 409.285C300.309 410.406 300.552 411.156 300.706 412.076C301.282 415.495 297.942 419.836 285.997 436.183H285.997Z" fill="#FF470D"/>
<path d="M236.979 474.109C233.411 474.109 228.64 473.471 224.765 470.693C223.157 469.539 222.395 468.509 222.296 467.351C222.146 465.639 223.471 464.419 225.148 462.874C225.777 462.295 226.491 461.638 227.216 460.878C228.491 459.542 229.65 457.73 231.96 454.121C236.671 446.76 238.828 439.403 239.749 436.262C242.769 425.965 243.25 424.207 242.557 422.455C241.614 420.068 239.779 418.463 237.655 416.604C235.656 414.855 234.177 414.067 231.938 412.874C231.127 412.443 230.208 411.953 229.136 411.35C224.136 408.535 220.833 406.676 218.055 403.954L217.754 403.66L218.212 402.56C219.697 398.987 221.546 394.54 224.055 388.982C228.178 379.845 231.05 374.404 232.951 370.804C233.225 370.284 233.478 369.805 233.711 369.359L233.871 369.054L234.214 369.028C240.621 368.541 246.47 367.526 251.598 366.01L251.806 365.949L252.007 366.03C257.865 368.401 263.011 370.793 269.09 374.76C276.314 379.47 280.884 384.115 289.991 393.369C294.283 397.728 298.319 402.211 300.538 409.094C300.9 410.214 301.158 411.012 301.319 411.973C301.909 415.475 299.018 419.428 288.263 434.136L286.499 436.549C276.475 450.268 271.344 455.281 260.016 464.33C259.724 464.563 259.22 464.791 258.523 465.108C257.177 465.718 255.143 466.64 253.724 468.086C249.128 472.764 242.961 473.581 240.935 473.849L240.894 473.855C239.967 473.978 238.596 474.109 236.979 474.109L236.979 474.109ZM219.225 403.357C221.83 405.812 225.015 407.604 229.745 410.267C230.804 410.864 231.716 411.349 232.521 411.778C234.836 413.011 236.366 413.826 238.471 415.668C240.624 417.552 242.658 419.331 243.711 421.998C244.582 424.196 244.026 426.092 240.941 436.612C240.005 439.804 237.813 447.281 233.005 454.791C230.653 458.468 229.472 460.313 228.114 461.736C227.361 462.525 226.632 463.196 225.989 463.788C224.452 465.204 223.436 466.139 223.532 467.243C223.577 467.758 223.839 468.5 225.488 469.683C230.759 473.461 237.904 472.997 240.731 472.623L240.77 472.618C242.897 472.337 248.541 471.589 252.838 467.215C254.419 465.604 256.58 464.624 258.01 463.976C258.555 463.729 259.07 463.495 259.241 463.359C270.469 454.389 275.556 449.42 285.496 435.816L287.261 433.402C297.505 419.393 300.597 415.165 300.094 412.179C299.948 411.308 299.714 410.585 299.36 409.492C297.22 402.852 293.289 398.49 289.106 394.241C280.062 385.051 275.522 380.438 268.411 375.801C262.485 371.934 257.449 369.581 251.741 367.263C246.672 368.743 240.925 369.744 234.651 370.24C234.462 370.6 234.262 370.98 234.048 371.384C232.155 374.971 229.293 380.392 225.186 389.494C222.684 395.035 220.917 399.286 219.358 403.037L219.225 403.357L219.225 403.357Z" fill="white"/>
<path d="M284.069 492.455H223.213C217.066 482.253 223.213 467.598 223.213 467.598C223.213 467.598 243.498 461.448 260.095 467.598C260.095 467.598 292.675 476.103 284.069 492.455Z" fill="white"/>
<path d="M284.443 493.076H222.862L222.681 492.775C216.443 482.422 222.384 467.968 222.64 467.357L222.753 467.088L223.033 467.003C223.237 466.941 243.686 460.869 260.282 467.005C261.469 467.317 280.703 472.53 285.205 482.742C286.62 485.951 286.422 489.316 284.618 492.744L284.443 493.076ZM223.568 491.833H283.688C285.149 488.874 285.277 485.986 284.069 483.244C279.765 473.479 260.136 468.251 259.938 468.199L259.879 468.181C244.721 462.563 226.189 467.407 223.678 468.111C222.904 470.122 218.387 482.791 223.568 491.834L223.568 491.833Z" fill="#E81400"/>
<path d="M242.809 421.503C243.227 422.02 243.555 422.587 243.855 423.166C244.15 423.748 244.403 424.35 244.616 424.966C244.831 425.582 244.997 426.216 245.117 426.859C245.23 427.505 245.294 428.163 245.249 428.825C244.986 428.215 244.774 427.612 244.552 427.012C244.33 426.412 244.121 425.811 243.912 425.208C243.704 424.606 243.504 423.999 243.314 423.386C243.128 422.77 242.945 422.152 242.809 421.503Z" fill="white"/>
<path d="M237.407 364.485C235.567 368.003 232.48 373.631 227.767 384.075C225.097 389.989 223.22 394.539 221.635 398.348C218.432 406.056 216.437 410.737 211.535 417.573C208.384 421.963 204.676 427.134 198.346 432.29C188.566 440.256 183.781 439.6 166.39 447.008C151.887 453.187 140.662 460.965 134.433 465.281C121.269 474.4 120.171 477.506 113.128 479.882C100.597 484.108 87.8374 479.75 79.143 475.508C76.6075 468.481 79.143 466.394 79.143 466.394L149.145 402.443L153.203 392.476C153.367 383.881 155.023 361.294 172.034 345.809C173.594 344.39 175.067 343.227 176.385 342.286C178.014 345.508 182.03 350.158 192.45 355.398C196.662 357.515 204.179 361.21 214.61 363.3C216.038 363.585 217.52 363.841 219.06 364.06C221.183 364.361 223.411 364.589 225.738 364.723C225.738 364.723 230.618 365.004 237.407 364.485Z" fill="#FF470D"/>
<path d="M102.348 482.224C95.1327 482.224 87.2772 480.168 78.8706 476.067L78.6442 475.956L78.5587 475.719C75.9951 468.614 78.4522 466.177 78.7276 465.932L148.622 402.078L152.584 392.349C152.817 380.999 155.612 359.918 171.616 345.349C173.047 344.048 174.53 342.847 176.024 341.78L176.613 341.36L176.939 342.005C179.141 346.362 184.454 350.682 192.729 354.843C196.422 356.699 204.107 360.562 214.731 362.691C216.182 362.981 217.668 363.235 219.147 363.445C221.33 363.754 223.56 363.976 225.773 364.103C225.822 364.106 230.695 364.376 237.36 363.865L238.476 363.78L237.957 364.773C237.723 365.22 237.47 365.701 237.195 366.221C235.301 369.808 232.44 375.229 228.332 384.331C225.832 389.868 224.066 394.118 222.507 397.867L222.208 398.586C218.851 406.665 216.873 411.194 212.039 417.935C208.79 422.462 205.123 427.571 198.738 432.772C192.237 438.067 187.924 439.598 180.779 442.135C177.132 443.429 172.594 445.04 166.633 447.579C152.183 453.736 140.867 461.578 134.787 465.791C129.512 469.446 126.247 472.077 123.624 474.192C119.767 477.302 117.642 479.014 113.326 480.47C109.858 481.64 106.194 482.224 102.348 482.224V482.224ZM79.6427 475.061C92.1335 481.106 103.332 482.53 112.93 479.293C117.036 477.908 119.099 476.244 122.845 473.224C125.345 471.21 128.768 468.45 134.08 464.77C140.196 460.532 151.58 452.642 166.146 446.436C172.143 443.882 176.701 442.264 180.364 440.964C187.383 438.472 191.62 436.968 197.954 431.809C204.211 426.712 207.827 421.674 211.017 417.229C215.786 410.581 217.74 406.101 221.062 398.109L221.361 397.39C222.846 393.818 224.694 389.374 227.201 383.819C231.324 374.683 234.196 369.242 236.097 365.641C236.179 365.485 236.26 365.333 236.339 365.184C230.163 365.591 225.749 365.346 225.702 365.344C223.455 365.214 221.19 364.989 218.973 364.676C217.471 364.462 215.962 364.204 214.488 363.909C203.7 361.748 195.914 357.834 192.172 355.953C184.049 351.868 178.673 347.583 176.175 343.206C174.914 344.138 173.664 345.166 172.452 346.269C156.738 360.573 154.036 381.367 153.823 392.488L153.821 392.604L149.667 402.807L149.563 402.901L79.5499 466.864L79.5374 466.874C79.525 466.885 77.4603 468.822 79.6427 475.061Z" fill="white"/>
<path d="M133.097 491.881H76.8774C71.1986 482.457 76.8774 468.919 76.8774 468.919C76.8774 468.919 95.6173 463.237 110.95 468.919C110.95 468.919 141.047 476.775 133.097 491.881Z" fill="white"/>
<path d="M133.472 492.503H76.5266L76.3455 492.202C70.5704 482.618 76.0679 469.243 76.3048 468.678L76.4178 468.409L76.6972 468.324C76.8864 468.267 95.7907 462.654 111.137 468.326C112.256 468.621 130.025 473.442 134.19 482.89C135.503 485.868 135.32 488.99 133.646 492.171L133.472 492.503H133.472ZM77.2328 491.26H132.716C134.047 488.549 134.161 485.903 133.054 483.392C129.087 474.392 110.975 469.567 110.793 469.52L110.734 469.502C96.7863 464.333 79.7433 468.761 77.3421 469.432C76.6063 471.351 72.4968 482.959 77.2326 491.261L77.2328 491.26Z" fill="#E81400"/>
<path d="M157.196 400.198C156.457 400.502 155.726 400.737 154.999 400.975L152.827 401.664L150.652 402.342C149.92 402.563 149.185 402.789 148.406 402.963C148.994 402.422 149.659 401.991 150.353 401.62C151.049 401.255 151.778 400.949 152.529 400.717C153.28 400.481 154.051 400.311 154.832 400.215C155.613 400.122 156.403 400.094 157.195 400.198L157.196 400.198Z" fill="white"/>
<path d="M153.278 391.259C153.459 391.671 153.575 392.083 153.675 392.494C153.773 392.906 153.849 393.318 153.912 393.729C153.975 394.14 154.022 394.551 154.068 394.96C154.09 395.165 154.112 395.37 154.14 395.574C154.167 395.781 154.196 395.976 154.291 396.179C154.074 396.092 153.923 395.889 153.798 395.704C153.674 395.512 153.581 395.309 153.5 395.103C153.341 394.69 153.24 394.267 153.175 393.841C153.111 393.414 153.085 392.985 153.095 392.554C153.109 392.124 153.151 391.691 153.278 391.258L153.278 391.259Z" fill="white"/>
<path d="M342.556 303.209C342.444 304.131 340.217 304.225 339.891 305.621C339.673 306.561 340.56 307.045 340.654 308.032C340.833 309.93 339.853 311.704 338.243 314.122C334.697 319.452 333.4 322.946 329.873 325.796C327.899 327.391 325.567 327.068 323.533 327.572C313.255 330.119 310.65 328.357 299.628 330.87C289.638 333.151 281.534 336.232 275.281 334.296C274.789 334.145 273.597 333.73 272.619 334.296C270.764 335.37 271.228 339.062 271.856 348.38C272.375 356.038 272.388 358.391 270.717 359.989C269.616 361.043 268.464 360.762 265.77 361.703C261.309 363.264 257.8 364.534 256.129 365.142C255.598 365.336 255.25 365.463 255.118 365.51C254.016 365.91 252.898 366.273 251.773 366.606C245.704 368.4 239.428 369.255 234.26 369.647C227.471 370.167 222.591 369.886 222.591 369.886C220.264 369.752 218.036 369.523 215.913 369.222C214.373 369.004 212.891 368.748 211.463 368.462C201.033 366.372 193.515 362.678 189.303 360.56C178.883 355.32 174.868 350.671 173.238 347.448C172.965 346.909 172.759 346.41 172.603 345.955C172.394 345.351 172.267 344.824 172.183 344.384C171.969 343.271 171.977 342.056 171.994 339.626C172.041 331.911 173.343 325.669 174.276 321.924C179.914 299.285 194.439 272.251 194.439 272.251C200.096 261.72 203.017 256.358 207.564 251.696C216.7 242.321 227.193 237.963 234.067 235.826L238.569 233.043C239.468 232.998 240.951 233.018 242.627 233.55C246.268 234.705 248.361 237.491 248.967 238.246C253.725 244.165 262.372 242.709 272.226 251.058C279.699 257.386 285.637 265.251 288.659 271.361C290.094 274.261 291.724 277.061 293.099 279.991C295.354 284.796 295.834 286.568 297.791 288.238C300.063 290.176 301.103 289.224 306.16 290.902C314.325 293.612 316.851 297.864 324.802 298.008C325.366 298.018 331.912 298.117 338.752 300.545C338.752 300.545 342.705 301.949 342.556 303.209Z" fill="#FF8600"/>
<path d="M226.125 370.581C223.913 370.581 222.581 370.508 222.555 370.506C220.308 370.377 218.044 370.152 215.826 369.838C214.323 369.624 212.814 369.366 211.341 369.071C200.551 366.909 192.766 362.996 189.025 361.116C180.507 356.832 175.009 352.328 172.684 347.728C172.42 347.205 172.194 346.677 172.016 346.157C171.827 345.611 171.682 345.069 171.573 344.501C171.347 343.321 171.356 342.085 171.373 339.622C171.41 333.674 172.162 327.836 173.674 321.774C179.265 299.319 193.746 272.228 193.892 271.957C199.392 261.718 202.422 256.078 207.12 251.262C214.255 243.941 223.234 238.555 233.807 235.256L238.378 232.43L238.538 232.422C240.024 232.348 241.462 232.529 242.815 232.958C246.481 234.121 248.654 236.854 249.368 237.752L249.451 237.857C251.638 240.578 254.661 241.651 258.487 243.01C262.686 244.502 267.446 246.193 272.628 250.583C279.471 256.38 285.827 264.236 289.216 271.085C289.834 272.334 290.501 273.59 291.147 274.803C291.997 276.401 292.875 278.053 293.661 279.726C294.138 280.742 294.533 281.619 294.883 282.392C296.168 285.238 296.754 286.537 298.194 287.765C299.379 288.777 300.129 288.904 301.623 289.157C302.703 289.34 304.182 289.591 306.355 290.312C309.651 291.406 312.073 292.763 314.21 293.961C317.41 295.754 320.173 297.303 324.814 297.387C326.035 297.408 332.401 297.632 338.959 299.96C340.289 300.432 343.36 301.7 343.173 303.282V303.284C343.082 304.034 342.371 304.393 341.745 304.71C341.186 304.993 340.607 305.285 340.496 305.762C340.433 306.035 340.539 306.234 340.766 306.624C340.967 306.97 341.218 307.401 341.272 307.973C341.48 310.176 340.258 312.217 338.76 314.466C337.687 316.08 336.807 317.547 336.031 318.841C334.226 321.851 332.8 324.229 330.264 326.279C328.753 327.499 327.044 327.702 325.536 327.88C324.883 327.958 324.267 328.03 323.683 328.176C318.435 329.476 315.209 329.662 311.794 329.86C308.538 330.049 305.171 330.243 299.766 331.475C297.572 331.976 295.477 332.514 293.451 333.034C286.308 334.867 280.139 336.45 275.098 334.89L275.023 334.866C274.57 334.725 273.627 334.43 272.93 334.834C271.59 335.609 271.827 339.011 272.3 345.788C272.356 346.587 272.415 347.436 272.476 348.338C272.988 355.894 273.068 358.601 271.146 360.438C270.356 361.194 269.525 361.377 268.474 361.607C267.821 361.75 267.008 361.929 265.975 362.29C261.59 363.824 258.057 365.101 256.342 365.726C255.805 365.922 255.46 366.048 255.328 366.095C254.269 366.479 253.132 366.852 251.95 367.202C246.738 368.742 240.802 369.773 234.308 370.267C231.042 370.517 228.197 370.581 226.125 370.581ZM238.758 233.657L234.326 236.396L234.251 236.419C223.844 239.655 215.015 244.94 208.009 252.13C203.433 256.82 200.433 262.406 194.986 272.545C194.841 272.815 180.432 299.773 174.879 322.075C173.392 328.04 172.651 333.782 172.615 339.63C172.598 342.012 172.589 343.208 172.793 344.267C172.89 344.776 173.02 345.262 173.19 345.752C173.35 346.219 173.553 346.695 173.792 347.167C175.995 351.525 181.307 355.844 189.583 360.006C193.275 361.862 200.959 365.724 211.585 367.853C213.035 368.143 214.521 368.397 216.001 368.608C218.184 368.917 220.414 369.138 222.627 369.266C222.675 369.269 227.549 369.538 234.214 369.028C240.621 368.541 246.47 367.526 251.598 366.01C252.756 365.667 253.869 365.303 254.907 364.926C255.04 364.879 255.384 364.753 255.909 364.562C257.635 363.933 261.174 362.653 265.565 361.117C266.669 360.731 267.522 360.544 268.208 360.394C269.202 360.176 269.75 360.056 270.288 359.54C271.73 358.161 271.756 356.07 271.237 348.422C271.177 347.521 271.118 346.672 271.062 345.874C270.505 337.904 270.297 334.922 272.309 333.758C273.477 333.082 274.82 333.502 275.393 333.68L275.464 333.702C280.172 335.16 286.183 333.617 293.143 331.831C295.177 331.308 297.28 330.769 299.491 330.264C304.996 329.009 308.416 328.811 311.723 328.62C315.079 328.425 318.249 328.242 323.385 326.969C324.044 326.806 324.728 326.725 325.39 326.646C326.862 326.472 328.252 326.308 329.484 325.312C331.849 323.401 333.156 321.22 334.967 318.202C335.75 316.896 336.637 315.416 337.727 313.777C339.38 311.294 340.191 309.733 340.036 308.09C340.008 307.79 339.862 307.539 339.692 307.248C339.433 306.801 339.11 306.245 339.287 305.48C339.53 304.438 340.487 303.954 341.185 303.601C341.443 303.471 341.871 303.254 341.94 303.131C341.9 302.756 340.39 301.786 338.545 301.13C332.168 298.867 325.98 298.65 324.804 298.629C319.839 298.539 316.95 296.92 313.603 295.045C311.413 293.817 309.148 292.548 305.965 291.491C303.882 290.8 302.515 290.568 301.416 290.382C299.862 290.118 298.835 289.944 297.389 288.71C295.738 287.301 295.074 285.832 293.752 282.903C293.405 282.134 293.011 281.261 292.538 280.254C291.766 278.609 290.894 276.971 290.052 275.387C289.402 274.165 288.73 272.902 288.104 271.636C284.786 264.929 278.549 257.225 271.826 251.531C266.817 247.288 262.171 245.637 258.072 244.181C254.22 242.812 250.892 241.63 248.484 238.635L248.397 238.525C247.741 237.701 245.745 235.191 242.44 234.142C241.277 233.773 240.04 233.609 238.759 233.656L238.758 233.657Z" fill="white"/>
<path d="M342.555 303.21C345.421 301.861 347.809 301.503 349.488 301.433C353.776 301.254 355.159 302.883 359.633 302.195C361.566 301.897 362.28 301.443 363.944 301.687C366.312 302.034 368.099 303.426 369.017 304.14C369.733 304.698 369.785 304.855 369.804 304.931C370.249 306.705 364.29 310.104 360.14 311.33C352.65 313.543 345.314 310.369 341.287 308.116L340.513 307.484L339.982 306.466C339.982 306.466 339.497 305.325 340.491 304.735C341.485 304.145 342.156 303.766 342.156 303.766C342.156 303.766 342.207 303.939 342.555 303.21V303.21Z" fill="white"/>
<path d="M354.841 312.702C349.519 312.702 344.566 310.663 340.984 308.658L340.895 308.598L340.021 307.885L339.41 306.709C339.169 306.142 339.018 304.887 340.174 304.201C341.139 303.628 341.811 303.247 341.848 303.226C341.882 303.168 341.93 303.077 341.995 302.942L342.09 302.742L342.291 302.647C344.668 301.529 347.081 300.912 349.462 300.813C351.466 300.728 352.846 301.021 354.18 301.304C355.726 301.632 357.186 301.942 359.538 301.58C360.138 301.488 360.624 301.379 361.053 301.282C362.024 301.063 362.79 300.891 364.034 301.072C366.564 301.443 368.478 302.933 369.398 303.649C370.154 304.239 370.336 304.501 370.406 304.779C371.035 307.289 364.07 310.816 360.316 311.926C358.475 312.47 356.637 312.702 354.841 312.702L354.841 312.702ZM341.637 307.6C346.22 310.156 353.103 312.761 359.964 310.734C361.99 310.136 364.443 309.015 366.365 307.81C368.719 306.333 369.207 305.417 369.206 305.127C369.152 305.066 369.005 304.918 368.635 304.63C367.735 303.929 366.06 302.625 363.854 302.302C362.839 302.153 362.237 302.289 361.326 302.494C360.877 302.595 360.369 302.71 359.727 302.809C357.151 303.205 355.51 302.856 353.923 302.52C352.664 302.253 351.361 301.977 349.513 302.054C347.364 302.144 345.179 302.691 343.016 303.681C342.852 304.005 342.644 304.33 342.308 304.394C342.056 304.538 341.511 304.852 340.807 305.27C340.35 305.541 340.482 306.033 340.547 306.208L341.003 307.084L341.637 307.6L341.637 307.6Z" fill="#E81400"/>
<path d="M333.171 333.746C330.062 333.608 331.866 324.891 332.191 322.318C332.265 321.725 333.287 314.535 339.423 309.919C343 307.227 348.501 306.571 359.358 305.366C360.185 305.275 363.599 304.044 367.918 304.605C368.988 304.744 372.999 305.416 372.314 306.17C371.518 307.046 365.638 309.142 361.07 311.791C336.97 325.764 334.996 333.827 333.171 333.746Z" fill="white"/>
<path d="M333.204 334.368C333.184 334.368 333.164 334.367 333.143 334.366C332.55 334.34 332.035 334.08 331.653 333.613C330.243 331.894 330.778 327.494 331.389 323.504C331.466 323.001 331.533 322.566 331.574 322.24C331.677 321.426 332.761 314.153 339.049 309.422C342.835 306.574 348.68 305.926 359.289 304.749C359.42 304.734 359.705 304.666 360.035 304.587C361.468 304.243 364.452 303.528 367.997 303.989C370.073 304.259 372.619 304.776 372.961 305.707C373.071 306.008 373.001 306.337 372.773 306.588C372.322 307.084 371.023 307.682 368.574 308.786C366.409 309.761 363.714 310.975 361.38 312.328C344.164 322.311 338.243 329.329 335.714 332.326C334.577 333.674 333.992 334.368 333.204 334.368H333.204ZM365.617 305.079C363.313 305.079 361.448 305.526 360.325 305.795C359.924 305.891 359.635 305.961 359.426 305.984C348.251 307.223 343.168 307.878 339.796 310.415C333.915 314.839 332.903 321.636 332.807 322.396C332.763 322.738 332.695 323.181 332.617 323.693C332.234 326.192 331.436 331.391 332.613 332.826C332.774 333.022 332.955 333.115 333.198 333.126C333.423 333.117 334.136 332.271 334.766 331.525C337.336 328.479 343.354 321.344 360.758 311.254C363.146 309.869 365.873 308.64 368.064 307.653C369.41 307.047 370.792 306.424 371.47 306.026C370.722 305.733 369.117 305.388 367.838 305.222C367.062 305.121 366.319 305.079 365.617 305.079L365.617 305.079Z" fill="#E81400"/>
<path d="M332.543 174.799C333.851 180.515 334.503 183.445 334.439 186.984C334.287 195.327 330.947 199.284 328.098 207.285C323.287 220.797 327.742 223.741 324.294 231.647C317.566 247.075 293.085 253.106 275.598 251.441C271.141 251.016 252.303 249.223 242.627 235.2C239.9 231.247 238.81 227.641 238.062 225.049C228.924 193.387 224.356 177.556 228.678 167.19C241.916 135.446 316.623 135.957 326.323 154.248C328.151 157.694 330.998 168.044 332.543 174.799H332.543Z" fill="white"/>
<path d="M281.492 252.336C279.476 252.336 277.484 252.245 275.54 252.06C256.048 250.204 246.605 242.059 242.116 235.553C239.247 231.394 238.132 227.53 237.466 225.222C228.299 193.46 223.699 177.518 228.105 166.951C235.411 149.431 260.581 142.143 281.7 141.164C303.758 140.14 322.334 145.402 326.871 153.957C328.844 157.677 331.768 168.63 333.148 174.66C334.424 180.237 335.127 183.31 335.059 186.996C334.952 192.895 333.274 196.674 331.331 201.049C330.456 203.017 329.553 205.052 328.683 207.494C326.108 214.725 326.225 218.815 326.329 222.423C326.417 225.5 326.493 228.158 324.863 231.896C320.881 241.027 311.422 245.987 304.188 248.54C297.171 251.016 289.162 252.336 281.492 252.336ZM286.934 142.285C285.219 142.285 283.491 142.325 281.757 142.405C261.018 143.366 236.334 150.445 229.251 167.43C225.013 177.594 229.573 193.395 238.658 224.876C239.304 227.113 240.384 230.855 243.138 234.847C247.477 241.136 256.641 249.012 275.657 250.823C294.346 252.604 317.435 245.823 323.725 231.399C325.244 227.915 325.175 225.507 325.088 222.458C324.986 218.925 324.86 214.528 327.514 207.078C328.399 204.591 329.313 202.534 330.196 200.545C332.162 196.117 333.715 192.621 333.818 186.974C333.88 183.582 333.286 180.833 331.938 174.938C330.471 168.528 327.589 157.962 325.775 154.54C323.669 150.569 318.002 147.176 309.819 144.985C303.214 143.217 295.236 142.285 286.934 142.285V142.285Z" fill="#E81400"/>
<path d="M304.765 166.429C319.195 172.692 319.691 176.106 325.309 176.326C333.244 176.637 340.242 170.145 343.57 164.907C348.808 156.66 349.51 144.545 342.428 135.597C337.644 129.551 332.608 133.034 316.939 126.842C303.951 121.709 303.089 117.953 294.113 115.803C288.172 114.379 287.943 116.353 265.961 118.848C252.462 120.38 252.056 119.813 248.461 121.259C241.906 123.895 237.581 128.091 228.932 136.485C222.98 142.261 220.061 146.116 219.294 147.143C214.715 153.276 212.332 158.402 211.685 159.832C210.579 162.276 209.332 165.07 208.389 168.967C207.905 170.964 206.713 176.506 207.374 183.939C207.988 190.855 209.602 192.616 211.178 199.673C213.678 210.865 210.803 212.253 212.7 218.451C217.033 232.609 238.467 238.79 241.867 235.708C242.826 234.838 241.039 234.491 241.106 228.856C241.138 226.201 239.429 222.111 241.613 216.168C243.227 211.777 244.646 210.876 244.657 207.54C244.665 204.975 243.834 203.067 242.881 200.942C240.039 194.598 237.131 194.488 236.034 190.03C235.878 189.397 234.537 183.6 238.063 180.64C240.226 178.824 243.795 178.435 246.179 179.879C250.417 182.447 249.11 189.721 250.997 190.03C252.905 190.342 253.538 182.793 259.113 176.58C262.245 173.09 268.049 170.786 279.657 166.176C286.878 163.308 289.123 162.931 291.323 162.877C294.77 162.791 298.014 163.499 304.766 166.429H304.765Z" fill="#FF450D"/>
<path d="M288.705 237.718C287.179 237.514 285.701 237.019 284.291 236.399C282.876 235.78 281.522 235.013 280.267 234.107C279.012 233.204 277.824 232.196 276.793 231.044L276.402 230.617L276.207 230.404C276.145 230.33 276.087 230.253 276.027 230.177L275.319 229.263C275.082 228.96 274.878 228.632 274.673 228.306C274.469 227.98 274.268 227.654 274.078 227.321C274.357 227.588 274.624 227.861 274.889 228.135C275.156 228.406 275.402 228.693 275.689 228.944C276.235 229.469 276.765 230.002 277.337 230.491C278.449 231.502 279.629 232.425 280.843 233.298C282.054 234.177 283.328 234.965 284.635 235.707C285.948 236.441 287.295 237.119 288.706 237.718H288.705Z" fill="#E81400"/>
<path d="M275.441 223.412C276.099 224.652 276.18 226.236 275.645 227.62C275.133 229.008 274.007 230.212 272.563 230.745C271.119 231.291 269.464 231.078 268.192 230.322C266.904 229.584 265.967 228.3 265.708 226.918C266.363 228.155 267.371 229.107 268.549 229.633C269.724 230.154 271.057 230.249 272.218 229.813C273.383 229.384 274.354 228.458 274.938 227.31C275.522 226.157 275.703 224.788 275.442 223.412L275.441 223.412Z" fill="#E81400"/>
<path d="M257.273 260.323C258.637 261.649 259.892 263.085 261.14 264.519C262.389 265.955 263.604 267.418 264.819 268.881C266.035 270.343 267.23 271.822 268.423 273.303C269.613 274.786 270.806 276.265 271.977 277.766L272.029 277.832L272.062 277.93C273.155 281.197 274.415 284.431 275.808 287.578C276.511 289.149 277.264 290.696 278.103 292.181C278.52 292.925 278.97 293.644 279.444 294.337C279.915 295.033 280.432 295.687 280.997 296.254C281.134 296.404 281.284 296.526 281.431 296.653C281.574 296.79 281.732 296.886 281.883 296.995L281.997 297.076L282.114 297.136L282.347 297.26C282.518 297.333 282.704 297.399 282.886 297.467C283.652 297.72 284.494 297.897 285.324 298.069C287 298.401 288.709 298.649 290.419 298.891C293.842 299.37 297.287 299.759 300.735 300.139C304.183 300.527 307.633 300.908 311.088 301.336C311.951 301.442 312.815 301.562 313.679 301.69C314.545 301.824 315.406 301.959 316.287 302.156L316.62 302.234L316.966 302.335L317.052 302.361L317.154 302.403L317.357 302.491L317.499 302.558L317.613 302.615C317.958 302.767 318.371 302.889 318.773 303.006C319.588 303.234 320.428 303.424 321.27 303.605C324.643 304.324 328.073 304.869 331.502 305.317C332.36 305.423 333.22 305.519 334.078 305.58C334.504 305.606 334.94 305.635 335.344 305.607C335.394 305.604 335.446 305.601 335.483 305.59C335.527 305.581 335.556 305.579 335.631 305.558C335.696 305.54 335.759 305.527 335.821 305.524C335.885 305.515 335.946 305.514 336.005 305.517C336.247 305.522 336.472 305.568 336.69 305.625C337.554 305.875 338.331 306.281 339.089 306.712C339.844 307.147 340.576 307.617 341.287 308.116C340.544 307.666 339.783 307.248 339.006 306.868C338.228 306.497 337.432 306.134 336.612 305.949C336.408 305.907 336.202 305.88 336.009 305.886C335.961 305.887 335.913 305.89 335.869 305.9C335.823 305.904 335.781 305.916 335.742 305.93L335.574 305.977C335.506 305.997 335.45 306.003 335.392 306.01C334.932 306.067 334.498 306.061 334.057 306.057C333.181 306.036 332.311 305.98 331.442 305.913C329.705 305.778 327.973 305.598 326.246 305.374C324.519 305.153 322.796 304.903 321.074 304.597C320.213 304.44 319.355 304.267 318.492 304.051C318.058 303.936 317.632 303.827 317.176 303.642L316.996 303.559C316.939 303.533 316.864 303.494 316.842 303.491L316.744 303.454L316.696 303.434L316.626 303.416L316.345 303.342L316.042 303.28C314.393 302.966 312.652 302.8 310.938 302.603C307.496 302.228 304.038 301.916 300.583 301.563C297.128 301.2 293.671 300.829 290.215 300.364C288.487 300.127 286.762 299.856 285.033 299.508C284.167 299.323 283.306 299.141 282.424 298.845C282.2 298.762 281.976 298.681 281.75 298.582L281.407 298.401L281.237 298.308L281.084 298.202C280.883 298.059 280.672 297.92 280.501 297.758C280.32 297.6 280.136 297.445 279.979 297.273C278.669 295.935 277.751 294.401 276.893 292.855C276.047 291.303 275.304 289.711 274.614 288.101C274.268 287.297 273.941 286.486 273.618 285.673C273.301 284.859 272.998 284.039 272.702 283.218C272.114 281.572 271.558 279.924 271.049 278.244L271.134 278.408L267.735 273.836L264.315 269.278C263.172 267.762 262.021 266.251 260.862 264.746C260.281 263.995 259.696 263.247 259.103 262.505C258.515 261.76 257.91 261.029 257.273 260.323L257.273 260.323Z" fill="white"/>
<path d="M239.331 314.122C239.69 314.354 239.995 314.661 240.306 314.951C240.611 315.249 240.908 315.555 241.204 315.861C241.794 316.474 242.364 317.103 242.944 317.721C244.088 318.971 245.239 320.208 246.399 321.428C247.576 322.632 248.745 323.836 249.984 324.957C251.21 326.09 252.484 327.164 253.836 328.099C254.167 328.346 254.517 328.553 254.857 328.783L255.382 329.093C255.557 329.198 255.733 329.3 255.913 329.389C256.62 329.789 257.364 330.083 258.112 330.338L258.679 330.499C258.868 330.553 259.06 330.574 259.251 330.614C259.346 330.631 259.442 330.653 259.538 330.666L259.826 330.688C260.023 330.701 260.194 330.724 260.421 330.729L261.713 330.784C262.143 330.818 262.573 330.867 263.002 330.907C264.716 331.095 266.416 331.439 268.056 331.967C268.871 332.248 269.676 332.555 270.447 332.934C271.216 333.315 271.965 333.749 272.619 334.297C271.121 333.494 269.495 333.026 267.866 332.674C267.455 332.595 267.048 332.509 266.636 332.443C266.222 332.388 265.814 332.309 265.398 332.273C264.57 332.177 263.741 332.103 262.91 332.067C262.493 332.057 262.078 332.039 261.662 332.035L260.414 332.036C260.217 332.039 259.966 332.025 259.741 332.018L259.394 332.004C259.28 331.994 259.167 331.974 259.054 331.959C258.829 331.923 258.597 331.904 258.376 331.852L257.714 331.693C255.973 331.19 254.405 330.322 252.982 329.321C251.565 328.304 250.245 327.182 249.017 325.98C247.799 324.767 246.628 323.517 245.538 322.203C244.435 320.9 243.398 319.548 242.383 318.186L240.888 316.125C240.642 315.78 240.393 315.438 240.138 315.1C239.884 314.762 239.634 314.421 239.331 314.123V314.122Z" fill="white"/>
<path d="M716.205 479.743C714.096 479.743 712.38 478.026 712.38 475.915C712.38 473.805 714.096 472.088 716.205 472.088C718.315 472.088 720.031 473.805 720.031 475.915C720.031 478.026 718.315 479.743 716.205 479.743ZM716.205 473.082C714.644 473.082 713.373 474.353 713.373 475.915C713.373 477.478 714.644 478.749 716.205 478.749C717.767 478.749 719.037 477.478 719.037 475.915C719.037 474.353 717.767 473.082 716.205 473.082Z" fill="#FF470D"/>
<path d="M425.49 163.437C423.381 163.437 421.665 161.72 421.665 159.609C421.665 157.499 423.381 155.782 425.49 155.782C427.599 155.782 429.315 157.499 429.315 159.609C429.315 161.72 427.599 163.437 425.49 163.437ZM425.49 156.775C423.928 156.775 422.658 158.047 422.658 159.609C422.658 161.172 423.928 162.443 425.49 162.443C427.052 162.443 428.322 161.172 428.322 159.609C428.322 158.047 427.052 156.775 425.49 156.775Z" fill="#FF470D"/>
<path d="M148.405 296.545C146.296 296.545 144.58 294.828 144.58 292.717C144.58 290.607 146.296 288.89 148.405 288.89C150.515 288.89 152.231 290.607 152.231 292.717C152.231 294.828 150.515 296.545 148.405 296.545ZM148.405 289.883C146.844 289.883 145.573 291.155 145.573 292.717C145.573 294.279 146.844 295.551 148.405 295.551C149.967 295.551 151.238 294.279 151.238 292.717C151.238 291.155 149.967 289.883 148.405 289.883Z" fill="#FF470D"/>
<path d="M177.071 101.311C177.572 97.7764 178.393 97.7764 178.895 101.311C179.396 104.846 182.697 108.149 186.23 108.651C189.763 109.153 189.763 109.974 186.23 110.476C182.697 110.978 179.396 114.281 178.895 117.816C178.393 121.351 177.572 121.351 177.071 117.816C176.569 114.281 173.268 110.978 169.735 110.476C166.202 109.974 166.202 109.153 169.735 108.651C173.268 108.149 176.569 104.846 177.071 101.311Z" fill="#FF450D"/>
<path d="M625.447 292.877C625.949 289.342 626.769 289.342 627.271 292.877C627.773 296.412 631.074 299.714 634.607 300.216C638.139 300.718 638.139 301.54 634.607 302.041C631.074 302.543 627.773 305.846 627.271 309.381C626.769 312.916 625.949 312.916 625.447 309.381C624.945 305.846 621.644 302.543 618.112 302.041C614.579 301.54 614.579 300.718 618.112 300.216C621.644 299.714 624.945 296.412 625.447 292.877Z" fill="#FF3E06"/>
<path d="M770 492.683H0V496H770V492.683Z" fill="#FF470D"/>
</g>
<defs>
<clipPath id="clip0_905_2361">
<rect width="770" height="496" fill="white"/>
</clipPath>
</defs>
</svg>
