<svg width="139" height="61" viewBox="0 0 139 61" fill="none" xmlns="http://www.w3.org/2000/svg">
<path d="M1.35166 29.1343V0H18.3649V5.0777H6.37129V10.9878H16.39V16.0655H6.37129V29.1343H1.35166Z" fill="#FFEBE5"/>
<path d="M20.156 8.3241H25.1756V29.1343H20.156V8.3241ZM22.7069 5.63957C21.9663 5.63957 21.3423 5.39679 20.8349 4.91122C20.3274 4.41177 20.0737 3.78746 20.0737 3.03829C20.0737 2.303 20.3274 1.68563 20.8349 1.18618C21.3423 0.686738 21.9595 0.437016 22.6864 0.437016C23.4132 0.437016 24.0236 0.686738 24.5173 1.18618C25.0247 1.68563 25.2785 2.303 25.2785 3.03829C25.2785 3.78746 25.0316 4.41177 24.5379 4.91122C24.0441 5.39679 23.4338 5.63957 22.7069 5.63957Z" fill="#FFEBE5"/>
<path d="M48.8041 15.9823V29.1343H43.7845V17.3141C43.7845 16.4956 43.5856 15.7533 43.1879 15.0874C42.7902 14.4076 42.2553 13.8735 41.5833 13.485C40.9249 13.0827 40.1912 12.8815 39.382 12.8815C38.5728 12.8815 37.8322 13.0827 37.1602 13.485C36.5019 13.8735 35.9739 14.4076 35.5762 15.0874C35.1921 15.7533 35.0001 16.4956 35.0001 17.3141V29.1343H29.9805L29.9599 8.3241H34.9796L35.0001 10.1762C35.6996 9.42704 36.5362 8.83741 37.5099 8.40734C38.4837 7.96338 39.5329 7.74141 40.6575 7.74141C42.1524 7.74141 43.517 8.11599 44.7514 8.86516C45.9857 9.60046 46.9663 10.5924 47.6932 11.841C48.4338 13.0758 48.8041 14.4562 48.8041 15.9823Z" fill="#FFEBE5"/>
<path d="M61.5528 29.6754C59.6601 29.6754 57.9321 29.1829 56.3686 28.1979C54.8188 27.2129 53.5776 25.8879 52.645 24.2231C51.7261 22.5583 51.2667 20.7201 51.2667 18.7084C51.2667 17.1962 51.5341 15.7811 52.069 14.4631C52.6039 13.1313 53.3376 11.9659 54.2702 10.967C55.2165 9.95423 56.3137 9.16344 57.5618 8.59463C58.8098 8.02582 60.1402 7.74141 61.5528 7.74141C63.1574 7.74141 64.6249 8.08825 65.9553 8.78192C67.2993 9.46172 68.4376 10.3982 69.3702 11.5913C70.3029 12.7844 70.9817 14.144 71.4069 15.6701C71.8321 17.1962 71.9281 18.7916 71.6949 20.4565H56.6566C56.8486 21.2334 57.164 21.934 57.6029 22.5583C58.0418 23.1687 58.5972 23.6612 59.2693 24.0358C59.9413 24.3965 60.7025 24.5838 61.5528 24.5977C62.4305 24.6116 63.226 24.4035 63.9392 23.9734C64.6661 23.5294 65.2695 22.9329 65.7495 22.1837L70.872 23.3907C70.0354 25.2359 68.7874 26.7481 67.1279 27.9273C65.4684 29.0927 63.61 29.6754 61.5528 29.6754ZM56.492 16.6482H66.6136C66.4627 15.8158 66.1404 15.0666 65.6467 14.4007C65.1666 13.7209 64.5701 13.1798 63.8569 12.7775C63.1437 12.3752 62.3757 12.174 61.5528 12.174C60.7299 12.174 59.9687 12.3752 59.2693 12.7775C58.5698 13.1659 57.9732 13.7001 57.4795 14.3799C56.9995 15.0458 56.6703 15.8019 56.492 16.6482Z" fill="#FFEBE5"/>
<path d="M90.6339 8.3241H95.6535V29.1343H90.6339L90.4076 26.5539C89.8453 27.4834 89.0978 28.2395 88.1652 28.8222C87.2463 29.391 86.156 29.6754 84.8943 29.6754C83.3719 29.6754 81.9456 29.3841 80.6152 28.8014C79.2849 28.2187 78.1123 27.414 77.0974 26.3874C76.0962 25.3607 75.3076 24.1746 74.7316 22.8288C74.1693 21.4831 73.8881 20.0403 73.8881 18.5003C73.8881 17.0158 74.1555 15.6216 74.6904 14.3174C75.239 13.0133 76.0002 11.8688 76.9739 10.8838C77.9477 9.89874 79.0723 9.12876 80.3478 8.57382C81.6233 8.01888 82.9948 7.74141 84.4622 7.74141C85.82 7.74141 87.0338 8.04663 88.1035 8.65706C89.187 9.26749 90.1059 10.0444 90.8602 10.9878L90.6339 8.3241ZM84.7708 24.785C85.8406 24.785 86.7869 24.5145 87.6098 23.9734C88.4327 23.4323 89.0773 22.704 89.5436 21.7883C90.0099 20.8588 90.243 19.8391 90.243 18.7292C90.243 17.6055 90.0099 16.5858 89.5436 15.6701C89.0773 14.7406 88.4258 14.0053 87.5892 13.4642C86.7663 12.9232 85.8269 12.6526 84.7708 12.6526C83.7148 12.6526 82.7479 12.9301 81.8701 13.485C81.0061 14.0261 80.3135 14.7545 79.7923 15.6701C79.2849 16.5858 79.0312 17.6055 79.0312 18.7292C79.0312 19.853 79.2917 20.8727 79.8129 21.7883C80.3341 22.704 81.0267 23.4323 81.8907 23.9734C82.7685 24.5145 83.7285 24.785 84.7708 24.785Z" fill="#FFEBE5"/>
<path d="M112.106 22.8704L116.632 25.3469C115.685 26.651 114.499 27.6984 113.073 28.4892C111.646 29.28 110.09 29.6754 108.403 29.6754C106.51 29.6754 104.782 29.1829 103.219 28.1979C101.669 27.2129 100.428 25.8949 99.4951 24.2439C98.5762 22.5791 98.1167 20.7409 98.1167 18.7292C98.1167 17.2031 98.3842 15.7811 98.9191 14.4631C99.4539 13.1313 100.188 11.9659 101.12 10.967C102.067 9.95423 103.164 9.16344 104.412 8.59463C105.66 8.02582 106.99 7.74141 108.403 7.74141C110.09 7.74141 111.646 8.1368 113.073 8.92759C114.499 9.71838 115.685 10.7797 116.632 12.1116L112.106 14.5672C111.626 14.0122 111.057 13.5821 110.398 13.2769C109.754 12.9717 109.089 12.8191 108.403 12.8191C107.415 12.8191 106.524 13.0966 105.728 13.6515C104.933 14.1926 104.302 14.914 103.836 15.8158C103.37 16.7037 103.136 17.6748 103.136 18.7292C103.136 19.7697 103.37 20.7409 103.836 21.6426C104.302 22.5305 104.933 23.245 105.728 23.7861C106.524 24.3272 107.415 24.5977 108.403 24.5977C109.116 24.5977 109.795 24.4451 110.44 24.1399C111.084 23.8208 111.64 23.3976 112.106 22.8704Z" fill="#FFEBE5"/>
<path d="M128.734 29.6754C126.841 29.6754 125.113 29.1829 123.55 28.1979C122 27.2129 120.759 25.8879 119.826 24.2231C118.907 22.5583 118.448 20.7201 118.448 18.7084C118.448 17.1962 118.715 15.7811 119.25 14.4631C119.785 13.1313 120.519 11.9659 121.451 10.967C122.398 9.95423 123.495 9.16344 124.743 8.59463C125.991 8.02582 127.321 7.74141 128.734 7.74141C130.339 7.74141 131.806 8.08825 133.136 8.78192C134.481 9.46172 135.619 10.3982 136.551 11.5913C137.484 12.7844 138.163 14.144 138.588 15.6701C139.013 17.1962 139.109 18.7916 138.876 20.4565H123.838C124.03 21.2334 124.345 21.934 124.784 22.5583C125.223 23.1687 125.778 23.6612 126.451 24.0358C127.123 24.3965 127.884 24.5838 128.734 24.5977C129.612 24.6116 130.407 24.4035 131.12 23.9734C131.847 23.5294 132.451 22.9329 132.931 22.1837L138.053 23.3907C137.217 25.2359 135.969 26.7481 134.309 27.9273C132.65 29.0927 130.791 29.6754 128.734 29.6754ZM123.673 16.6482H133.795C133.644 15.8158 133.322 15.0666 132.828 14.4007C132.348 13.7209 131.751 13.1798 131.038 12.7775C130.325 12.3752 129.557 12.174 128.734 12.174C127.911 12.174 127.15 12.3752 126.451 12.7775C125.751 13.1659 125.154 13.7001 124.661 14.3799C124.181 15.0458 123.852 15.8019 123.673 16.6482Z" fill="#FFEBE5"/>
<path d="M0 57.0981V46.1727H1.08004V57.0981H0Z" fill="#FFEBE5"/>
<path d="M11.1202 52.2675V57.0981H10.0402V52.486C10.0402 52.0594 9.93732 51.6718 9.7316 51.3232C9.52587 50.9747 9.25072 50.6963 8.90613 50.4882C8.56155 50.2801 8.17839 50.1761 7.75666 50.1761C7.34007 50.1761 6.95691 50.2801 6.60719 50.4882C6.2626 50.6963 5.98745 50.9747 5.78172 51.3232C5.576 51.6718 5.47314 52.0594 5.47314 52.486V57.0981H4.3931V49.2942H5.47314V50.3712C5.74572 49.9758 6.10059 49.661 6.53775 49.4269C6.97491 49.1928 7.45065 49.0757 7.96495 49.0757C8.54612 49.0757 9.07585 49.2188 9.55416 49.5049C10.0325 49.7911 10.4131 50.1761 10.6959 50.6599C10.9788 51.1438 11.1202 51.6796 11.1202 52.2675Z" fill="#FFEBE5"/>
<path d="M17.475 57.0981H16.1018L13.286 49.2708H14.4354L16.7884 55.8183L19.1413 49.2708H20.2908L17.475 57.0981Z" fill="#FFEBE5"/>
<path d="M25.8963 57.301C25.1866 57.301 24.5385 57.1163 23.9522 56.7469C23.3711 56.3775 22.9056 55.8833 22.5559 55.2642C22.2113 54.6399 22.039 53.9505 22.039 53.1962C22.039 52.6239 22.1393 52.0906 22.3399 51.5964C22.5405 51.0969 22.8156 50.6599 23.1653 50.2853C23.5202 49.9055 23.9317 49.609 24.3997 49.3957C24.8677 49.1824 25.3666 49.0757 25.8963 49.0757C26.4672 49.0757 26.9918 49.1902 27.4701 49.4191C27.9535 49.648 28.3676 49.968 28.7121 50.379C29.0619 50.79 29.3242 51.2712 29.499 51.8227C29.679 52.3742 29.7536 52.9699 29.7228 53.6098H23.1808C23.2425 54.104 23.3968 54.5462 23.6437 54.9364C23.8957 55.3266 24.2145 55.6362 24.6003 55.8651C24.9911 56.0888 25.4232 56.2032 25.8963 56.2084C26.4106 56.2084 26.8735 56.0732 27.2849 55.8026C27.7015 55.5321 28.0358 55.1601 28.2878 54.6867L29.3833 54.9442C29.0747 55.6362 28.6093 56.2032 27.987 56.6455C27.3647 57.0825 26.6678 57.301 25.8963 57.301ZM23.1499 52.7279H28.635C28.599 52.2441 28.4524 51.8019 28.1953 51.4013C27.9433 50.9955 27.6167 50.6729 27.2155 50.4336C26.8144 50.1891 26.3746 50.0668 25.8963 50.0668C25.418 50.0668 24.9809 50.1865 24.5848 50.4258C24.1888 50.6599 23.8648 50.9799 23.6128 51.3857C23.3608 51.7863 23.2065 52.2337 23.1499 52.7279Z" fill="#FFEBE5"/>
<path d="M34.6784 57.2464C34.2567 57.2359 33.8452 57.1579 33.4441 57.0122C33.0429 56.8666 32.6932 56.6689 32.3949 56.4191C32.0966 56.1694 31.8832 55.8859 31.7546 55.5685L32.688 55.1627C32.7703 55.3656 32.9221 55.5529 33.1432 55.7246C33.3695 55.8911 33.6267 56.0264 33.9147 56.1304C34.2027 56.2293 34.4881 56.2787 34.771 56.2787C35.0847 56.2787 35.3779 56.2267 35.6505 56.1226C35.923 56.0186 36.1442 55.8703 36.3139 55.6778C36.4888 55.4801 36.5762 55.2486 36.5762 54.9832C36.5762 54.6971 36.4836 54.4734 36.2985 54.3121C36.1133 54.1456 35.8793 54.0156 35.5965 53.9219C35.3136 53.8231 35.023 53.7294 34.7247 53.641C34.1795 53.4901 33.6987 53.3236 33.2821 53.1415C32.8655 52.9594 32.5389 52.7279 32.3023 52.447C32.0709 52.1609 31.9552 51.7941 31.9552 51.3467C31.9552 50.8732 32.0863 50.4648 32.3486 50.1215C32.616 49.7729 32.9632 49.505 33.3901 49.3177C33.8221 49.1252 34.2824 49.0289 34.771 49.0289C35.3984 49.0289 35.9693 49.1668 36.4836 49.4425C37.0031 49.7183 37.3785 50.085 37.61 50.5429L36.7382 51.0657C36.6456 50.8524 36.4991 50.6677 36.2985 50.5116C36.0979 50.3556 35.869 50.2333 35.6119 50.1449C35.3599 50.0564 35.1027 50.0096 34.8404 50.0044C34.5113 49.9992 34.2052 50.0486 33.9224 50.1527C33.6395 50.2515 33.4106 50.3998 33.2358 50.5975C33.0661 50.7952 32.9812 51.0371 32.9812 51.3232C32.9812 51.6094 33.0661 51.8279 33.2358 51.9788C33.4055 52.1244 33.6344 52.2441 33.9224 52.3377C34.2155 52.4262 34.5447 52.5302 34.9099 52.6499C35.3779 52.8008 35.8176 52.9725 36.229 53.165C36.6405 53.3574 36.9722 53.5968 37.2242 53.8829C37.4762 54.169 37.5997 54.5306 37.5945 54.9676C37.5945 55.4359 37.4557 55.8443 37.1779 56.1928C36.9002 56.5414 36.5402 56.8093 36.0979 56.9966C35.6556 57.1787 35.1824 57.262 34.6784 57.2464Z" fill="#FFEBE5"/>
<path d="M44.1008 50.3868H42.257L42.2493 57.0981H41.1693L41.177 50.3868H39.7806V49.2942H41.177L41.1693 46.8438H42.2493L42.257 49.2942H44.1008V50.3868Z" fill="#FFEBE5"/>
<path d="M46.7118 57.0981V49.2942H47.7919V50.3712C48.0696 49.9758 48.4245 49.661 48.8565 49.4269C49.2885 49.1928 49.7617 49.0757 50.276 49.0757C50.8572 49.0757 51.3895 49.2214 51.8729 49.5127C52.3564 49.7989 52.7344 50.1813 53.007 50.6599C53.2795 50.1813 53.655 49.7989 54.1333 49.5127C54.6116 49.2214 55.1413 49.0757 55.7225 49.0757C56.3037 49.0757 56.8334 49.2188 57.3117 49.5049C57.79 49.7911 58.1706 50.1761 58.4535 50.6599C58.7363 51.1438 58.8778 51.6796 58.8778 52.2675V57.0981H57.7977V52.5094C57.7977 52.0932 57.6974 51.7082 57.4968 51.3545C57.2963 51.0007 57.0263 50.7171 56.6868 50.5038C56.3525 50.2853 55.9796 50.1761 55.5682 50.1761C55.1567 50.1761 54.7813 50.2775 54.4419 50.4804C54.1076 50.6781 53.8401 50.9539 53.6395 51.3076C53.439 51.6562 53.3387 52.0568 53.3387 52.5094V57.0981H52.2586V52.5094C52.2586 52.0568 52.1584 51.6562 51.9578 51.3076C51.7572 50.9539 51.4872 50.6781 51.1477 50.4804C50.8083 50.2775 50.4329 50.1761 50.0214 50.1761C49.6151 50.1761 49.2422 50.2853 48.9028 50.5038C48.5633 50.7171 48.2933 51.0007 48.0928 51.3545C47.8922 51.7082 47.7919 52.0932 47.7919 52.5094V57.0981H46.7118Z" fill="#FFEBE5"/>
<path d="M64.9014 57.301C64.1917 57.301 63.5436 57.1163 62.9573 56.7469C62.3762 56.3775 61.9107 55.8833 61.561 55.2642C61.2164 54.6399 61.0441 53.9505 61.0441 53.1962C61.0441 52.6239 61.1444 52.0906 61.345 51.5964C61.5456 51.0969 61.8207 50.6599 62.1704 50.2853C62.5253 49.9055 62.9368 49.609 63.4048 49.3957C63.8728 49.1824 64.3717 49.0757 64.9014 49.0757C65.4723 49.0757 65.9969 49.1902 66.4752 49.4191C66.9586 49.648 67.3727 49.968 67.7172 50.379C68.067 50.79 68.3293 51.2712 68.5041 51.8227C68.6841 52.3742 68.7587 52.9699 68.7278 53.6098H62.1859C62.2476 54.104 62.4019 54.5462 62.6488 54.9364C62.9008 55.3266 63.2196 55.6362 63.6054 55.8651C63.9962 56.0888 64.4282 56.2032 64.9014 56.2084C65.4157 56.2084 65.8786 56.0732 66.29 55.8026C66.7066 55.5321 67.0409 55.1601 67.2929 54.6867L68.3884 54.9442C68.0798 55.6362 67.6144 56.2032 66.9921 56.6455C66.3698 57.0825 65.6729 57.301 64.9014 57.301ZM62.155 52.7279H67.6401C67.6041 52.2441 67.4575 51.8019 67.2004 51.4013C66.9483 50.9955 66.6218 50.6729 66.2206 50.4336C65.8194 50.1891 65.3797 50.0668 64.9014 50.0668C64.4231 50.0668 63.9859 50.1865 63.5899 50.4258C63.1939 50.6599 62.8699 50.9799 62.6179 51.3857C62.3659 51.7863 62.2116 52.2337 62.155 52.7279Z" fill="#FFEBE5"/>
<path d="M78.0118 52.2675V57.0981H76.9317V52.486C76.9317 52.0594 76.8288 51.6718 76.6231 51.3232C76.4174 50.9747 76.1423 50.6963 75.7977 50.4882C75.4531 50.2801 75.0699 50.1761 74.6482 50.1761C74.2316 50.1761 73.8484 50.2801 73.4987 50.4882C73.1541 50.6963 72.879 50.9747 72.6733 51.3232C72.4675 51.6718 72.3647 52.0594 72.3647 52.486V57.0981H71.2846V49.2942H72.3647V50.3712C72.6373 49.9758 72.9921 49.661 73.4293 49.4269C73.8664 49.1928 74.3422 49.0757 74.8565 49.0757C75.4377 49.0757 75.9674 49.2188 76.4457 49.5049C76.924 49.7911 77.3046 50.1761 77.5874 50.6599C77.8703 51.1438 78.0118 51.6796 78.0118 52.2675Z" fill="#FFEBE5"/>
<path d="M84.7332 50.3868H82.8894L82.8817 57.0981H81.8017L81.8094 50.3868H80.413V49.2942H81.8094L81.8017 46.8438H82.8817L82.8894 49.2942H84.7332V50.3868Z" fill="#FFEBE5"/>
<path d="M97.292 57.301C96.5514 57.301 95.857 57.1553 95.209 56.864C94.5661 56.5674 94.003 56.159 93.5195 55.6388C93.0361 55.1133 92.6581 54.5098 92.3855 53.8283C92.1129 53.1415 91.9766 52.408 91.9766 51.6276C91.9766 50.8316 92.118 50.0902 92.4009 49.4035C92.6838 48.7168 93.0721 48.1185 93.5658 47.6086C94.0595 47.0936 94.6253 46.693 95.263 46.4068C95.9059 46.1207 96.5874 45.9776 97.3074 45.9776C98.1354 45.9776 98.9172 46.1727 99.6526 46.5629C100.393 46.9531 101.021 47.5072 101.535 48.2251L100.571 48.7558C100.159 48.2095 99.6629 47.7907 99.0817 47.4994C98.5057 47.208 97.9117 47.0623 97.2997 47.0623C96.7185 47.0623 96.1708 47.182 95.6565 47.4213C95.1473 47.6554 94.6973 47.9832 94.3064 48.4046C93.9155 48.826 93.6095 49.3125 93.3884 49.8639C93.1672 50.4154 93.0566 51.0085 93.0566 51.6432C93.0566 52.2727 93.1672 52.8632 93.3884 53.4147C93.6095 53.9661 93.913 54.4526 94.2987 54.874C94.6896 55.2902 95.1422 55.618 95.6565 55.8573C96.1708 56.0914 96.7211 56.2084 97.3074 56.2084C97.7908 56.2084 98.2486 56.1252 98.6806 55.9587C99.1177 55.787 99.5163 55.5477 99.8763 55.2408C100.236 54.9338 100.54 54.5748 100.787 54.1638C101.039 53.7528 101.221 53.3054 101.334 52.8216H98.4183V51.8305H102.592C102.576 52.5849 102.427 53.2924 102.144 53.9531C101.862 54.6139 101.476 55.1965 100.987 55.7012C100.504 56.2006 99.9458 56.5934 99.3132 56.8796C98.6857 57.1605 98.012 57.301 97.292 57.301Z" fill="#FFEBE5"/>
<path d="M105.332 57.0981V49.2942H106.413V50.3712C106.685 49.9758 107.04 49.661 107.477 49.4269C107.914 49.1928 108.39 49.0757 108.904 49.0757C109.203 49.0757 109.491 49.1148 109.768 49.1928L109.329 50.2775C109.113 50.2099 108.902 50.1761 108.696 50.1761C108.279 50.1761 107.896 50.2801 107.547 50.4882C107.202 50.6963 106.927 50.9747 106.721 51.3232C106.515 51.6718 106.413 52.0594 106.413 52.486V57.0981H105.332Z" fill="#FFEBE5"/>
<path d="M114.964 57.301C114.254 57.301 113.606 57.1163 113.02 56.7469C112.438 56.3775 111.973 55.8833 111.623 55.2642C111.279 54.6399 111.106 53.9505 111.106 53.1962C111.106 52.6239 111.207 52.0906 111.407 51.5964C111.608 51.0969 111.883 50.6599 112.233 50.2853C112.588 49.9055 112.999 49.609 113.467 49.3957C113.935 49.1824 114.434 49.0757 114.964 49.0757C115.673 49.0757 116.319 49.2604 116.9 49.6298C117.486 49.9992 117.952 50.496 118.296 51.1203C118.646 51.7446 118.821 52.4366 118.821 53.1962C118.821 53.7632 118.721 54.2939 118.52 54.7881C118.32 55.2824 118.042 55.7194 117.687 56.0992C117.337 56.4738 116.928 56.7677 116.46 56.981C115.997 57.1943 115.499 57.301 114.964 57.301ZM114.964 56.2084C115.488 56.2084 115.959 56.0706 116.375 55.7948C116.797 55.5139 117.129 55.1445 117.371 54.6867C117.618 54.2289 117.741 53.732 117.741 53.1962C117.741 52.6499 117.618 52.1478 117.371 51.69C117.124 51.227 116.789 50.8576 116.368 50.5819C115.951 50.3061 115.483 50.1683 114.964 50.1683C114.439 50.1683 113.966 50.3087 113.544 50.5897C113.128 50.8654 112.796 51.2322 112.549 51.69C112.307 52.1478 112.186 52.6499 112.186 53.1962C112.186 53.758 112.312 54.2679 112.564 54.7257C112.816 55.1783 113.153 55.5399 113.575 55.8104C113.997 56.0758 114.46 56.2084 114.964 56.2084Z" fill="#FFEBE5"/>
<path d="M120.978 54.1092V49.2942H122.058V53.8907C122.058 54.3173 122.161 54.7049 122.367 55.0535C122.572 55.4021 122.848 55.6804 123.192 55.8885C123.542 56.0966 123.925 56.2006 124.342 56.2006C124.763 56.2006 125.144 56.0966 125.483 55.8885C125.828 55.6804 126.103 55.4021 126.309 55.0535C126.515 54.7049 126.617 54.3173 126.617 53.8907V49.2942H127.697L127.705 57.0981H126.625L126.617 56.0055C126.345 56.4009 125.99 56.7157 125.553 56.9498C125.121 57.1839 124.648 57.301 124.133 57.301C123.552 57.301 123.022 57.1579 122.544 56.8718C122.066 56.5856 121.685 56.2006 121.402 55.7168C121.119 55.233 120.978 54.6971 120.978 54.1092Z" fill="#FFEBE5"/>
<path d="M131.406 61H130.326V49.2942H131.406V50.7536C131.673 50.2593 132.039 49.8587 132.501 49.5518C132.964 49.2448 133.515 49.0913 134.152 49.0913C134.713 49.0913 135.238 49.198 135.726 49.4113C136.22 49.6246 136.652 49.9212 137.022 50.3009C137.393 50.6755 137.683 51.1099 137.894 51.6042C138.105 52.0984 138.21 52.6291 138.21 53.1962C138.21 53.7632 138.105 54.2965 137.894 54.7959C137.683 55.2954 137.393 55.735 137.022 56.1148C136.652 56.4894 136.22 56.7833 135.726 56.9966C135.238 57.2099 134.713 57.3166 134.152 57.3166C133.515 57.3166 132.964 57.1631 132.501 56.8562C132.039 56.5492 131.673 56.1486 131.406 55.6544V61ZM134.145 50.1527C133.605 50.1527 133.134 50.2905 132.733 50.5663C132.337 50.8368 132.031 51.201 131.815 51.6588C131.599 52.1166 131.491 52.6291 131.491 53.1962C131.491 53.7528 131.596 54.2627 131.807 54.7257C132.023 55.1887 132.329 55.5581 132.725 55.8339C133.126 56.1096 133.6 56.2475 134.145 56.2475C134.68 56.2475 135.171 56.1122 135.618 55.8417C136.071 55.5711 136.433 55.207 136.706 54.7491C136.979 54.2861 137.115 53.7684 137.115 53.1962C137.115 52.6395 136.981 52.1322 136.714 51.6744C136.446 51.2114 136.089 50.842 135.641 50.5663C135.194 50.2905 134.695 50.1527 134.145 50.1527Z" fill="#FFEBE5"/>
</svg>
