<svg width="24" height="25" viewBox="0 0 24 25" fill="none" xmlns="http://www.w3.org/2000/svg">
<path fill-rule="evenodd" clip-rule="evenodd" d="M13.8998 5.89985C14.1927 5.60695 14.6676 5.60695 14.9605 5.89985L21.0305 11.9698C21.1712 12.1105 21.2502 12.3013 21.2502 12.5002C21.2502 12.6991 21.1712 12.8899 21.0305 13.0305L14.9605 19.1005C14.6676 19.3934 14.1927 19.3934 13.8998 19.1005C13.607 18.8076 13.607 18.3327 13.8998 18.0398L19.4395 12.5002L13.8998 6.96051C13.607 6.66761 13.607 6.19274 13.8998 5.89985Z" fill="#FF450D"/>
<path fill-rule="evenodd" clip-rule="evenodd" d="M2.75 12.5C2.75 12.0858 3.08579 11.75 3.5 11.75H20.33C20.7442 11.75 21.08 12.0858 21.08 12.5C21.08 12.9142 20.7442 13.25 20.33 13.25H3.5C3.08579 13.25 2.75 12.9142 2.75 12.5Z" fill="#FF450D"/>
</svg>
