<svg width="540" height="451" viewBox="0 0 540 451" fill="none" xmlns="http://www.w3.org/2000/svg">
<g clip-path="url(#clip0_905_2214)">
<path d="M540 366.875H0V369.197H540V366.875Z" fill="#FF470D"/>
<path d="M362.276 366.999H116.513C113.978 366.999 111.917 364.939 111.917 362.407V13.8009C111.917 11.2691 113.978 9.20947 116.513 9.20947H362.276C364.81 9.20947 366.872 11.2691 366.872 13.8009V362.407C366.872 364.939 364.81 366.999 362.276 366.999V366.999ZM116.513 10.9492C114.939 10.9492 113.658 12.2286 113.658 13.8009V362.407C113.658 363.98 114.939 365.259 116.513 365.259H362.276C363.85 365.259 365.131 363.98 365.131 362.407V13.8009C365.131 12.2286 363.85 10.9492 362.276 10.9492H116.513ZM352.516 357.287H127.803C125.269 357.287 123.207 355.227 123.207 352.696V23.7681C123.207 21.2363 125.269 19.1767 127.803 19.1767H352.516C355.051 19.1767 357.113 21.2363 357.113 23.7681V352.696C357.113 355.227 355.051 357.287 352.516 357.287ZM127.803 20.9164C126.229 20.9164 124.948 22.1958 124.948 23.7681V352.696C124.948 354.268 126.229 355.547 127.803 355.547H352.516C354.09 355.547 355.371 354.268 355.371 352.696V23.7681C355.371 22.1956 354.09 20.9164 352.516 20.9164H127.803Z" fill="#FF8600"/>
<path d="M352.516 357.287H127.803C125.268 357.287 123.207 355.228 123.207 352.696V23.7682C123.207 21.2364 125.268 19.1768 127.803 19.1768H352.516C355.051 19.1768 357.113 21.2364 357.113 23.7682V352.696C357.113 355.228 355.051 357.287 352.516 357.287ZM127.803 20.9165C126.229 20.9165 124.948 22.1959 124.948 23.7682V352.696C124.948 354.268 126.229 355.547 127.803 355.547H352.516C354.09 355.547 355.371 354.268 355.371 352.696V23.7682C355.371 22.1957 354.09 20.9165 352.516 20.9165H127.803Z" fill="#FF8600"/>
<path d="M352.516 357.287H127.803C125.268 357.287 123.207 355.228 123.207 352.696V23.7682C123.207 21.2364 125.268 19.1768 127.803 19.1768H352.516C355.051 19.1768 357.113 21.2364 357.113 23.7682V352.696C357.113 355.228 355.051 357.287 352.516 357.287ZM127.803 20.9165C126.229 20.9165 124.948 22.1959 124.948 23.7682V352.696C124.948 354.268 126.229 355.547 127.803 355.547H352.516C354.09 355.547 355.371 354.268 355.371 352.696V23.7682C355.371 22.1957 354.09 20.9165 352.516 20.9165H127.803Z" fill="#FF8600"/>
<path d="M392.92 0.869873H205.934C193.238 0.869873 182.945 11.1513 182.945 23.8342V114.734C182.945 127.417 193.238 137.698 205.934 137.698H392.92C405.616 137.698 415.909 127.417 415.909 114.734V23.8342C415.909 11.1513 405.616 0.869873 392.92 0.869873Z" fill="white"/>
<path d="M392.92 138.568H205.935C192.778 138.568 182.075 127.876 182.075 114.734V23.8342C182.075 10.692 192.778 0 205.935 0H392.92C406.076 0 416.78 10.692 416.78 23.8342V114.734C416.78 127.876 406.076 138.568 392.92 138.568ZM205.935 1.73972C193.739 1.73972 183.816 11.6513 183.816 23.8342V114.734C183.816 126.917 193.739 136.828 205.935 136.828H392.92C405.116 136.828 415.038 126.917 415.038 114.734V23.8342C415.038 11.6513 405.116 1.73972 392.92 1.73972H205.935Z" fill="#FF450D"/>
<path d="M336.326 119.17H267.933C262.89 119.17 258.787 115.071 258.787 110.034V53.3777C258.787 48.3401 262.89 44.2417 267.933 44.2417H336.326C341.369 44.2417 345.472 48.3401 345.472 53.3777V110.034C345.472 115.071 341.369 119.17 336.326 119.17ZM267.933 45.4597C263.562 45.4597 260.006 49.0117 260.006 53.3778V110.034C260.006 114.4 263.562 117.952 267.933 117.952H336.326C340.697 117.952 344.253 114.4 344.253 110.034V53.3777C344.253 49.0117 340.697 45.4595 336.326 45.4595H267.933V45.4597Z" fill="#FF450D"/>
<path d="M329.462 45.4598H277.988L278.064 44.7823C279.703 30.3112 290.735 19.3984 303.725 19.3984C316.715 19.3984 327.747 30.3112 329.386 44.7823L329.462 45.4598H329.462ZM279.36 44.242H328.09C326.261 30.7252 315.892 20.6164 303.725 20.6164C291.558 20.6164 281.19 30.7252 279.36 44.242H279.36Z" fill="#FF450D"/>
<path d="M197.473 270.381C228.421 270.381 253.509 245.32 253.509 214.405C253.509 183.491 228.421 158.43 197.473 158.43C166.526 158.43 141.438 183.491 141.438 214.405C141.438 245.32 166.526 270.381 197.473 270.381Z" fill="white"/>
<path d="M197.473 271.163C182.296 271.163 168.028 265.26 157.296 254.539C146.564 243.819 140.654 229.566 140.654 214.405C140.654 199.245 146.564 184.991 157.296 174.271C168.028 163.551 182.296 157.647 197.473 157.647C212.651 157.647 226.919 163.551 237.651 174.271C248.383 184.991 254.293 199.245 254.293 214.405C254.293 229.566 248.382 243.819 237.651 254.539C226.919 265.26 212.65 271.163 197.473 271.163ZM197.473 159.213C167.007 159.213 142.221 183.972 142.221 214.405C142.221 244.839 167.007 269.598 197.473 269.598C227.94 269.598 252.725 244.839 252.725 214.405C252.725 183.972 227.94 159.213 197.473 159.213Z" fill="#FF450D"/>
<path d="M189.251 240.153C188.128 240.153 187.075 239.719 186.286 238.93C186.103 238.748 185.936 238.547 185.788 238.33C185.618 238.191 185.459 238.039 185.313 237.876L165.358 215.531C164.615 214.699 164.241 213.625 164.305 212.505C164.369 211.386 164.863 210.36 165.696 209.618C166.461 208.935 167.451 208.559 168.483 208.559C169.682 208.559 170.823 209.068 171.616 209.955L189.412 229.884L229.461 189.88C230.25 189.092 231.303 188.658 232.425 188.658C233.548 188.658 234.6 189.092 235.39 189.88C236.179 190.668 236.614 191.72 236.614 192.842C236.614 193.964 236.179 195.014 235.39 195.803L192.216 238.93C191.427 239.719 190.374 240.153 189.251 240.153H189.251ZM168.483 210.298C167.88 210.298 167.302 210.518 166.856 210.916C166.369 211.349 166.081 211.949 166.044 212.604C166.006 213.26 166.224 213.888 166.658 214.373L186.612 236.717C186.718 236.836 186.837 236.946 186.965 237.042L187.093 237.139L187.178 237.275C187.274 237.429 187.388 237.572 187.516 237.699C187.978 238.16 188.593 238.414 189.251 238.414C189.908 238.414 190.524 238.16 190.984 237.7L234.158 194.572C234.619 194.112 234.872 193.498 234.872 192.842C234.872 192.186 234.619 191.57 234.158 191.111C233.698 190.651 233.082 190.397 232.425 190.397C231.768 190.397 231.152 190.651 230.692 191.11L189.34 232.417L170.316 211.113C169.853 210.595 169.185 210.298 168.483 210.298L168.483 210.298Z" fill="#FF8600"/>
<path d="M384.856 245.515L299.795 378.993C297.522 382.559 298.574 387.29 302.144 389.561L395.519 448.937C399.089 451.207 403.825 450.156 406.098 446.59L491.159 313.112C493.432 309.546 492.38 304.815 488.81 302.544L395.435 243.168C391.865 240.898 387.128 241.949 384.856 245.515Z" fill="white"/>
<path d="M399.62 451C398.052 451 396.468 450.57 395.051 449.669L301.676 390.293C297.706 387.769 296.533 382.49 299.06 378.524L384.12 245.046C385.34 243.133 387.24 241.806 389.471 241.311C391.703 240.817 393.986 241.214 395.902 242.433L489.276 301.809C491.192 303.027 492.52 304.925 493.016 307.154C493.511 309.383 493.113 311.664 491.893 313.578L406.833 447.055C405.208 449.605 402.442 451 399.62 451L399.62 451ZM395.986 448.201C399.145 450.21 403.352 449.277 405.363 446.121L490.424 312.643C491.393 311.121 491.71 309.306 491.315 307.531C490.921 305.756 489.864 304.245 488.341 303.276L394.966 243.9C393.443 242.932 391.625 242.615 389.849 243.009C388.071 243.404 386.559 244.459 385.589 245.98L300.529 379.458C299.559 380.98 299.242 382.796 299.637 384.571C300.031 386.346 301.088 387.857 302.611 388.825L395.986 448.201Z" fill="#FF450D"/>
<path d="M336.349 355.351L319.665 381.532C319.045 382.505 319.332 383.795 320.306 384.414L335.471 394.057C336.444 394.676 337.736 394.39 338.356 393.417L355.04 367.237C355.66 366.264 355.373 364.974 354.399 364.354L339.235 354.711C338.261 354.092 336.969 354.379 336.349 355.351Z" fill="white"/>
<path d="M336.588 395.251C336.044 395.251 335.495 395.102 335.003 394.789L319.838 385.146C318.461 384.271 318.054 382.439 318.931 381.063L335.615 354.883C336.038 354.218 336.697 353.758 337.471 353.586C338.244 353.415 339.037 353.553 339.702 353.976L354.866 363.619C355.532 364.042 355.993 364.7 356.164 365.473C356.336 366.246 356.198 367.037 355.774 367.702L339.09 393.883C338.527 394.767 337.567 395.251 336.588 395.251ZM335.938 393.322C336.505 393.682 337.26 393.515 337.621 392.948L354.305 366.768C354.479 366.495 354.535 366.17 354.464 365.851C354.394 365.531 354.204 365.26 353.931 365.087L338.767 355.444C338.494 355.27 338.168 355.214 337.849 355.284C337.529 355.355 337.257 355.544 337.084 355.817L320.4 381.998C320.226 382.27 320.17 382.596 320.241 382.915C320.312 383.234 320.501 383.505 320.774 383.679L335.938 393.322V393.322Z" fill="#FF450D"/>
<path d="M354.681 407.823L353.307 410.018L354.649 411.163C354.714 411.019 354.774 410.884 354.907 410.672C355.184 410.229 355.558 409.848 355.992 409.626C356.532 409.335 357.26 409.273 357.987 409.727C359.112 410.429 359.395 411.849 358.614 413.097C358.221 413.725 357.711 414.146 357.362 414.31L356.891 413.744C357.182 413.594 357.653 413.235 357.979 412.713C358.439 411.978 358.354 411.051 357.583 410.57C356.833 410.114 355.991 410.278 355.271 411.429C355.066 411.756 354.941 412.035 354.835 412.264L352.303 410.167L354.025 407.414L354.681 407.823V407.823Z" fill="#FF8600"/>
<path d="M357.609 403.299L357.598 403.317L357.513 404.655L356.825 404.435L356.938 402.757L357.353 402.093L363.113 405.689L362.642 406.441L357.609 403.299L357.609 403.299Z" fill="#FF8600"/>
<path d="M362.577 395.2L361.204 397.395L362.545 398.54C362.611 398.396 362.67 398.261 362.803 398.049C363.08 397.606 363.454 397.224 363.888 397.003C364.428 396.712 365.157 396.65 365.883 397.104C367.009 397.806 367.291 399.225 366.51 400.474C366.117 401.102 365.608 401.522 365.259 401.686L364.787 401.121C365.078 400.971 365.549 400.612 365.876 400.09C366.336 399.355 366.25 398.428 365.479 397.947C364.729 397.491 363.887 397.655 363.168 398.806C362.963 399.133 362.838 399.412 362.731 399.641L360.199 397.544L361.921 394.791L362.577 395.2V395.2Z" fill="#FF8600"/>
<path d="M369.481 395.509L369.002 395.21L368.791 394.229C368.31 391.885 367.981 390.757 367.118 390.206C366.533 389.841 365.815 389.787 365.278 390.645C364.952 391.168 364.946 391.767 365.002 392.171L364.297 392.076C364.209 391.467 364.316 390.746 364.731 390.082C365.506 388.843 366.683 388.852 367.508 389.366C368.571 390.03 368.949 391.336 369.36 393.279L369.498 394.005L369.515 394.016L371.132 391.431L371.779 391.835L369.481 395.508L369.481 395.509Z" fill="#FF8600"/>
<path d="M375.01 376.074C374.902 376.228 374.783 376.437 374.68 376.68C374.12 378.029 374.611 379.234 375.476 379.958L375.492 379.932C375.301 379.431 375.299 378.765 375.697 378.127C376.334 377.109 377.518 376.852 378.643 377.554C379.698 378.212 380.224 379.538 379.476 380.733C378.707 381.963 377.246 382.171 375.748 381.236C374.614 380.529 373.974 379.563 373.761 378.642C373.59 377.871 373.696 377.051 374.062 376.27C374.171 376.018 374.284 375.817 374.372 375.676L375.01 376.074ZM378.195 378.37C377.371 377.855 376.581 378.014 376.132 378.731C375.839 379.201 375.86 379.817 376.144 380.289C376.199 380.398 376.292 380.505 376.434 380.593C377.393 381.168 378.364 381.171 378.874 380.357C379.295 379.684 379.019 378.884 378.195 378.37Z" fill="#FF8600"/>
<path d="M380.608 375.457C379.882 375.004 379.639 374.249 379.781 373.353L379.748 373.345C379.048 373.794 378.381 373.759 377.885 373.449C376.972 372.879 376.833 371.722 377.465 370.713C378.162 369.598 379.211 369.477 379.929 369.925C380.416 370.229 380.79 370.795 380.683 371.713L380.71 371.729C381.442 371.189 382.224 371.062 382.924 371.499C383.925 372.124 384.061 373.403 383.375 374.501C382.622 375.705 381.45 375.983 380.608 375.457H380.608ZM378.291 372.681C378.867 373.041 379.448 372.801 380.041 372.247C380.182 371.647 380.066 371.045 379.543 370.718C379.083 370.431 378.432 370.406 377.995 371.106C377.591 371.752 377.795 372.372 378.291 372.681V372.681ZM382.511 372.337C381.811 371.9 381.17 372.177 380.461 372.817C380.235 373.612 380.451 374.251 381 374.594C381.569 374.986 382.36 374.864 382.819 374.129C383.257 373.43 383.104 372.708 382.511 372.337Z" fill="#FF8600"/>
<path d="M382.639 362.656L383.153 362.977L386.832 368.757L386.328 369.563L382.794 363.886L382.777 363.875L381.016 366.69L380.369 366.286L382.639 362.657L382.639 362.656Z" fill="#FF8600"/>
<path d="M389.232 362.931C389.512 362.798 390.055 362.423 390.393 361.884C391.019 360.883 390.574 360.175 390.09 359.886C389.278 359.391 388.479 359.901 388.008 360.654L387.737 361.087L387.152 360.722L387.423 360.288C387.778 359.722 387.934 358.822 387.252 358.396C386.791 358.109 386.2 358.146 385.752 358.864C385.464 359.324 385.391 359.894 385.413 360.252L384.718 360.102C384.685 359.662 384.829 358.94 385.217 358.32C385.926 357.187 386.92 357.094 387.62 357.531C388.214 357.902 388.498 358.571 388.312 359.44L388.329 359.451C388.914 358.831 389.806 358.588 390.612 359.091C391.534 359.666 391.891 360.887 391.028 362.268C390.624 362.914 390.066 363.353 389.702 363.52L389.233 362.932L389.232 362.931Z" fill="#FF8600"/>
<path d="M405.936 338.914C406.059 338.757 406.163 338.551 406.302 338.269C406.523 337.779 406.602 337.238 406.497 336.717C406.389 336.12 406.056 335.531 405.44 334.999L405.423 335.025C405.614 335.587 405.557 336.191 405.197 336.767C404.549 337.802 403.353 337.979 402.37 337.365C401.28 336.685 400.816 335.3 401.552 334.122C402.289 332.945 403.7 332.817 405.171 333.735C406.438 334.526 407.058 335.504 407.253 336.413C407.411 337.127 407.294 337.903 406.978 338.567C406.845 338.878 406.699 339.132 406.574 339.312L405.936 338.914V338.914ZM402.798 336.562C403.516 337.01 404.293 336.892 404.714 336.219C405.04 335.697 405.038 335.129 404.82 334.71C404.777 334.621 404.705 334.539 404.581 334.462C403.597 333.848 402.617 333.741 402.107 334.555C401.692 335.219 401.983 336.053 402.798 336.562V336.562Z" fill="#FF8600"/>
<path d="M409.372 332.653C409.652 332.52 410.195 332.145 410.533 331.605C411.158 330.605 410.714 329.897 410.23 329.607C409.418 329.112 408.619 329.622 408.148 330.375L407.876 330.808L407.292 330.443L407.563 330.01C407.917 329.443 408.073 328.544 407.391 328.118C406.93 327.83 406.34 327.868 405.892 328.585C405.604 329.045 405.531 329.615 405.553 329.973L404.859 329.823C404.825 329.384 404.969 328.661 405.357 328.042C406.065 326.909 407.06 326.815 407.76 327.252C408.354 327.623 408.637 328.293 408.452 329.161L408.469 329.172C409.054 328.552 409.946 328.309 410.752 328.812C411.674 329.388 412.032 330.608 411.168 331.989C410.764 332.635 410.205 333.074 409.842 333.241L409.373 332.653L409.372 332.653Z" fill="#FF8600"/>
<path d="M414.099 327.085L413.62 326.787L413.409 325.805C412.928 323.462 412.599 322.333 411.736 321.782C411.151 321.417 410.433 321.363 409.896 322.222C409.57 322.744 409.564 323.344 409.62 323.748L408.915 323.652C408.827 323.044 408.934 322.322 409.349 321.659C410.124 320.419 411.302 320.428 412.126 320.943C413.189 321.606 413.567 322.913 413.978 324.856L414.115 325.581L414.133 325.593L415.75 323.008L416.397 323.412L414.099 327.085L414.099 327.085Z" fill="#FF8600"/>
<path d="M417.497 315.114C419.455 316.336 420.083 317.737 419.285 319.011C418.582 320.136 417.052 320.239 415.135 319.067C413.203 317.861 412.661 316.365 413.391 315.197C414.15 313.984 415.663 313.968 417.497 315.114ZM415.631 318.294C417.129 319.229 418.268 319.299 418.71 318.591C419.209 317.794 418.516 316.833 417.045 315.915C415.628 315.03 414.47 314.812 413.966 315.618C413.54 316.299 414.063 317.315 415.631 318.294Z" fill="#FF8600"/>
<path d="M428.064 305.468L426.496 304.489L424.824 307.162L424.31 306.842L422.238 301.979L422.764 301.138L426.344 303.373L426.848 302.567L427.459 302.949L426.955 303.754L428.524 304.733L428.064 305.468H428.064ZM425.884 304.108L423.961 302.907C423.66 302.719 423.364 302.522 423.074 302.317L423.058 302.343C423.283 302.731 423.443 303.027 423.609 303.352L424.687 305.982L424.705 305.993L425.884 304.108H425.884Z" fill="#FF8600"/>
<path d="M429.727 300.82C430.008 300.687 430.55 300.312 430.888 299.772C431.514 298.772 431.07 298.064 430.586 297.774C429.774 297.279 428.974 297.79 428.503 298.542L428.232 298.976L427.647 298.61L427.918 298.177C428.273 297.61 428.429 296.711 427.747 296.285C427.286 295.997 426.696 296.035 426.247 296.752C425.959 297.212 425.886 297.782 425.909 298.14L425.214 297.99C425.181 297.551 425.325 296.828 425.712 296.209C426.421 295.076 427.416 294.983 428.116 295.42C428.709 295.79 428.993 296.46 428.807 297.328L428.825 297.339C429.41 296.72 430.301 296.476 431.108 296.979C432.029 297.555 432.387 298.775 431.523 300.156C431.119 300.802 430.561 301.241 430.198 301.409L429.728 300.82L429.727 300.82Z" fill="#FF8600"/>
<path d="M434.454 295.253L433.976 294.954L433.764 293.973C433.283 291.629 432.954 290.501 432.091 289.95C431.507 289.585 430.789 289.531 430.252 290.389C429.925 290.912 429.92 291.511 429.975 291.915L429.271 291.82C429.183 291.211 429.289 290.49 429.705 289.826C430.48 288.587 431.657 288.596 432.481 289.11C433.545 289.774 433.922 291.08 434.334 293.023L434.471 293.749L434.489 293.76L436.106 291.175L436.752 291.579L434.455 295.253L434.454 295.253Z" fill="#FF8600"/>
<path d="M438.403 288.941L437.924 288.643L437.712 287.661C437.232 285.318 436.902 284.189 436.04 283.638C435.455 283.273 434.737 283.219 434.2 284.078C433.873 284.6 433.868 285.2 433.923 285.604L433.219 285.509C433.131 284.9 433.238 284.179 433.653 283.515C434.428 282.276 435.605 282.284 436.429 282.799C437.493 283.462 437.87 284.769 438.282 286.712L438.419 287.438L438.437 287.449L440.054 284.864L440.701 285.268L438.403 288.941L438.403 288.941Z" fill="#FF8600"/>
<path d="M297.092 352.271C296.847 353.538 295.672 354.176 284.766 356.417H232.756C234.918 351.914 240.349 340.614 250.397 335.684C270.08 326.03 298.446 345.266 297.092 352.271H297.092Z" fill="#FF470D"/>
<path d="M289.739 237.317C287.051 239.471 289.049 241.371 284.575 248.207C280.876 253.859 278.237 254.505 276.541 258.812C274.421 264.197 276.051 269.531 276.541 271.136C280.551 284.26 297.726 289.081 303.224 290.624C309.22 292.308 321.73 295.819 334.785 289.478C344.408 284.804 349.169 277.281 351.426 273.715C354.165 269.387 359.704 260.634 356.59 255.946C354.774 253.212 351.44 254.001 339.949 250.787C338.825 250.472 335.948 249.526 330.194 247.634C303.299 238.79 294.786 233.273 289.739 237.317H289.739Z" fill="white"/>
<path d="M318.623 293.56C312.07 293.56 306.538 292.007 303.106 291.043C297.442 289.453 280.204 284.615 276.124 271.262C274.689 266.562 274.692 262.32 276.136 258.653C277.09 256.23 278.308 254.953 279.851 253.336C281.114 252.012 282.546 250.512 284.21 247.969C286.552 244.392 287.087 242.199 287.478 240.599C287.836 239.135 288.094 238.077 289.466 236.977C293.24 233.953 298.5 235.875 311.211 240.52C316.255 242.363 322.533 244.657 330.33 247.221L330.365 247.233C336.083 249.113 338.954 250.057 340.066 250.368C344.434 251.59 347.647 252.237 349.993 252.709C353.932 253.502 355.73 253.864 356.952 255.705C360.222 260.628 354.529 269.624 351.793 273.947C349.494 277.581 344.709 285.141 334.975 289.869C329.25 292.65 323.637 293.56 318.623 293.56H318.623ZM290.011 237.656C288.87 238.57 288.665 239.411 288.324 240.805C287.918 242.467 287.363 244.743 284.939 248.445C283.231 251.055 281.77 252.586 280.481 253.936C279.004 255.484 277.837 256.707 276.946 258.971C275.576 262.451 275.58 266.501 276.957 271.008C280.898 283.906 297.791 288.648 303.342 290.206C309.296 291.878 321.687 295.356 334.593 289.087C344.105 284.466 348.8 277.048 351.057 273.483C353.695 269.314 359.184 260.64 356.226 256.186C355.203 254.646 353.628 254.328 349.821 253.562C347.462 253.087 344.23 252.436 339.831 251.206C338.7 250.889 335.823 249.943 330.092 248.059L330.057 248.047C322.247 245.479 315.962 243.182 310.912 241.337C298.528 236.812 293.402 234.939 290.011 237.656L290.011 237.656Z" fill="#E81400"/>
<path d="M302.077 242.475C301.555 242.59 289.535 245.037 283.14 237.317C282.473 236.511 279.012 232.325 279.984 227.286C281.026 221.887 286.627 218.393 291.174 217.541C296.639 216.517 298.3 219.74 303.511 218.401C308.489 217.122 308.317 213.836 312.979 212.096C318.782 209.929 324.852 212.854 332.202 216.395C339.034 219.686 343.49 223.491 346.548 226.139C350.881 229.891 355.097 233.609 358.598 239.896C360.052 242.506 362.25 246.546 362.902 252.22C363.303 255.711 362.944 258.305 362.328 262.537C361.178 270.439 360.749 274.41 358.885 276.868C355.375 281.494 352.287 278.87 344.826 284.893C341.081 287.916 339.647 290.363 335.645 291.198C335.178 291.295 330.48 292.225 329.046 290.051C327.694 288.001 329.988 284.314 331.055 282.6C332.572 280.161 333.461 280.051 336.219 276.295C338.185 273.617 337.751 273.649 338.801 272.569C341.585 269.707 343.889 270.247 346.261 267.983C347.127 267.157 349.403 264.944 349.13 261.965C348.941 259.897 347.529 257.533 345.113 256.806C342.425 255.997 339.584 257.543 338.514 259.385C337.704 260.781 338.171 261.899 337.08 263.111C336.48 263.777 335.091 264.833 333.924 264.544C331.031 263.827 333.135 255.741 328.186 251.36C327.628 250.867 326.188 250.171 323.308 248.781C322.364 248.325 319.304 246.871 314.988 245.342C312.894 244.6 311.505 244.107 309.536 243.622C306.519 242.878 303.932 242.593 302.077 242.475Z" fill="#FF470D"/>
<path d="M286.642 274.888C287.441 274.082 288.406 273.415 289.481 272.982C289.745 272.862 290.024 272.78 290.3 272.69C290.582 272.619 290.862 272.539 291.151 272.495C291.436 272.433 291.729 272.419 292.02 272.39C292.312 272.382 292.605 272.369 292.897 272.392C294.066 272.461 295.226 272.839 296.191 273.498C297.157 274.155 297.925 275.067 298.423 276.087C297.74 275.181 296.921 274.399 295.973 273.842C295.853 273.776 295.735 273.705 295.611 273.648C295.49 273.584 295.367 273.525 295.241 273.472C295.118 273.412 294.987 273.371 294.86 273.323C294.732 273.275 294.605 273.227 294.471 273.195C293.952 273.029 293.409 272.944 292.865 272.913C292.593 272.887 292.32 272.896 292.046 272.899C291.773 272.921 291.499 272.935 291.228 272.981C290.955 273.011 290.687 273.076 290.418 273.131L290.019 273.241C289.884 273.273 289.753 273.317 289.622 273.362C288.568 273.707 287.58 274.248 286.642 274.888V274.888Z" fill="#E81400"/>
<path d="M281.992 275.435C270.647 271.103 267.454 271.738 257.318 266.55C253.942 264.822 252.942 264.058 244.12 259.385C240.199 257.308 236.724 255.612 229.774 252.22C220.98 247.928 219.397 247.312 216.863 247.348C215.413 247.368 208.404 247.468 205.674 252.793C204.133 255.798 205.298 258.903 207.645 264.967C210.603 272.61 214.735 278.303 219.158 284.319C221.116 286.982 222.095 288.313 222.888 289.192C234.521 302.063 250.613 298.434 254.162 307.534C255.512 310.996 254.497 314.89 253.875 317.279C252.835 321.269 251.362 322.024 248.137 328.743C245.928 333.343 244.824 335.644 244.407 338.774C244.235 340.062 243.503 345.551 246.128 350.524C247.986 354.044 251.293 356.867 260.474 360.269C271.55 364.372 280.826 365.483 285.435 366.001C312.116 368.998 308.568 365.804 319.004 368.58C320.439 368.962 323.434 369.822 325.603 368.294C328.014 366.595 326.624 363.06 327.611 356.257C328.851 347.712 332.273 345.944 331.915 338.774C331.721 334.904 329.87 332.217 330.48 331.895C331.126 331.555 332.785 334.66 336.792 338.774C339.533 341.587 340.266 341.684 346.834 347.372C350.197 350.284 350.768 350.92 351.999 351.958C358.203 357.191 367.6 359.053 386.141 362.562C388.708 363.048 391.009 363.45 393.314 362.275C397.516 360.133 401.129 354.149 399.052 349.091C397.887 346.256 395.278 344.807 394.174 344.219C373.805 333.379 367.37 330.156 361.467 326.163C359.776 325.02 354.888 320.816 345.113 312.407C335.014 303.72 334.725 303.112 331.341 300.656C324.885 295.971 322.013 295.336 308.101 288.618C288.399 279.105 291.209 278.954 281.992 275.435H281.992Z" fill="#FF8600"/>
<path d="M322.52 369.599C321.134 369.599 319.83 369.251 319.013 369.033L318.892 369.001C313.959 367.689 312.234 367.726 308.797 367.798C305.028 367.879 299.333 368 285.387 366.433C281.295 365.973 271.715 364.897 260.323 360.676C250.699 357.111 247.534 354.12 245.743 350.727C244.516 348.402 243.214 344.431 243.975 338.717C244.402 335.517 245.519 333.19 247.744 328.554C249.149 325.628 250.216 323.838 251.074 322.4C252.161 320.577 252.88 319.372 253.454 317.169C254.053 314.87 255.055 311.023 253.756 307.692C252.123 303.505 247.69 302.132 242.077 300.394C236.106 298.545 228.676 296.244 222.565 289.483C221.761 288.593 220.783 287.263 218.836 284.615L218.808 284.577C214.614 278.874 210.279 272.977 207.239 265.124C204.916 259.121 203.636 255.814 205.286 252.595C207.124 249.01 211.233 246.992 216.857 246.913C219.451 246.876 221.041 247.473 229.966 251.829C236.91 255.218 240.395 256.919 244.324 259.001C249.271 261.621 251.766 263.017 253.588 264.036C255.011 264.832 256.039 265.407 257.517 266.163C263.494 269.222 267.113 270.264 271.304 271.471C274.217 272.31 277.519 273.261 282.148 275.028C286.784 276.798 288.396 277.721 291.323 279.396C294.159 281.019 298.444 283.472 308.291 288.227C312.321 290.173 315.445 291.618 317.956 292.779C324.151 295.644 326.979 296.952 331.598 300.304C333.652 301.794 334.544 302.582 337.192 304.922C338.96 306.483 341.381 308.622 345.397 312.077L345.412 312.09C355.154 320.469 360.043 324.675 361.711 325.803C366.541 329.069 371.86 331.889 384.713 338.703C387.541 340.202 390.738 341.897 394.38 343.835C395.325 344.338 398.2 345.868 399.456 348.926C401.598 354.143 398.043 360.353 393.513 362.662C391.028 363.929 388.503 363.451 386.061 362.989C368.055 359.581 358.137 357.704 351.718 352.29C351.19 351.844 350.788 351.478 350.232 350.97C349.494 350.296 348.482 349.373 346.55 347.7C343.612 345.156 341.837 343.727 340.54 342.684C338.91 341.371 338.011 340.648 336.481 339.077C334.579 337.124 333.212 335.41 332.214 334.158C331.717 333.536 331.209 332.898 330.869 332.554C330.943 332.813 331.06 333.148 331.169 333.459C331.595 334.681 332.239 336.528 332.35 338.752C332.551 342.775 331.594 345.13 330.486 347.857C329.6 350.036 328.596 352.506 328.043 356.319C327.674 358.861 327.64 360.962 327.613 362.65C327.566 365.549 327.536 367.465 325.854 368.649C324.833 369.369 323.649 369.6 322.521 369.6L322.52 369.599ZM310.756 366.9C313.109 366.9 315.119 367.097 319.116 368.16L319.238 368.193C320.696 368.582 323.41 369.307 325.352 367.938C326.672 367.008 326.698 365.363 326.742 362.636C326.769 360.923 326.804 358.791 327.181 356.194C327.749 352.276 328.774 349.754 329.679 347.529C330.748 344.898 331.672 342.626 331.48 338.795C331.375 336.696 330.756 334.92 330.346 333.745C329.943 332.59 329.677 331.827 330.277 331.511C330.937 331.163 331.511 331.88 332.895 333.616C333.881 334.854 335.232 336.548 337.105 338.47C338.598 340.004 339.482 340.715 341.086 342.006C342.388 343.054 344.17 344.489 347.12 347.043C349.06 348.723 350.077 349.651 350.819 350.328C351.368 350.829 351.764 351.19 352.28 351.625C358.271 356.679 367.015 358.499 386.223 362.134C388.627 362.589 390.897 363.019 393.117 361.888C397.301 359.754 400.557 353.899 398.65 349.257C397.513 346.488 394.847 345.069 393.97 344.603C390.329 342.665 387.132 340.97 384.305 339.471C371.423 332.642 366.091 329.815 361.223 326.523C359.513 325.367 354.611 321.15 344.844 312.749L344.829 312.736C340.808 309.277 338.385 307.136 336.615 305.573C333.99 303.255 333.106 302.473 331.085 301.007C326.535 297.706 323.732 296.409 317.59 293.568C315.076 292.405 311.948 290.959 307.912 289.01C298.037 284.242 293.736 281.78 290.89 280.151C288.001 278.497 286.409 277.587 281.837 275.841C277.242 274.086 273.959 273.141 271.063 272.307C266.829 271.088 263.172 270.035 257.12 266.937C255.628 266.174 254.594 265.595 253.163 264.795C251.345 263.778 248.854 262.385 243.916 259.769C240 257.694 236.519 255.996 229.584 252.611C220.823 248.335 219.278 247.753 216.87 247.783C211.584 247.858 207.745 249.707 206.062 252.991C204.649 255.747 205.651 258.606 208.052 264.811C211.049 272.556 215.35 278.405 219.51 284.062L219.538 284.1C221.468 286.725 222.437 288.043 223.212 288.9C229.162 295.484 236.16 297.651 242.335 299.563C247.941 301.299 252.783 302.798 254.568 307.376C255.969 310.969 254.922 314.988 254.297 317.388C253.692 319.711 252.948 320.958 251.822 322.845C250.974 324.268 249.918 326.039 248.53 328.931C246.344 333.484 245.247 335.769 244.839 338.831C244.107 344.319 245.346 348.109 246.514 350.322C248.212 353.538 251.261 356.392 260.626 359.861C271.918 364.045 281.425 365.113 285.484 365.569C299.373 367.129 305.033 367.009 308.778 366.929C309.49 366.914 310.135 366.9 310.756 366.9L310.756 366.9Z" fill="white"/>
<path d="M247.693 301.921C248.694 302.018 249.672 302.181 250.645 302.358C251.617 302.537 252.583 302.737 253.544 302.945L256.42 303.58C256.899 303.684 257.378 303.785 257.86 303.875C258.342 303.965 258.822 304.041 259.325 304.044C258.853 304.233 258.332 304.274 257.83 304.301C257.324 304.319 256.82 304.296 256.319 304.256C255.319 304.171 254.333 304.006 253.359 303.795C252.386 303.583 251.425 303.324 250.478 303.019C249.532 302.71 248.596 302.364 247.692 301.921H247.693Z" fill="white"/>
<path d="M195.774 238.485C202.406 232.253 206.357 231.783 208.745 232.525C211.688 233.439 213.784 236.668 215.231 235.894C216.51 235.21 215.459 232.371 217.306 230.97C218.284 230.228 219.868 230.045 220.679 230.711C221.713 231.561 221.132 233.502 220.679 236.671C219.876 242.29 220.785 242.853 220.16 244.964C218.621 250.16 210.412 256.386 203.038 253.256C197.865 251.061 194.661 244.924 195.774 238.485L195.774 238.485Z" fill="white"/>
<path d="M207.206 254.527C205.701 254.527 204.236 254.238 202.868 253.657C197.384 251.33 194.22 244.919 195.345 238.411L195.37 238.268L195.476 238.169C200.9 233.071 205.408 231.032 208.874 232.11C210.3 232.553 211.494 233.477 212.548 234.292C213.591 235.099 214.491 235.796 215.025 235.511C215.413 235.303 215.496 234.648 215.592 233.889C215.727 232.822 215.896 231.494 217.043 230.624C218.101 229.821 219.926 229.529 220.955 230.376C221.991 231.227 221.741 232.771 221.362 235.107C221.279 235.62 221.193 236.151 221.11 236.733C220.675 239.774 220.748 241.305 220.802 242.423C220.847 243.376 220.88 244.064 220.577 245.087C219.654 248.203 216.559 251.463 212.875 253.198C210.999 254.082 209.072 254.527 207.206 254.527H207.206ZM196.179 238.702C195.193 244.766 198.132 250.703 203.208 252.856C206.84 254.397 210.267 253.465 212.504 252.412C215.977 250.775 218.886 247.733 219.742 244.841C220.004 243.958 219.975 243.364 219.932 242.465C219.877 241.312 219.801 239.733 220.248 236.61C220.332 236.02 220.423 235.461 220.503 234.968C220.833 232.928 221.052 231.581 220.402 231.047C219.78 230.535 218.43 230.664 217.57 231.317C216.714 231.965 216.583 232.999 216.456 233.998C216.335 234.954 216.22 235.858 215.436 236.277C214.405 236.829 213.297 235.972 212.015 234.98C211.019 234.21 209.891 233.337 208.616 232.94C205.493 231.97 201.309 233.908 196.179 238.702L196.179 238.702Z" fill="#E81400"/>
<path d="M396.62 343.944C397.023 343.61 401.492 339.963 403.099 341.163C404.004 341.839 404.039 344.081 403.099 345.05C402.618 345.545 401.93 345.62 401.946 345.683C401.967 345.771 403.946 344.798 405.924 344.992C407.711 345.168 409.603 346.306 410.593 347.987C412.596 351.386 410.003 355.461 409.556 356.165C407.168 359.918 403.075 360.72 402.465 360.829C397.894 361.649 391.776 359.588 390.473 355.128C389.04 350.219 394.421 345.765 396.62 343.944Z" fill="white"/>
<path d="M400.429 361.439C396.035 361.439 391.214 359.217 390.055 355.25C388.541 350.066 394.008 345.542 396.342 343.61C397.539 342.619 401.585 339.489 403.36 340.815C403.836 341.171 404.147 341.853 404.213 342.688C404.261 343.286 404.181 344.047 403.868 344.692C404.506 344.565 405.235 344.488 405.966 344.56C407.974 344.757 409.937 346.016 410.969 347.767C412.898 351.042 410.88 354.894 409.923 356.398C407.567 360.101 403.678 361.054 402.542 361.258C401.861 361.38 401.151 361.44 400.429 361.44L400.429 361.439ZM396.898 344.279C394.695 346.102 389.537 350.371 390.892 355.006C392.111 359.182 397.928 361.201 402.388 360.401C403.134 360.267 406.967 359.423 409.188 355.931C410.059 354.562 411.904 351.069 410.218 348.208C409.337 346.712 407.594 345.594 405.881 345.425C404.489 345.289 403.049 345.786 402.434 345.999C402.068 346.125 401.931 346.172 401.741 346.069L401.572 345.978L401.523 345.788C401.422 345.377 401.836 345.24 401.972 345.195C402.181 345.126 402.53 345.011 402.786 344.747C403.189 344.333 403.408 343.551 403.345 342.757C403.3 342.189 403.106 341.711 402.838 341.511C401.836 340.763 398.737 342.757 396.898 344.28L396.898 344.279Z" fill="#E81400"/>
<path d="M102.524 33.8916C101.08 33.8916 99.9053 32.7184 99.9053 31.2761C99.9053 29.8339 101.08 28.6606 102.524 28.6606C103.967 28.6606 105.142 29.8339 105.142 31.2761C105.142 32.7184 103.967 33.8916 102.524 33.8916ZM102.524 29.3565C101.464 29.3565 100.602 30.2177 100.602 31.2761C100.602 32.3346 101.464 33.1957 102.524 33.1957C103.583 33.1957 104.445 32.3346 104.445 31.2761C104.445 30.2177 103.583 29.3565 102.524 29.3565Z" fill="#FF470D"/>
<path d="M379.741 228.463C378.297 228.463 377.123 227.289 377.123 225.847C377.123 224.405 378.297 223.232 379.741 223.232C381.185 223.232 382.359 224.405 382.359 225.847C382.359 227.289 381.185 228.463 379.741 228.463ZM379.741 223.928C378.681 223.928 377.819 224.789 377.819 225.847C377.819 226.906 378.681 227.767 379.741 227.767C380.801 227.767 381.663 226.906 381.663 225.847C381.663 224.789 380.801 223.928 379.741 223.928Z" fill="#FF470D"/>
<path d="M89.3253 302.48C89.6771 300.005 90.2527 300.005 90.6045 302.48C90.9563 304.955 93.2712 307.267 95.7488 307.619C98.2264 307.97 98.2264 308.545 95.7488 308.896C93.2712 309.248 90.9563 311.56 90.6045 314.035C90.2527 316.51 89.6771 316.51 89.3253 314.035C88.9735 311.56 86.6586 309.248 84.181 308.896C81.7034 308.545 81.7034 307.97 84.181 307.619C86.6586 307.267 88.9735 304.955 89.3253 302.48Z" fill="#FF3E06"/>
<path d="M441.656 25.3735C442.008 22.8986 442.583 22.8986 442.935 25.3735C443.287 27.8485 445.602 30.1609 448.079 30.5123C450.557 30.8637 450.557 31.4387 448.079 31.7901C445.602 32.1416 443.287 34.454 442.935 36.9289C442.583 39.4038 442.008 39.4038 441.656 36.9289C441.304 34.454 438.989 32.1416 436.512 31.7901C434.034 31.4387 434.034 30.8637 436.512 30.5123C438.989 30.1609 441.304 27.8485 441.656 25.3735Z" fill="#FF3E06"/>
</g>
<defs>
<clipPath id="clip0_905_2214">
<rect width="540" height="451" fill="white"/>
</clipPath>
</defs>
</svg>
