<svg width="91" height="82" viewBox="0 0 91 82" fill="none" xmlns="http://www.w3.org/2000/svg">
<path fill-rule="evenodd" clip-rule="evenodd" d="M89.678 42.3703C89.6457 42.4601 89.5651 42.6855 89.4629 42.9691C89.553 43.0127 89.6506 43.0592 89.7866 43.1245C89.8554 43.3751 90.2366 43.6402 90.0049 43.9792C89.7962 44.2841 90.3474 44.6064 89.9261 44.8537C89.9978 45.4933 89.5474 45.9547 89.2506 46.4016C88.9816 46.8069 88.9159 47.313 88.5088 47.6651C88.155 47.9714 87.9559 48.4573 87.6875 48.8655C87.454 48.8761 87.2371 48.8854 86.9365 48.8989C86.9908 49.0721 87.0313 49.202 87.0955 49.4068C87.0146 49.4976 86.8818 49.6477 86.7377 49.8103C86.8268 50.0836 86.9102 50.3406 87.0086 50.6423C86.8687 50.8016 86.7299 50.9599 86.5784 51.1328C86.6976 51.1754 86.8094 51.2151 86.9997 51.2829C86.7821 51.4373 86.6032 51.5644 86.4151 51.6978C86.4517 51.7408 86.5085 51.8071 86.5976 51.9111C85.9569 52.1496 85.3862 51.5754 84.6795 51.8529C84.243 52.1677 83.9189 52.8102 83.2705 53.0476C83.0202 53.1395 83.2343 53.5981 82.8055 53.5441C82.6529 53.525 82.7658 54.0162 82.408 53.9207C82.2745 54.3658 81.8774 54.5447 81.564 54.8251C81.3038 55.0572 81.0664 55.36 80.857 55.6627C80.6823 55.9147 80.496 56.1589 80.3111 56.4038C80.1439 56.6256 79.9476 56.8297 79.8099 57.0682C79.6928 57.2716 79.7027 57.6191 79.5444 57.711C79.3315 57.8345 79.186 57.968 79.1405 58.2551C78.9311 58.1302 78.8033 58.0542 78.6749 57.9775C78.2749 58.1731 77.8741 58.3591 77.4759 57.87V56.8538C76.7103 56.4226 75.91 56.046 75.5515 55.071C75.5795 54.7495 75.4234 54.2938 75.7329 53.9175C75.2835 53.0203 75.6736 52.2607 76.1062 51.5125C76.6269 50.6121 77.3102 49.8433 78.1112 49.1352C77.6402 48.4286 77.148 47.7702 76.7465 47.0607C76.4704 46.5727 76.1652 46.0403 76.1499 45.482C76.1343 44.9034 75.9522 44.2997 76.2972 43.713C76.4512 43.4504 76.3032 43.0699 76.4761 42.7238C76.5797 42.5158 76.644 42.2848 76.8037 42.0853C76.8899 41.9778 76.886 41.7978 76.957 41.5125C77.1164 41.3645 77.516 41.165 77.5994 40.8754C77.7201 40.4544 78.2589 40.6148 78.2511 40.1226C78.3902 40.228 78.452 40.2748 78.5481 40.3476C78.771 40.2816 79.023 40.207 79.286 40.1297C79.3819 40.3114 79.4624 40.4636 79.56 40.6489C79.3673 40.9978 79.1569 41.379 78.9148 41.817C79.3932 41.7698 79.7627 41.7329 80.0782 41.7016C80.2071 41.8305 80.2756 41.8986 80.3515 41.9746C80.2223 42.228 80.0921 42.4842 79.9203 42.8225C80.2238 42.8537 80.4594 42.8779 80.7515 42.9077C80.6795 43.2498 80.6078 43.593 80.5372 43.9306C80.4136 44.0406 80.2802 44.1599 80.1428 44.2827C80.2298 44.3696 80.2656 44.4161 80.2735 44.4115C80.3998 44.3416 80.523 44.2653 80.6731 44.1744C80.7239 44.31 80.7554 44.3934 80.7963 44.5013C80.5223 44.6401 80.2617 44.7721 79.9647 44.9222C80.1024 44.9684 80.2117 45.0049 80.414 45.0724C80.1833 45.3034 79.9785 45.5086 79.7116 45.7766C80.052 46.0452 80.3537 46.2837 80.677 46.5393C81.1533 46.6298 81.5359 46.4289 81.9104 46.1052C82.7768 45.3574 83.729 44.7047 84.5826 43.9529C85.4565 43.1831 86.386 42.4289 87.0082 41.3975C87.1537 41.1561 87.4093 40.9815 87.629 40.7621H88.6476C88.7033 40.8328 88.7992 40.9545 88.8985 41.0794C88.7871 41.3971 88.6728 41.7243 88.5237 42.1496C88.8325 42.0647 89.0831 41.9959 89.4093 41.9061C89.4608 41.9948 89.5406 42.1329 89.678 42.3703Z" fill="black"/>
<path fill-rule="evenodd" clip-rule="evenodd" d="M28.2513 62.7562C27.9372 62.8534 27.6792 62.9336 27.3455 63.0369C27.4268 62.8626 27.4804 62.7476 27.5482 62.6018C27.326 62.2671 27.0747 61.9675 26.6151 62.0339C26.5796 61.8983 26.5569 61.811 26.5249 61.6896H25.7253C25.6454 61.6097 25.5762 61.5718 25.5581 61.5171C25.4357 61.148 25.4097 60.7093 25.1876 60.4197C24.9015 60.0474 25.0438 59.6821 25.0307 59.3215C25.0197 59.0287 25.1379 58.7288 25.2099 58.4349C25.4683 57.3843 25.868 56.3852 26.3769 55.4351C26.6903 54.8509 27.0414 54.2819 27.4261 53.7421C27.802 53.2146 28.2424 52.733 28.6673 52.2152C28.5519 52.1413 28.4256 52.0554 28.2942 51.9777C27.0247 51.2267 25.9127 50.2812 24.8816 49.2327C24.395 48.7379 24.3922 48.0739 24.2502 47.4627C24.1931 47.2181 24.241 46.9487 24.241 46.6907C24.5011 46.1945 25.0254 46.1526 25.534 45.9503C25.7054 46.252 25.8814 46.5622 26.0802 46.9111C26.115 46.8856 26.1753 46.8412 26.2836 46.7613C26.35 46.8274 26.4667 46.8909 26.4994 46.9842C26.7017 47.5596 27.1716 47.8524 27.671 48.1016C28.6872 48.6095 29.7125 49.0975 30.8036 49.6274C31.0588 49.3576 31.314 48.9438 31.6845 48.7369C32.026 48.5459 32.0437 47.9997 32.5761 48.0522C32.5001 47.9589 32.4473 47.8939 32.3685 47.7974C32.5317 47.6831 32.6971 47.5674 32.9275 47.4063C33.0002 47.2458 33.1113 47.0013 33.2199 46.7617C33.3846 46.7521 33.5376 46.7432 33.758 46.7305C33.6643 46.6098 33.6153 46.547 33.5394 46.449C33.9504 46.389 33.9777 45.9635 34.2364 45.7349C34.5097 45.4932 34.7032 45.1613 34.9623 44.8291C35.0198 44.8714 35.0798 44.9154 35.194 44.9995C35.2444 44.8809 35.2916 44.7691 35.3509 44.6289C35.4208 44.6854 35.4854 44.7372 35.6018 44.8316C35.7286 44.1519 36.114 43.6068 36.5236 43.1166C36.9456 42.6112 37.325 42.0309 38.0157 41.6926C38.1023 41.764 38.2184 41.8594 38.3497 41.9673C38.0768 42.4916 37.8123 43.0112 37.253 43.2848V44.0589C37.3854 44.0266 37.5199 44.0327 37.5479 43.9808C37.6601 43.7718 37.7392 43.545 37.7836 43.4382C38.2436 43.0591 38.6194 42.7496 39.0936 42.3592C39.1206 42.7209 39.1376 42.9569 39.1547 43.1833C39.0102 43.2426 38.9002 43.2877 38.7845 43.3352C38.8143 43.3768 38.8516 43.457 38.8714 43.4527C39.1064 43.4044 39.3389 43.3434 39.6246 43.2728C39.7055 43.4154 39.8042 43.589 39.9036 43.7636C39.8503 43.8229 39.7868 43.8932 39.7183 43.9691C39.7588 44.2495 40.0959 44.4969 39.8351 44.8181C39.7591 44.7496 39.6917 44.6886 39.6228 44.6257C39.5909 44.6857 39.5288 44.7493 39.5415 44.7894C39.577 44.9029 39.6434 45.0069 39.7179 45.1539C39.6647 45.6455 39.2718 45.972 38.9073 46.3038C38.5623 46.618 38.1829 46.8937 37.7392 47.2497C37.9217 47.3544 38.0803 47.446 38.2588 47.5489C38.1474 47.763 38.08 47.8921 38.009 48.0277C38.0501 48.0735 38.1119 48.141 38.2077 48.2467C37.9973 48.2804 37.8198 48.3092 37.5653 48.3507C37.6345 48.5271 37.6938 48.6772 37.7623 48.8515H37.1177C36.9981 49.0968 36.8938 49.3108 36.7944 49.5145C36.8867 49.6139 36.9513 49.6835 37.0443 49.7836C36.8466 49.8201 36.6695 49.8531 36.4118 49.9014C36.4743 50.0661 36.5314 50.2144 36.5985 50.3908C36.4331 50.4153 36.2549 50.4416 36.0228 50.4757C36.0909 50.6595 36.1463 50.8086 36.2379 51.0556C35.9859 50.9577 35.8024 50.8863 35.5809 50.8004C35.4766 50.9992 35.3701 51.2022 35.2664 51.3995C35.3034 51.4698 35.3179 51.5468 35.3616 51.5706C35.4386 51.6125 35.5426 51.6047 35.6189 51.6473C35.9152 51.8127 35.9845 52.196 36.2759 52.3603C36.59 52.5378 36.7266 52.8423 36.9268 53.1135C37.1071 53.3577 37.2409 53.5635 37.2207 53.8727C37.2136 53.9784 37.308 54.0906 37.3665 54.223C37.3154 54.3099 37.2423 54.4338 37.1426 54.6035C36.881 54.6336 36.6908 54.984 36.2134 54.799C35.3797 54.4757 34.5119 54.1861 33.6064 54.0771C33.556 54.0711 33.5145 53.9909 33.4322 53.9085C33.1674 54.207 32.9044 54.5034 32.5743 54.8757C32.5701 54.9108 32.5523 55.0631 32.5328 55.2274C32.3475 55.2565 32.1701 55.2846 31.8943 55.3279C32.0764 55.5834 32.2123 55.7744 32.415 56.059C32.186 55.992 32.0334 55.9476 31.8396 55.8908C31.7995 55.9384 31.7182 56.0345 31.6299 56.1389C31.742 56.4487 31.6519 56.6383 31.2888 56.8445C31.1802 57.2349 31.0758 57.6101 30.9889 57.9231C30.8249 57.9834 30.7333 58.0172 30.6151 58.0608L30.827 58.2727C30.5377 58.4942 30.2059 58.6734 29.9816 58.9425C29.7789 59.1849 29.6944 59.5256 29.5368 59.8692C29.5521 59.8926 29.6156 59.9877 29.7164 60.1386C29.5031 60.3583 29.2937 60.5741 29.0921 60.7813C29.1706 60.8793 29.2284 60.9514 29.3285 61.0763C29.1862 61.2388 29.0463 61.3986 28.8905 61.5764V62.1407C28.6619 62.3608 28.4302 62.584 28.2513 62.7562Z" fill="black"/>
<path fill-rule="evenodd" clip-rule="evenodd" d="M52.0553 66.6135C52.5025 67.1544 52.5028 67.1554 53.0455 66.8555C53.0608 67.0287 53.0554 67.1796 53.0927 67.3187C53.1193 67.4174 53.2031 67.5008 53.257 67.5846C53.1882 67.6538 53.1424 67.6992 53.0842 67.7574C53.2194 67.8206 53.3486 67.8813 53.5601 67.9803C53.3401 68.2937 53.1325 68.589 52.9252 68.8847C53.1924 69.3652 52.627 69.4504 52.5458 69.7077C52.4205 70.1052 51.9371 70.1908 51.9232 70.6156C51.9072 71.1111 51.399 71.1722 51.1782 71.4607C50.9866 71.7117 50.6458 71.8756 50.6018 72.1958C50.6781 72.3264 50.7385 72.4297 50.8375 72.5997C50.5511 72.7615 50.3016 72.9031 50.0513 73.0448L49.4476 73.3301C49.2641 73.5466 49.0806 73.7631 48.8353 74.052V74.2419C48.2174 74.6959 47.6403 75.1207 46.9702 75.6134C47.1619 75.711 47.2779 75.7702 47.4703 75.8686C47.2041 76.2409 46.9347 76.6178 46.6451 77.0228C47.3887 77.2762 48.0882 77.5151 48.8098 77.7614C48.7385 77.9048 48.6781 78.0258 48.5965 78.1898C48.918 78.3044 49.2187 78.4116 49.5619 78.5341V78.955C49.7777 79.1534 49.9669 79.327 50.1628 79.5073C50.1748 79.7348 50.1858 79.952 50.1968 80.1596L50.5479 80.5103L49.6574 81.2514C49.4476 81.4849 49.229 81.4416 48.994 81.2858C48.9227 81.2386 48.8226 81.2116 48.736 81.2134C47.7365 81.2354 46.8332 80.8549 45.9239 80.5224C45.2531 80.2775 44.6075 79.9641 43.9118 79.6645C43.7219 79.8537 43.4263 79.9971 43.3883 80.3875C42.9865 80.4826 42.5744 80.5806 42.189 80.6718C41.9902 80.4706 41.8316 80.3101 41.6726 80.149C41.7329 80.0823 41.7954 80.0134 41.8876 79.9115C41.7918 79.7121 41.6885 79.4973 41.6268 79.3696C41.3276 79.4157 41.0628 79.4569 40.8044 79.4966C40.6614 79.2141 40.5329 78.9589 40.4012 78.698C40.337 78.7623 40.2915 78.8077 40.2748 78.8244C40.0608 78.6068 39.845 78.3878 39.5469 78.0854C39.6395 77.4139 39.2097 76.6427 39.3251 75.8089C39.3496 75.6343 39.2157 75.3816 39.0748 75.2496C38.5038 74.7136 38.4793 73.9392 38.2109 73.2801C38.1084 73.0284 37.9991 72.709 37.9902 72.4048C37.9753 71.9218 37.9188 71.4256 38.0015 70.9564C38.1322 70.2142 38.2727 69.4227 39.137 69.1306C39.4227 69.0341 39.7371 69.0234 40.1137 68.961V70.4705C40.4413 70.2596 40.6607 70.1184 40.9879 69.9076C41.0333 70.041 41.088 70.2 41.1419 70.359C41.1906 70.3221 41.2392 70.2852 41.2878 70.2483V71.1388C41.4543 71.0543 41.5746 70.9933 41.6882 70.9354C42.0988 71.2946 42.0882 71.7546 42.0314 72.2277C42.1687 72.2763 42.2805 72.3157 42.4598 72.3793C42.3835 72.5865 42.3072 72.7924 42.2149 73.0412C42.3267 73.021 42.3828 73.027 42.414 73.0018C42.4892 72.9422 42.5411 72.8357 42.6234 72.8045C43.45 72.4904 43.866 71.6116 44.6958 71.306C44.8626 70.7051 45.4962 70.5769 45.8664 70.172C46.2515 69.751 46.7949 69.477 47.2595 69.126C47.7092 68.786 47.9626 68.2131 48.5493 68.0332C48.9347 67.3315 49.4895 66.7998 50.1798 66.403C50.1557 65.9278 50.8095 65.8688 50.7942 65.3677H51.667C51.7294 65.4298 51.8206 65.521 51.9119 65.6122C51.4941 65.8202 51.3415 66.2238 51.0742 66.6504C51.6524 66.77 51.9853 66.0662 52.5301 66.3909C52.3726 66.4648 52.2437 66.5251 52.0553 66.6135Z" fill="black"/>
<path fill-rule="evenodd" clip-rule="evenodd" d="M49.8107 56.3824C49.7656 55.9298 50.4024 55.8801 50.1007 55.4585C50.0236 55.5273 49.9551 55.588 49.8866 55.6487C49.8639 55.6257 49.8245 55.6054 49.8206 55.5799C49.7489 55.1057 49.7777 54.656 50.1142 54.2695C50.4843 53.845 50.8513 53.4169 51.2063 52.9797C51.3184 52.8416 51.3876 52.6687 51.498 52.4742C51.3227 52.0175 51.0824 51.544 50.8737 51.0734C50.6497 50.5679 50.6547 50.0199 50.4112 49.5198C50.2817 49.2543 50.6196 48.7883 50.5404 48.4632C50.4513 48.0994 50.2366 47.7899 50.5504 47.4471C50.5567 46.488 51.2087 45.8903 51.7791 45.2245H53.3916C53.486 45.3139 53.5793 45.4027 53.7305 45.5457C53.4853 45.8584 53.2396 46.1711 52.9681 46.5171C52.9983 46.5817 53.0711 46.7361 53.1683 46.9431C53.2592 46.9431 53.4331 46.9952 53.4952 46.9338C53.7646 46.6694 54.0759 46.7762 54.3594 46.745C54.4641 46.9718 54.5515 47.1613 54.6487 47.3718C54.5032 47.5535 54.3531 47.7413 54.1252 48.0256C54.4698 48.0696 54.7009 48.0991 55.0047 48.1377V49.0655C55.6585 49.0868 55.7302 48.295 56.2807 48.2982C56.5305 47.9177 56.895 47.6529 57.2234 47.3495C57.6021 46.9998 57.9623 46.6293 58.3194 46.257C58.648 45.9138 58.9817 45.572 59.277 45.2014C59.5808 44.8195 59.842 44.4036 60.0177 44.1516C60.4177 44.0082 60.6431 43.9272 60.9228 43.8271C61.0143 43.9574 61.1645 44.0898 61.2028 44.2492C61.2323 44.3716 61.1347 44.5345 61.069 44.6669C60.9941 44.8174 60.8915 44.9537 60.8926 45.2185C61.1748 45.0996 61.4569 44.9803 61.7675 44.8493C61.9332 45.1723 62.1107 45.518 62.3797 46.0423C62.3797 46.0312 62.3641 46.2218 62.3851 46.4082C62.4014 46.553 62.4628 46.6928 62.5171 46.8785C62.4788 46.9452 62.4085 47.0687 62.3435 47.183C62.4411 47.2884 62.5061 47.3583 62.5639 47.4204C62.0032 48.3184 61.4985 49.248 60.8834 50.1172C60.3669 50.8469 60.4394 50.898 60.061 51.1046C60.1213 51.1717 60.1824 51.2391 60.2314 51.2934C59.4654 52.1516 58.7059 53.0031 57.935 53.8673V54.1885C58.5405 54.5744 59.1265 54.9474 59.7391 55.3375C59.6503 55.5114 59.596 55.6178 59.5123 55.7829C59.744 55.982 59.8999 56.365 60.3485 56.2237C60.4468 56.4189 60.527 56.5783 60.6058 56.7352C60.5494 56.8139 60.4791 56.9116 60.3829 57.0454C60.6257 57.2885 60.8436 57.5068 61.0793 57.7428C60.9895 57.9739 60.9132 58.1708 60.8284 58.3891C60.8905 58.4956 60.965 58.6241 61.0339 58.7423C60.9998 58.8157 60.9891 58.8917 60.9469 58.9197C60.8518 58.9818 60.7119 58.9939 60.6424 59.0727C60.226 59.5426 60.1515 59.5689 59.628 59.39C58.9501 59.1582 58.2211 59.022 57.6017 58.6837C56.7719 58.2308 56.0262 57.6239 55.169 57.0308C54.8091 57.297 54.4052 57.6622 54.0162 58.0778C53.64 58.48 53.1442 58.7987 52.4549 59.0039C52.5763 58.8033 52.626 58.7213 52.7335 58.5424C52.3016 58.623 51.9392 58.6905 51.5772 58.7579L51.5151 58.6333C51.733 58.4633 51.9505 58.2936 52.1685 58.124L51.8316 57.7872H51.1708C51.0827 57.566 50.9848 57.3183 50.8691 57.0273H50.0669C49.9566 56.7494 49.8575 56.5002 49.8107 56.3824Z" fill="black"/>
<path fill-rule="evenodd" clip-rule="evenodd" d="M54.0088 37.3893C53.6766 37.4688 53.3838 37.5391 52.9706 37.6381C52.5465 37.3247 52.0393 36.9343 51.5158 36.568C50.8915 36.1311 50.3491 35.5746 49.6365 35.2669C49.4714 35.1955 49.2982 35.1441 49.0689 35.0617C48.791 34.6454 48.7587 33.8724 47.9434 33.9575C47.5747 33.6204 47.5296 33.0347 46.9905 32.9779C46.8141 32.6773 46.7026 32.3334 46.4709 32.1187C45.4128 31.1373 44.6472 29.9586 43.9888 28.5364C43.9317 28.0973 43.9313 27.5121 43.8366 26.925C43.6875 26.0004 44.1801 25.2064 44.9809 24.6939C45.202 24.5527 45.3159 24.2421 45.6833 24.2751C45.9388 24.2982 46.2086 24.1622 46.5479 24.0788C46.6483 24.1683 46.7814 24.2865 46.9493 24.4355C46.6764 24.8938 46.1603 25.183 46.1212 25.7985C46.7285 26.0011 47.0008 25.3264 47.6119 25.2487C47.6865 25.3154 47.8189 25.4332 47.9431 25.5447C47.7266 25.8695 47.5807 26.0881 47.312 26.4909C47.7298 26.3589 48.0269 26.3568 48.1365 26.2123C48.4137 25.8467 48.862 25.7001 49.1222 25.2934C49.3646 24.9147 49.7621 24.6325 50.1685 24.3685C50.7431 23.9954 51.2088 23.4591 51.7476 23.0254C52.5394 22.388 53.2816 21.6895 54.1636 21.1596C54.5124 20.9505 54.7705 20.5864 55.0601 20.2829C55.3235 20.0068 55.7419 19.8861 55.8246 19.4744H57.1265V20.3141C57.0903 20.3503 56.9653 20.4753 56.8149 20.6261C56.9874 20.5952 57.1595 20.5707 57.3284 20.5324C57.5002 20.4934 57.6692 20.4408 57.9297 20.3695C57.8899 20.9945 57.9201 21.5479 58.3716 21.951C58.2765 22.0792 58.2221 22.1523 58.1128 22.3003C58.2505 22.3763 58.4103 22.4636 58.7073 22.6265C58.4014 22.7102 58.2974 22.7386 58.1554 22.7777C58.2094 22.9012 58.2818 23.0165 58.308 23.1418C58.3347 23.2653 58.3141 23.3984 58.3141 23.5252C57.9552 24.0178 57.5961 24.5104 57.2017 25.0513C57.1293 25.0595 56.9767 25.0762 56.7524 25.1007C56.8205 25.1944 56.8624 25.2529 56.9174 25.3289C56.8596 25.4673 56.7953 25.621 56.7233 25.7921C55.8715 25.7509 55.8654 26.6286 55.3387 26.9704C55.4502 27.117 55.5055 27.1898 55.5307 27.2231C55.1804 27.5738 54.8269 27.9273 54.4699 28.284C54.4986 28.3103 54.4528 28.2688 54.4727 28.2865C54.3137 28.4452 54.1497 28.6091 53.9857 28.7735C53.9325 28.7319 53.8796 28.6908 53.8264 28.6492V29.1589C53.7139 29.0663 53.6486 29.0123 53.502 28.892C53.5343 29.1092 53.5559 29.2537 53.5861 29.4567C53.3444 29.7697 53.0537 30.1463 52.7389 30.5545C52.5973 30.4509 52.5007 30.3795 52.4148 30.3163C52.0663 30.7238 51.7089 31.1415 51.3483 31.5632C51.487 31.6324 51.6152 31.6959 51.8019 31.7886C51.6279 32.009 51.4785 32.1985 51.3383 32.3763C51.361 32.4548 51.361 32.5272 51.3969 32.5676C51.9864 33.2285 52.6856 33.8195 53.1453 34.5599C53.6631 35.3936 54.3101 36.2543 54.0088 37.3893Z" fill="black"/>
<path fill-rule="evenodd" clip-rule="evenodd" d="M67.4396 23.3955C67.4993 23.3359 67.5451 23.2901 67.5923 23.2429C67.5575 23.1981 67.528 23.1467 67.4865 23.1087C67.2356 22.8798 66.9186 22.6835 66.7156 22.4592C66.5165 22.2398 66.2936 22.0727 66.092 21.8718C65.824 21.6045 65.5252 21.2219 65.511 20.878C65.4858 20.2625 65.4485 19.6453 65.5947 19.0004C65.8471 17.887 66.4302 17.0441 67.2025 16.2749C68.1829 15.2985 69.16 14.3189 70.1886 13.2903C69.7981 12.9542 69.7783 12.3196 69.16 12.1961C68.9002 11.691 68.6414 11.186 68.3816 10.6809C68.142 10.2149 68.185 9.71196 68.1875 9.21399C68.1896 8.85942 68.1882 8.50485 68.1882 8.15027C68.5144 7.73394 68.8405 7.31761 69.1614 6.90874H70.7738C70.5154 7.34991 70.2943 7.7272 70.0775 8.09774C70.6737 8.53076 70.8927 7.59268 71.4166 7.87875C71.7435 8.32632 71.1351 8.53714 70.9424 8.97016C71.3144 8.88107 71.5305 8.8289 71.795 8.76536C71.9518 9.22535 71.8734 9.62784 71.626 10.0601C71.758 10.1116 71.862 10.1521 72.0189 10.2128C72.1307 10.3327 71.8986 10.3501 71.8592 10.5269C72.0147 10.7647 72.2038 11.0543 72.4377 11.4124C74.0349 9.73645 76.0715 8.6131 77.3169 6.69897H78.288C78.2131 7.01841 78.1478 7.29738 78.0584 7.67893C78.3281 7.58381 78.5357 7.51069 78.8204 7.41025V8.16128C78.9759 8.20209 79.0632 8.22481 79.1505 8.24788C79.175 8.30218 79.2133 8.35507 79.22 8.4115C79.2318 8.50662 79.2073 8.60742 79.2257 8.70077C79.4227 9.70592 78.9223 10.5034 78.397 11.2566C77.8291 12.0715 77.1696 12.8229 76.5031 13.6609C76.9787 14.232 77.7393 14.5095 78.4087 15.0426C78.4211 15.1306 78.4413 15.279 78.4651 15.4497C78.6426 15.6715 78.9294 15.8863 79.0106 16.1617C79.1888 16.7654 79.6296 17.3276 79.3301 18.1071C79.257 18.1404 79.0958 18.2196 78.9308 18.2898C78.7661 18.3598 78.5982 18.4201 78.4112 18.4929C78.1549 18.2323 77.576 18.315 77.6537 17.8079C77.0628 17.6371 76.5428 17.4866 76.0388 17.3408C75.9235 17.1402 75.8188 16.9585 75.7006 16.753H74.6315C74.6046 16.6377 74.5836 16.5503 74.5581 16.4424C74.1627 16.1383 73.8305 16.4964 73.5994 16.5582C73.2835 16.9244 73.0418 17.2048 72.7746 17.514C72.6979 17.4558 72.6365 17.4089 72.53 17.3283C72.4157 17.4898 72.2926 17.6638 72.1424 17.8756C72.1226 17.8497 72.1712 17.9126 72.2432 18.0055C71.7946 18.1181 71.7556 18.5688 71.5582 18.9397C71.4031 18.8442 71.3013 18.7814 71.1451 18.6852C71.1185 18.8521 71.0926 19.0153 71.0613 19.2084C70.9946 19.2265 70.9076 19.2499 70.7522 19.2922C70.7107 19.6844 70.6549 20.1621 70.0736 20.0318C69.8783 20.2849 69.5511 20.5202 69.5735 20.7161C69.6402 21.305 69.1472 21.5864 69.0127 22.0468C68.9491 22.6285 68.958 22.6281 69.1387 23.0168C68.7174 23.3525 68.2418 23.5786 67.6955 23.7181C67.6242 23.628 67.5443 23.5279 67.4396 23.3955Z" fill="black"/>
<path fill-rule="evenodd" clip-rule="evenodd" d="M10.8319 12.4591C10.5909 12.489 10.4457 12.5071 10.2626 12.5298C10.374 12.6533 10.4375 12.7232 10.539 12.8357C10.2988 13.2826 9.84339 13.5505 9.5346 13.9413L9.6858 14.0925C9.43983 14.2856 9.19351 14.4787 8.98411 14.643C8.8684 14.9479 9.11543 15.2918 8.70833 15.4806C9.06893 15.7223 9.39866 15.9381 9.72271 16.1617C10.7389 16.8638 11.8257 17.4661 12.6633 18.4116C13.1431 18.9529 13.595 19.4761 13.6035 20.2534C13.6049 20.3843 13.738 20.5135 13.8441 20.7055C13.552 20.8904 13.2784 21.0633 12.9355 21.2802C11.0036 20.1483 9.00647 19.1396 7.17469 17.6613C7.04336 17.7362 6.75658 17.7994 6.7037 17.9467C6.49393 18.5302 6.08293 18.9398 5.66447 19.3575C5.61336 19.4086 5.63252 19.5297 5.61868 19.6191C5.43944 19.639 5.28718 19.6553 5.0547 19.6809C5.09942 19.8338 5.1374 19.9637 5.20377 20.1912C4.8311 20.5032 4.55284 20.9675 4.40625 21.5439C4.32107 21.8786 4.00021 22.1529 3.71272 22.5572V24.6605C3.52958 24.6722 3.37696 24.6818 3.20411 24.6928C3.16684 24.7975 3.12709 24.9096 3.07953 25.0442H2.41227C2.30792 24.7418 2.20108 24.4316 2.07757 24.0741C1.89194 24.1558 1.70667 24.2371 1.48591 24.334C1.44047 24.1934 1.40463 24.0834 1.36878 23.9733C1.31412 23.9506 1.25378 23.9002 1.20445 23.9095C0.794862 23.9872 0.514469 23.6408 0.464069 23.4204C0.258566 22.5231 -0.322096 21.6358 0.235496 20.6725C0.245789 19.7185 0.838163 18.9905 1.17392 18.1607C1.2836 17.8899 1.75494 17.9374 1.62717 17.4697C1.57464 17.2773 1.92389 16.9724 2.09567 16.7222C2.25148 16.4954 2.39807 16.2601 2.57731 16.0531C2.78778 15.81 3.04404 15.6063 3.25274 15.3621C3.42629 15.1584 3.5601 14.9209 3.73011 14.6711C2.55388 13.7876 1.83444 12.5326 1.00995 11.3624C0.745527 10.2302 0.288735 9.13063 0.466908 7.80498C0.739138 7.49229 1.08732 7.09193 1.46177 6.66211C1.87633 6.74729 2.34235 6.49032 2.72105 6.92227C2.47296 7.25661 2.22664 7.58847 1.97784 7.92388C2.04634 7.99628 2.10987 8.06443 2.17269 8.13115C2.69798 8.23976 2.89035 7.47525 3.43907 7.65236C3.52071 7.81065 3.60198 7.96931 3.68717 8.13399C3.51822 8.24225 3.32479 8.36647 3.12177 8.49637C3.24564 8.6206 3.33685 8.71182 3.42807 8.80303C3.70207 8.51945 3.96827 8.5159 4.29019 8.90383C4.26108 9.11998 4.42861 9.43232 4.10527 9.68396C4.23943 9.74856 4.37076 9.81174 4.55851 9.90153C4.40412 10.1092 4.26712 10.293 4.12692 10.4815C4.25754 10.528 4.36969 10.5674 4.6043 10.6508C4.3885 10.709 4.28628 10.7363 4.1074 10.7846C4.12621 10.9418 4.08859 11.1569 4.17803 11.2772C4.54858 11.7756 4.95745 12.2451 5.39579 12.7779C5.63714 12.5614 5.82241 12.4002 6.00165 12.2331C7.06075 11.2456 7.94701 10.0616 9.2606 9.3624C9.2535 8.9986 9.63433 9.02415 9.79831 8.8293C9.98394 8.60889 10.1902 8.40587 10.3232 8.26354H10.9738C10.6789 8.69762 10.1763 8.94287 10.3403 9.56826C10.7605 9.31768 11.1719 9.07242 11.673 8.77393C11.6283 9.06035 11.5935 9.28112 11.5545 9.53205C11.7298 9.62043 11.9903 9.75282 12.27 9.89408C12.198 10.0435 12.1376 10.1681 12.0674 10.314C12.1685 10.3353 12.2565 10.3534 12.3485 10.3725C12.358 10.4101 12.395 10.4744 12.3772 10.4982C12.1415 10.8162 11.826 11.0973 11.6759 11.4497C11.4878 11.892 11.0729 12.0911 10.8319 12.4591Z" fill="black"/>
<path fill-rule="evenodd" clip-rule="evenodd" d="M28.5008 22.3392C29.2721 21.393 29.9234 20.6065 30.5612 19.8089C31.1653 19.0537 31.6817 18.238 32.1512 17.4022C32.0913 17.328 32.033 17.2563 31.9333 17.1335C32.0973 16.9475 32.2595 16.7629 32.4316 16.5674H33.0694C33.3079 16.8059 33.5 17.1463 33.7729 17.2332C34.1062 17.339 34.1534 17.6055 34.2879 17.8047C34.7543 18.4943 35.0787 19.1942 34.7202 20.0929C34.4998 20.6455 34.2765 21.1985 34.0473 21.7486C33.9784 21.9144 33.928 22.0879 33.8403 22.3403L33.3516 22.8294V23.4384C32.969 24.1316 32.6506 24.7094 32.3021 25.3412C32.7837 25.6684 33.2274 25.984 33.6845 26.2786C34.5903 26.8624 35.3396 27.5875 35.7871 28.5838C35.8833 28.7982 35.9273 29.0363 36.0274 29.371C35.993 29.4473 35.9089 29.6351 35.8159 29.841C35.6164 29.934 35.401 30.0344 35.2327 30.1125C34.7777 29.9552 34.3752 29.8378 33.9905 29.6777C33.6054 29.518 33.238 29.3157 32.8629 29.1322C32.799 28.5717 32.1601 28.7982 31.8971 28.417C31.6813 28.1039 31.2015 27.9737 30.7805 27.7284C29.5191 29.0154 28.4082 30.4213 27.3888 31.902C27.3104 32.0156 27.3356 32.2005 27.3129 32.3521C26.8685 32.6942 26.4291 32.6421 25.9883 32.3311V32.0234C25.4154 31.6802 24.8784 31.3586 24.291 31.0065C24.0099 30.6772 24.1529 30.1597 23.9698 29.7593C23.7657 29.3135 23.9382 28.8819 23.8608 28.554C24.5011 27.1268 25.2589 25.8768 26.3439 24.7982V24.1394C25.7168 23.7025 25.327 23.0214 24.9324 22.3534C24.8 22.1295 24.7794 21.837 24.7187 21.5736C24.5955 21.0377 24.4113 20.5191 24.4277 19.9498C24.4592 18.8609 25.0775 18.084 26.1171 17.6932C26.7727 17.4469 27.4094 17.5708 28.1143 17.5016C27.7349 18.287 26.8259 18.2199 26.2946 18.8783C27.211 18.8379 27.7693 17.9747 28.7038 18.1394C28.6676 18.3594 28.6314 18.5798 28.5931 18.8119C28.7645 18.8723 29.0162 18.9614 29.2582 19.0473V20.2764C29.0091 20.7112 28.7354 21.1449 28.5122 21.6034C28.4401 21.7507 28.5008 21.963 28.5008 22.3392Z" fill="black"/>
<path fill-rule="evenodd" clip-rule="evenodd" d="M44.8579 10.2901C44.4955 10.7444 44.1647 11.1596 43.7988 11.6182V12.8601C43.4584 12.9967 43.1273 13.1302 42.7532 13.2803C42.3109 12.8509 42.1317 12.2812 41.9901 11.7428C41.8006 11.8134 41.633 11.8755 41.3842 11.9678C41.189 11.6871 40.9516 11.439 40.8234 11.1437C40.4401 10.2588 40.4706 9.31401 40.5125 8.42492C40.6733 8.05863 40.8167 7.73139 40.9956 7.32287C40.728 7.28276 40.4909 7.32003 40.3926 7.22065C39.7672 6.58852 39.15 5.94539 38.5767 5.26642C38.268 4.90013 37.9421 4.48593 37.819 4.03979C37.6394 3.38672 37.6351 2.68538 37.5503 1.95601C37.8449 1.54181 38.0845 1.05662 38.4586 0.722278C38.8025 0.41491 39.2916 0.2701 39.8218 0C39.9453 0.133808 40.0657 0.263356 40.1874 0.395034C40.1164 0.46318 39.1712 1.37357 39.1712 1.37357C39.2394 1.44207 39.3079 1.51057 39.4087 1.61102C39.8414 1.29549 40.2722 0.882705 40.9757 1.15493C40.8011 1.39416 40.6651 1.58014 40.4263 1.90703C40.7493 1.78103 40.9296 1.71111 41.1794 1.61386C41.2973 1.79132 41.4236 1.98192 41.5769 2.21333C41.31 2.48059 41.1003 2.69035 40.8472 2.94377C41.0105 2.97713 41.0985 2.99559 41.2447 3.02576C41.0254 3.39559 41.1493 3.90704 40.5839 4.09586C41.145 4.7862 41.7697 5.16668 42.4036 5.58762C44.5374 3.81831 46.6247 2.08733 48.7401 0.333277H49.6739C49.5103 0.66123 49.3804 0.922812 49.2487 1.18759C49.5291 1.40161 49.7509 1.16132 49.9994 1.05343C50.717 1.72317 50.886 2.55938 50.7383 3.49213C50.4402 3.87474 50.1339 4.26765 49.8212 4.66872C49.8414 4.68717 49.8879 4.73047 50.0157 4.84867C49.8436 4.87067 49.6778 4.89197 49.5117 4.91326C49.5767 4.98283 49.6416 5.05275 49.7066 5.12267H49.3463C48.683 6.37095 47.5617 7.22029 46.7408 8.35748C47.8659 8.98428 49.1248 9.45066 50.3153 10.1602C50.3515 10.339 50.3923 10.5421 50.4402 10.782C50.5864 10.6272 50.6961 10.5112 50.8019 10.3994C51.281 10.464 51.2711 11.0148 51.6732 11.2164C52.0253 11.3932 52.2308 11.8624 52.5048 12.2067V13.3559C52.4118 13.4489 52.3206 13.5401 52.1928 13.6679C51.1962 13.5614 50.3721 12.9935 49.4645 12.5343C49.446 12.5509 49.3786 12.612 49.3492 12.6386C48.7142 12.4817 48.3355 11.8003 47.6029 11.9021C47.2615 11.4631 46.7 11.429 46.262 11.1703C45.8194 10.9091 45.3906 10.6255 44.8579 10.2901Z" fill="black"/>
<path fill-rule="evenodd" clip-rule="evenodd" d="M73.0466 25.7543C73.2464 25.8671 73.4036 25.9559 73.6343 26.0861C73.5818 26.4013 73.5286 26.719 73.4636 27.1101C73.6258 27.3919 73.7618 27.821 74.254 27.9942C74.4744 27.6869 74.6097 27.3351 75.0338 27.1633C75.3316 27.0423 75.5066 26.6182 75.7348 26.3282C75.9857 26.0091 76.3343 25.7912 76.532 25.4025C76.6981 25.0757 77.0551 24.852 77.2805 24.5475C77.513 24.2327 77.689 23.876 77.8896 23.5381H78.9806C79.0381 23.8441 79.1325 24.1465 78.7723 24.4623C79.0832 24.4765 79.3238 24.4875 79.5439 24.4975C79.6422 24.9489 79.7309 25.3578 79.8182 25.7575C79.6614 25.8189 79.5503 25.8622 79.4193 25.9133C79.4331 26.002 79.431 26.0947 79.4626 26.1734C79.7323 26.8396 79.6883 27.0682 79.1698 27.5825C78.9533 27.7969 78.8628 28.1305 78.9508 28.3389C79.0892 28.6661 78.6736 28.5401 78.8699 28.8421C78.6619 28.6707 78.5966 28.6168 78.4837 28.5238V29.0629C78.2793 29.1023 78.1025 29.136 77.8924 29.1761V29.7053C77.6447 29.9634 77.47 30.1458 77.3245 30.2977C77.6621 30.6281 77.9733 30.9327 78.2321 31.1864V31.9155C78.4408 32.1242 78.659 32.3424 78.8826 32.5668C78.8131 32.6903 78.7687 32.768 78.691 32.9046C78.7925 33.1105 78.9171 33.3639 79.0779 33.6908C78.8912 34.0805 78.685 34.511 78.489 34.9199H77.6823C76.7424 34.3822 75.8313 33.8601 74.9227 33.3398C74.7616 33.5886 74.6335 33.7866 74.5248 33.9545C74.3573 33.8729 74.2281 33.8097 74.0059 33.7015V34.6023C73.7114 34.4926 73.5055 34.4159 73.12 34.2725C73.2791 34.4898 73.3227 34.549 73.4065 34.6633C73.229 34.8301 73.0413 35.0065 72.7442 35.2855C72.6845 34.9252 72.6473 34.6995 72.6065 34.4511C72.7424 34.4042 72.8524 34.3662 72.9923 34.3176C73.0061 34.2449 73.0228 34.1568 73.043 34.0493C72.9206 34.0067 72.8081 33.9684 72.6952 33.9293C72.7367 33.7582 72.779 33.5858 72.8507 33.2933C72.6714 33.4576 72.6022 33.5212 72.561 33.5588C72.149 33.4814 71.7593 33.4086 71.3486 33.332C71.2854 33.2106 71.2034 33.0523 71.1065 32.867C71.1797 32.5838 71.2627 32.2622 71.3468 31.9343C71.536 31.9655 71.7763 32.0056 72.0166 32.0454C72.0265 32.0099 72.0361 31.9744 72.0464 31.9385C71.7955 31.8125 71.5449 31.6865 71.3238 31.5754C71.4533 31.3078 71.5821 31.0413 71.7163 30.7637C71.0796 29.6823 70.3857 28.6615 69.9935 27.4867C69.7582 26.6774 70.0368 25.8778 70.1532 25.0813C70.2437 24.462 70.7559 24.024 71.3163 23.7106C71.3962 23.6659 71.4718 23.6144 71.5995 23.5349H72.5621C72.714 23.6868 72.8507 23.8238 72.9468 23.92C72.7573 24.1095 72.5646 24.3019 72.4503 24.4158V25.0114C72.6636 24.956 72.8684 24.9032 73.1027 24.8425C73.2255 24.9571 73.338 25.0625 73.4941 25.2084C73.3302 25.4086 73.1949 25.5736 73.0466 25.7543Z" fill="black"/>
<path fill-rule="evenodd" clip-rule="evenodd" d="M14.8328 35.6962C14.9421 35.8056 15.0333 35.8968 15.1625 36.026C14.5694 36.5332 13.9795 37.0372 13.39 37.5415C13.4031 37.5756 13.4166 37.6096 13.4301 37.6434C13.5554 37.6068 13.7084 37.6036 13.7996 37.527C13.9699 37.3843 14.1041 37.1994 14.338 37.1532C14.7515 36.92 15.165 36.6865 15.5671 36.4593C15.9178 36.7429 15.6619 36.9669 15.511 37.3108C15.7407 37.2238 15.8894 37.1674 16.0495 37.1064C16.1194 37.1763 16.2106 37.2675 16.3022 37.3591C16.3025 37.7456 16.3025 38.1325 16.3025 38.5239C16.1897 38.634 16.0747 38.7468 15.9529 38.8654C15.9707 38.9101 15.9753 38.9719 16.0083 38.996C16.2284 39.161 16.4481 39.3282 16.6802 39.4751C16.9297 39.6327 17.2789 39.6782 17.2885 40.0817C17.2896 40.1282 17.3684 40.1807 17.4202 40.2173C17.6193 40.3575 17.8525 40.4636 18.0147 40.6372C18.1765 40.81 18.2685 41.0482 18.4321 41.3279C18.4321 41.4915 18.4321 41.7495 18.4317 42.0072C18.2717 42.1669 18.1123 42.3266 17.9789 42.4601C16.7583 42.0239 15.5519 41.593 14.3458 41.1621C14.0778 41.3052 13.7893 41.4588 13.5004 41.6125C13.4883 41.593 13.4762 41.5735 13.4642 41.554C13.2132 41.8045 12.9623 42.0555 12.6418 42.376C12.6372 42.4523 12.628 42.6021 12.6163 42.793C12.108 43.2817 11.576 43.7939 11.1469 44.207C10.9314 44.8754 11.0407 45.5618 10.1502 45.7027C9.96601 45.4081 9.30442 45.3609 9.45527 44.6741C9.27212 44.6212 9.0471 44.5556 8.80185 44.4846C8.74648 44.5219 8.64674 44.5886 8.56901 44.6404C8.31985 44.3771 8.10228 44.1463 7.78604 43.8117C7.71541 43.2079 7.62491 42.4352 7.52979 41.6221C8.3337 40.7529 9.12589 39.8964 9.96636 38.9875C9.6377 38.7816 9.29874 38.6095 9.00841 38.377C8.70814 38.1364 8.45508 37.8368 8.17362 37.5553C8.25135 37.3044 8.3305 37.0485 8.41568 36.772C8.2581 36.7181 8.14558 36.6794 8.00574 36.6311V35.9773C8.05969 35.923 8.12819 35.8549 8.20734 35.7754C8.48419 35.7204 8.77487 35.6625 9.13406 35.5908C10.0902 36.1275 11.1358 36.7142 12.1531 37.2845C13.1731 36.8966 13.8344 36.0018 14.8328 35.6962Z" fill="black"/>
</svg>
