<svg width="207" height="91" viewBox="0 0 207 91" fill="none" xmlns="http://www.w3.org/2000/svg">
<path fill-rule="evenodd" clip-rule="evenodd" d="M151.88 4.31761C176.507 9.133 189.895 16.7694 195.399 29.187C196.512 31.752 197.614 33.2151 199.624 34.9177C205.613 45.382 212.078 58.9381 200.629 69.6894C188.559 80.9852 150.86 89.0328 109.139 89.2054C103.166 89.2404 93.5276 89.4805 87.7602 89.7897C15.8967 93.5573 -12.3146 68.2106 5.68929 43.2671C16.6457 28.0388 34.9155 18.8191 66.7615 12.2549C97.0876 6.04645 139.33 10.1873 171.023 21.1658C179.307 24.0359 179.927 22.124 177.358 20.3226C168.298 13.9262 145.633 7.77273 122.666 5.88658C102.175 4.19003 92.7478 3.70434 78.0307 6.53551C72.2792 7.63045 68.3531 4.46956 77.1325 2.24459C86.4469 -0.034532 125.12 -0.913908 151.88 4.31761ZM16.6709 70.6841C27.7928 80.14 50.6254 84.2617 86.3846 83.1749C205.886 79.5266 189.997 38.9947 189.997 38.9947C189.883 38.9647 147.707 11.2506 74.2739 17.1193C38.1412 19.9636 -16.6338 42.3568 16.6709 70.6841ZM161.122 77.3088C149.359 81.286 163.529 78.7743 181.113 73.7936C213.888 64.5197 199.479 48.4857 197.821 45.4799C197.659 60.6501 177.583 71.7631 161.122 77.3088Z" fill="#FF450D"/>
</svg>
