<svg width="103" height="90" viewBox="0 0 103 90" fill="none" xmlns="http://www.w3.org/2000/svg">
<path fill-rule="evenodd" clip-rule="evenodd" d="M93.176 71.133C92.511 71.6539 92.1989 72.4086 92.0652 73.257C91.9916 73.725 91.5643 73.789 91.2429 73.8712C90.9648 73.9427 90.7081 73.952 90.4832 74.1815C90.3903 74.2766 90.1 74.2974 89.9781 74.223C89.588 73.9853 89.1705 73.8115 88.8104 73.4944C87.5427 72.379 86.6135 70.9993 85.7437 69.5918C84.8564 68.1557 83.9276 66.735 83.248 65.1773C83.0367 64.6925 83.0281 64.6965 83.5601 64.32C83.9927 65.1426 84.3959 65.9778 84.8628 66.7757C85.2332 67.4089 85.6812 67.9959 86.1323 68.6584C86.2385 68.3917 86.236 68.2208 86.0712 67.983C85.1739 66.6867 84.3219 65.3611 83.6462 63.8431C83.7542 63.7727 83.8847 63.6872 84.0145 63.6028C84.0445 63.6286 84.1113 63.6865 84.2257 63.7855V63.245C84.5464 63.181 84.8371 63.1234 85.2153 63.0483C85.5103 63.186 85.6504 63.7079 86.1359 63.7727C86.1202 64.3007 86.5817 64.5638 86.8138 64.9496C87.1015 65.4279 87.4916 65.8444 87.7676 66.198C88.0793 66.1565 88.3124 66.1129 88.5477 66.0965C89.3735 66.0385 89.3535 66.0646 89.868 66.5183C90.4396 67.0224 90.8307 67.7278 91.5679 68.0481C91.6155 68.0685 91.6684 68.1407 91.6709 68.1911C91.6938 68.7216 91.9908 68.9143 92.4888 69.0431C92.9068 69.1514 93.0255 69.5918 93.0451 70.0251C93.0601 70.3573 93.1213 70.6872 93.176 71.133Z" fill="black"/>
<path fill-rule="evenodd" clip-rule="evenodd" d="M19.4518 9.51324C20.0431 9.80925 20.0431 9.80925 20.3613 9.18969C20.7656 9.05098 21.2543 9.33019 21.62 8.95874C22.0315 9.06135 22.4377 9.20077 22.8552 9.25833C23.5295 9.35093 23.8777 9.87253 24.2585 10.3116C24.5169 10.6097 24.7876 10.909 25.0239 11.2329C25.3002 11.6118 25.6306 11.9507 25.908 12.3286C26.1593 12.6711 26.3742 13.0411 26.5973 13.4036C26.6591 13.5045 26.7385 13.6271 26.7296 13.7329C26.7056 14.0146 26.8032 14.2045 27.0034 14.4065C27.3885 14.7947 27.3584 15.3646 27.4921 15.8494C27.6162 16.3013 27.545 16.8164 27.505 17.2994C27.49 17.4839 27.4657 17.8775 27.0595 17.5872C27.0309 17.5665 26.889 17.7177 26.7914 17.7749C26.6885 17.835 26.5126 17.9497 26.4761 17.9179C26.0478 17.5418 25.9434 17.8107 25.7475 18.1825C25.4593 18.7298 25.2834 18.6894 24.5098 18.5514C24.039 18.467 23.5399 18.4524 23.2642 18.0438C22.5188 16.9391 21.7552 15.8419 21.6519 14.4297C21.6108 13.8638 21.4527 13.2732 20.9858 12.8663C20.5836 12.5156 20.3166 12.0144 19.7674 11.8188C19.6019 11.7598 19.4807 11.5625 19.352 11.417C19.0785 11.1067 18.9316 10.7617 18.9244 10.3251C18.9169 9.87182 19.2751 9.77029 19.4518 9.51324Z" fill="black"/>
<path fill-rule="evenodd" clip-rule="evenodd" d="M82.6462 46.4367C82.1636 45.9541 81.7585 45.4814 81.2862 45.0896C79.9316 43.9656 79.2885 42.3754 78.4784 40.8953C78.1144 40.2307 78.2185 39.4842 78.2342 38.7653C78.2371 38.6405 78.4094 38.5193 78.5102 38.3885C78.6478 38.6609 78.7769 38.9161 78.9653 39.2887V37.9577C79.2488 37.8172 79.5287 37.7407 79.7196 37.5669C79.9567 37.3513 80.2244 37.3939 80.4418 37.4486C80.6949 37.5122 80.9109 37.7235 81.1654 37.8851C81.0163 38.5837 81.2913 39.1685 81.632 39.7781C81.9369 39.6955 82.2969 39.9122 82.6022 39.599C82.6669 39.5325 82.8793 39.5271 82.9708 39.5822C83.7187 40.0323 84.6365 40.2711 85.0147 41.1949C85.0826 41.3615 85.1581 41.5767 85.2946 41.6507C85.5006 41.7623 85.3157 42.1105 85.6693 42.1241C85.9603 42.1352 85.7744 42.4319 85.8266 42.5935C85.8913 42.7937 85.9796 42.9896 86.0147 43.1948C86.0468 43.3829 86.0215 43.5809 86.0215 43.7761C85.2728 44.4182 84.7916 45.2362 84.4227 46.1475C83.8238 46.2447 83.2161 46.3438 82.6462 46.4367Z" fill="black"/>
<path fill-rule="evenodd" clip-rule="evenodd" d="M1.44235 0.98069C1.62003 0.738656 1.75839 0.537021 1.91176 0.346827C1.96789 0.277827 2.0544 0.229206 2.13484 0.18416C2.36401 0.0558144 2.52775 0.418686 2.78408 0.260667C2.985 0.136969 3.22024 0.0257836 3.4494 0.00361806C3.6396 -0.0146149 3.92167 0.214548 4.02392 0.140901C4.25165 -0.0231951 4.38786 -0.0725313 4.58592 0.149482C4.62275 0.190238 4.75753 0.159492 4.84154 0.139114C5.46289 -0.0106823 5.46254 -0.0124698 5.79502 0.591363C5.84042 0.460514 5.87975 0.347542 5.95125 0.141259C6.04957 0.407246 6.14609 0.596368 6.18685 0.796573C6.2369 1.04111 6.24906 1.29458 6.2605 1.54484C6.27229 1.79653 6.263 2.04928 6.40421 2.30848L6.4986 1.37109C6.53185 1.36966 6.56545 1.36823 6.59906 1.36716C6.61729 1.53304 6.64947 1.69893 6.65054 1.86517C6.6559 2.70817 6.61622 3.55332 6.66412 4.39347C6.70667 5.13459 6.57975 5.80563 6.16111 6.4184C6.00416 6.26825 5.85544 6.04051 5.67668 6.40374C5.48113 6.80058 5.16795 6.77055 4.76325 6.58857C4.69604 7.02009 4.66565 7.52882 3.95099 7.36616V6.28541C3.90344 6.27611 3.85553 6.26646 3.80798 6.25681C3.69465 6.6254 3.58168 6.99399 3.46513 7.37331C3.14588 7.15952 2.88418 6.93214 2.93602 6.48239C2.95032 6.35619 2.80303 6.2182 2.75548 6.07734C2.54991 5.46457 2.55313 5.46314 2.04439 5.44848C1.94715 5.44562 1.84991 5.44812 1.75267 5.44812H1.48561C1.23893 5.20144 1.01656 4.96441 0.778812 4.74419C0.272221 4.27621 0.110985 3.65664 0.0298303 3.01277C-0.0102107 2.69352 0.0587886 2.35996 0.0133849 2.04213C-0.0366663 1.69178 0.143876 1.43294 0.303325 1.18626C0.62115 0.694683 0.794542 0.680382 1.44235 0.98069Z" fill="black"/>
<path fill-rule="evenodd" clip-rule="evenodd" d="M58.3005 8.69688C57.8847 8.97931 57.4843 9.26246 57.0671 9.51736C57.0267 9.54203 56.8815 9.39509 56.725 9.2857C56.6291 9.45766 56.5641 9.61532 56.4625 9.74402C56.3431 9.89596 56.1898 10.0211 56.0543 10.1609C55.7797 10.4437 55.5151 10.7586 55.1094 10.3289C55.0783 10.2964 54.9839 10.3285 54.9199 10.3218C54.4641 10.2724 54.0297 10.3861 53.571 10.0193C53.2017 9.724 52.7316 9.51986 52.3844 9.15735C52.0591 8.817 51.7223 8.49739 51.4953 8.06552C51.1471 7.40234 50.8032 6.74667 50.9272 5.96837C50.9583 5.77317 51.0924 5.59406 51.2136 5.33272C51.4588 5.53364 51.6247 5.66949 51.8185 5.82858C51.9772 5.30197 51.9447 4.68992 52.4327 4.22587C52.624 4.36887 52.8088 4.50687 53.0394 4.67919V3.96811C53.6801 3.85871 54.2621 3.63848 54.9042 3.67709C55.2724 3.69926 55.5906 3.81581 55.8237 4.03925C56.1233 4.32597 56.4901 4.53118 56.7346 4.8987C56.9555 5.23119 57.2576 5.50933 57.4897 5.85182C57.8704 6.4149 57.9991 7.07307 58.2776 7.67226C58.4106 7.95791 58.3005 8.35689 58.3005 8.69688Z" fill="black"/>
<path fill-rule="evenodd" clip-rule="evenodd" d="M17.0093 27.3366V29.4288C17.2035 28.9 17.1699 28.3659 17.1863 27.8346C17.1927 27.6208 17.0916 27.3549 17.3507 27.2272C17.6185 27.0949 17.9013 26.9641 18.1902 26.9216C18.2896 26.9069 18.4787 27.1421 18.5352 27.2962C18.596 27.4617 18.5491 27.6666 18.5491 27.8754C18.7107 27.8078 18.8069 27.7295 18.893 27.7392C19.0711 27.7592 19.3156 27.924 19.4068 27.8575C19.9134 27.4846 20.4686 27.7295 20.9923 27.7002C21.2294 27.687 21.5879 27.8454 21.7016 28.0377C21.9805 28.5114 22.5432 28.6562 22.8382 29.2135C22.8478 29.4516 22.8793 29.7459 23.1267 30.0626C23.4509 30.4777 23.7276 30.9932 23.6272 31.6006C23.5803 31.8831 23.619 32.1794 23.619 32.5237C22.9543 32.918 22.2629 33.3013 21.6001 33.7289C20.9065 34.1765 20.2755 33.8758 19.6853 33.5666C19.2545 33.3406 18.6764 33.2348 18.5309 32.6331C17.5678 32.1998 17.3965 31.1848 16.8824 30.418C16.5367 29.9025 16.5474 29.3026 16.4495 28.757C16.3687 28.3062 16.6869 27.7839 16.8284 27.2934C16.8888 27.3077 16.9493 27.3223 17.0093 27.3366Z" fill="black"/>
<path fill-rule="evenodd" clip-rule="evenodd" d="M35.874 37.8866C35.4636 37.4762 35.0285 37.0411 34.5387 36.5513C34.5387 36.2271 34.5051 35.8406 34.5559 35.4656C34.5752 35.3261 34.7765 35.1853 34.9263 35.1034C34.9831 35.0719 35.1293 35.2042 35.2359 35.2625C35.3775 34.9822 35.4604 34.6029 35.9391 34.6951C36.0281 34.7127 36.1543 34.718 36.2151 34.669C36.4536 34.476 36.7131 34.279 37.0181 34.3637C37.5647 34.516 38.1739 34.605 38.6 34.9822C39.4423 35.7283 40.2432 36.5392 40.6625 37.6167C40.9124 38.2591 41.138 38.9227 41.2588 39.5977C41.3114 39.893 41.2317 40.2984 40.8952 40.5336C40.3415 40.9215 39.8084 41.3405 39.2425 41.7095C39.0498 41.8349 38.7781 41.9218 38.5532 41.9022C37.1364 41.7795 36.1268 41.1128 35.7082 39.5126C35.647 39.2795 35.5008 39.0367 35.5323 38.8186C35.578 38.503 35.7503 38.2052 35.874 37.8866Z" fill="black"/>
<path fill-rule="evenodd" clip-rule="evenodd" d="M38.3053 73.1113C38.2666 72.9157 38.228 72.7205 38.1894 72.525C38.1869 73.3008 37.3679 73.5911 37.1895 74.2507C37.1258 74.4866 36.7769 74.5917 36.6325 74.4605C36.3969 74.2475 36.2364 74.403 36.1034 74.4895C35.7498 74.7197 35.4495 74.6976 35.0884 74.4866C34.0477 73.8782 32.9741 73.319 32.3606 72.2036C31.6213 71.8035 31.405 70.9909 30.9456 70.3731C30.7221 70.0728 30.651 69.6592 30.4951 69.2559C30.7668 68.8602 31.1615 68.9649 31.6388 69.203C31.5927 68.9781 31.6052 68.7711 31.5108 68.6435C31.3803 68.468 31.5197 68.399 31.5937 68.3679C31.9298 68.2274 32.2773 68.1244 32.554 67.8591C32.6216 67.7941 32.8128 67.8198 32.9315 67.8556C33.1435 67.9199 33.3252 68.0554 33.5608 67.8638C33.6276 67.8098 33.845 67.9178 33.9815 67.9778C35.1552 68.4934 36.2174 69.1397 36.9124 70.2838C37.0061 70.4382 37.217 70.6019 37.3747 70.7489C37.8269 71.1689 37.9116 71.781 38.2616 72.234C38.494 72.5353 38.4433 72.7999 38.3053 73.1113Z" fill="black"/>
<path fill-rule="evenodd" clip-rule="evenodd" d="M97.4867 27.6546C97.5124 27.4748 97.5381 27.2946 97.5667 27.0966C97.6375 27.148 97.7004 27.1684 97.7169 27.2081C97.9668 27.8194 98.2782 28.4054 98.4251 29.0593C98.5173 29.4704 98.635 29.864 98.2371 30.1844C97.9661 30.4024 98.241 31.0288 97.6314 30.9938C97.344 31.4553 96.8835 31.4092 96.4431 31.3777C96.3437 31.6866 96.2818 31.9876 96.1521 32.2561C96.0058 32.5586 95.5386 32.644 95.0377 32.501C94.9233 32.4685 94.8128 32.3573 94.7081 32.3666C93.8965 32.4374 93.898 32.4435 93.5566 31.8035C93.386 31.4843 93.1801 31.1793 93.0478 30.845C92.8869 30.4375 92.6367 30.1829 92.2252 30.007C91.6142 29.7457 91.2174 29.2159 91.1119 28.5856C91.0165 28.015 91.2835 27.4916 91.793 27.0805C92.0454 27.4101 92.2971 27.7387 92.6499 28.1991C92.6499 27.7279 92.6449 27.4108 92.6513 27.0941C92.6578 26.7791 92.6921 26.8434 93.1905 26.6189C93.5465 26.4584 94.0624 26.6529 94.2673 26.1588C94.6191 26.1452 94.9705 26.1324 95.3223 26.1188C95.9719 26.093 96.5482 26.1638 96.851 26.886C96.9711 27.172 97.2589 27.3879 97.4867 27.6546Z" fill="black"/>
<path fill-rule="evenodd" clip-rule="evenodd" d="M1.36504 32.3914C0.595677 32.2249 0.3254 31.6793 0.255328 31.1999C0.165594 30.5867 -0.0421192 29.9858 0.00757454 29.3376C0.0719262 28.4985 0.0672785 27.6473 0.00435696 26.8082C-0.0260313 26.401 0.235308 26.0996 0.22923 25.7189C0.2278 25.6199 0.365441 25.4282 0.430508 25.4322C0.93245 25.4608 1.17091 24.9174 1.69716 24.9141C2.04573 24.9124 2.39252 24.5856 2.78363 24.3811C3.16903 24.7665 3.98879 24.2899 4.30126 25.1397C4.09676 25.7368 4.60621 26.2612 4.77889 26.8729C4.80284 26.9584 4.89258 27.0345 4.89329 27.1153C4.90151 28.0788 4.8983 29.0419 4.8983 30.0884C4.74242 29.95 4.67485 29.8903 4.50718 29.7412C4.55974 29.9675 4.54973 30.1409 4.62695 30.1996C4.70918 30.2625 4.88257 30.1928 4.99911 30.2317C5.05203 30.2493 5.08027 30.389 5.08599 30.4756C5.08885 30.5152 5.00269 30.6028 4.97123 30.5964C4.73527 30.5503 4.50253 30.4859 4.24763 30.4223C4.07352 30.7991 3.88762 31.2013 3.74891 31.502C3.48328 31.4823 3.32454 31.4701 3.16617 31.4584C3.44395 31.7386 3.1247 31.8395 3.00922 32.0118C2.8916 32.1866 2.80544 32.3825 2.71213 32.5566C2.09864 32.4901 1.86984 32.0947 1.70574 31.571C1.58955 31.8513 1.4848 32.1026 1.36504 32.3914Z" fill="black"/>
<path fill-rule="evenodd" clip-rule="evenodd" d="M73.1354 77.2286C72.6309 77.2143 72.1536 77.0781 71.9098 77.6372C71.498 77.0945 71.4494 76.7095 71.8687 76.2783C72.1583 75.9809 72.3492 75.6094 72.7182 75.3524C73.041 75.1272 73.1597 74.6292 73.4378 74.312C73.6516 74.0682 73.9727 73.9181 74.2461 73.7268C74.3316 73.8101 74.4238 73.9009 74.5693 74.0436C74.4149 74.1533 74.2633 74.2613 74.1114 74.3689C74.1282 74.4079 74.1453 74.4468 74.1621 74.4858C74.3845 74.4508 74.6065 74.4157 74.8564 74.3764C74.9229 74.4761 75.0001 74.7321 75.1657 74.8183C76.1599 75.336 76.7945 76.2001 77.3987 77.087C77.5971 77.378 77.6654 77.7545 77.8248 78.0766C78.2184 78.8728 78.32 79.0197 78.2002 79.7433C78.1137 80.2664 78.0182 80.8241 77.6074 81.2502C77.4451 81.4183 77.2721 81.661 77.2635 81.8762C77.2421 82.4196 76.9436 82.5065 76.5045 82.4786C76.3819 82.4708 76.2521 82.4865 76.1327 82.5187C75.3669 82.7246 75.2879 82.7031 74.9061 82.1161C74.3405 81.247 74.0703 80.2531 73.7413 79.2871C73.509 78.6047 73.3316 77.9029 73.1354 77.2286Z" fill="black"/>
<path fill-rule="evenodd" clip-rule="evenodd" d="M60.7373 66.5317C60.1956 66.2243 59.6472 65.9551 59.2057 65.51C58.3831 64.6791 57.5 63.9008 56.741 63.0156C55.9431 62.0851 55.0983 61.1677 54.6167 60.0766C54.6675 59.6458 55.2288 60.1034 55.2395 59.595C55.2427 59.4499 55.5984 59.3097 55.7958 59.1721C56.2856 58.8303 56.559 58.7731 56.9158 59.1528C57.268 59.5278 57.6752 59.6622 58.136 59.7598C58.8478 59.9107 59.339 60.4573 59.9482 60.7937C60.6 61.1534 61.0644 61.7325 61.5938 62.2356C61.8681 62.4958 62.2088 62.6957 62.4444 62.9838C62.6814 63.2738 62.8991 63.6223 62.9831 63.9788C63.0339 64.1958 62.8709 64.5233 62.705 64.7167C62.5001 64.9551 62.4032 65.2994 62.0447 65.4149C61.8373 65.4814 61.8666 65.7131 61.8262 65.904C61.7797 66.1231 61.7186 66.3898 61.3382 66.1145C61.0722 65.9226 60.8484 66.195 60.7373 66.5317Z" fill="black"/>
<path fill-rule="evenodd" clip-rule="evenodd" d="M99.9896 60.8927C98.8784 60.435 98.4008 59.5842 97.926 58.7573C97.5088 58.0304 97.1284 57.2736 96.8181 56.4953C96.5088 55.7181 95.9694 54.9816 96.21 54.0035C96.9128 54.4932 96.8546 55.4296 97.5295 56.0556C97.4058 55.0653 96.8921 54.3002 96.6358 53.257C96.9904 53.4515 97.1191 53.5219 97.2764 53.6081C97.3068 53.4382 97.3386 53.2602 97.3701 53.0829C97.664 53.0271 97.9539 52.972 98.2964 52.907C98.3872 53.0521 98.5062 53.2666 98.6478 53.4654C99.1998 54.2387 99.203 54.2351 100.205 54.5916C100.317 54.6316 100.422 54.6967 100.524 54.761C101.3 55.2515 102.007 55.8042 102.434 56.6569C102.592 56.9722 102.807 57.5514 102.798 57.8871C102.796 57.9657 102.861 58.058 102.919 58.1245C103.064 58.2936 102.999 58.4376 102.848 58.5231C102.41 58.7701 102.22 59.2563 101.831 59.5474C101.665 59.6714 101.636 59.8366 101.605 60.0414C101.564 60.3203 101.017 60.6817 100.762 60.6231C100.605 60.5866 100.503 60.297 100.288 60.5105C100.175 60.6227 100.09 60.7622 99.9896 60.8927Z" fill="black"/>
<path fill-rule="evenodd" clip-rule="evenodd" d="M68.4155 38.1711C68.2454 38.1993 68.067 38.2286 67.8206 38.2694C67.9179 38.4517 67.9872 38.5811 68.0598 38.717C67.5968 39.18 67.1149 39.6619 66.618 40.1592C66.5379 40.1592 66.4399 40.1445 66.3477 40.1613C65.2541 40.3637 64.5258 39.743 63.9184 38.9948C63.444 38.4102 63.0361 37.7664 62.7186 37.0639C62.5206 36.6252 62.3436 36.2212 62.4852 35.6252C62.817 36.3546 63.1126 37.0038 63.4083 37.6534C63.4608 37.6362 63.5134 37.6194 63.5663 37.6023C63.5423 37.4786 63.5388 37.3459 63.4909 37.2322C63.2932 36.7625 63.0683 36.3034 62.882 35.8297C62.7994 35.6199 62.6225 35.3585 63.0733 35.2609C63.2124 35.2309 63.2939 34.931 63.4001 34.7533C63.493 34.5974 63.5831 34.4397 63.6567 34.3139C64.1126 34.2721 64.1169 34.6707 64.4011 34.8351C64.3349 34.5842 64.2688 34.3332 64.1816 34.0029C64.3274 33.8874 64.5223 33.7329 64.7171 33.5781C64.8401 33.7004 65.0031 33.8953 65.1543 33.536C65.3184 33.1477 65.5608 32.9965 65.9537 33.2514C65.9895 33.2746 66.0635 33.2925 66.0871 33.2732C66.5422 32.8982 66.8103 33.2718 67.0209 33.5585C67.5236 34.2438 67.7602 35.0668 68.0613 35.8498C68.132 36.0335 68.2861 36.465 67.7677 36.4858C67.7384 36.4868 67.7159 36.6481 67.6905 36.7346C67.7985 36.7607 67.9644 36.8443 68.0055 36.8029C68.2961 36.5115 68.4527 36.8919 68.4241 36.9588C68.2493 37.3695 68.6544 37.7664 68.4155 38.1711Z" fill="black"/>
<path fill-rule="evenodd" clip-rule="evenodd" d="M64.8852 17.3657C64.9996 17.4802 65.1143 17.5949 65.2884 17.7687C65.3202 17.493 65.3467 17.2656 65.3757 17.0175C65.7768 16.9335 66.1904 16.8277 66.6105 16.7655C66.8643 16.728 67.1325 16.729 67.3856 16.768C67.5786 16.798 67.427 17.1577 67.7871 17.1891C68.0198 17.2095 68.1986 17.6049 68.3641 17.8802C68.4985 18.1036 68.2972 18.5874 68.8077 18.5584C68.8253 18.8748 68.8428 19.1915 68.861 19.5079C68.8624 19.5387 68.8696 19.5691 68.8742 19.5998L70.3229 21.0484C70.478 21.0484 70.6425 21.0284 70.7994 21.0531C71.0415 21.0921 71.3021 21.332 71.178 21.4807C70.902 21.8114 71.3968 22.0398 71.2006 22.3097C70.4466 22.5357 70.2088 22.5607 69.5953 22.4535C69.7491 22.7856 69.8828 23.0752 70.0508 23.4391C69.9528 23.5331 69.8238 23.7623 69.6965 23.7616C68.8932 23.7555 68.0477 23.9593 67.3316 23.3891C67.1375 23.2343 66.9029 23.1131 66.7521 22.9239C66.4078 22.4928 66.0996 22.0327 65.7854 21.5779C65.6306 21.3538 65.4983 21.1135 65.3496 20.8847C65.1193 20.5304 65.1876 20.0199 64.7654 19.7664C64.8294 19.3367 64.587 19.0117 64.4322 18.641C64.2216 18.1373 64.3521 17.6553 64.8852 17.3657Z" fill="black"/>
<path fill-rule="evenodd" clip-rule="evenodd" d="M34.7938 2.91261C35.1738 2.91261 35.4337 2.91225 35.6933 2.91261C36.0411 2.91332 36.4176 2.85505 36.4973 3.35771C36.5059 3.41348 36.636 3.49892 36.6982 3.48999C37.1101 3.42885 37.217 3.81818 37.469 3.98943C38.1529 4.45419 38.2537 5.21961 38.4246 5.92748C38.5222 6.33111 38.3917 6.62069 37.9323 6.89562C37.4168 7.20415 36.7715 7.39577 36.4176 7.95634C36.1051 7.96242 35.8495 8.45114 35.4845 8.06002C35.4316 8.00354 35.3143 7.98459 35.2274 7.98602C33.9969 8.00961 33.2268 7.30318 32.5836 6.36114C32.2572 5.88351 31.8486 5.45664 31.7206 4.86854C31.6681 4.62722 31.6373 4.37983 31.6202 4.1335C31.6141 4.0527 31.6616 3.91256 31.7181 3.89218C32.2133 3.71522 32.5733 3.293 33.0534 3.12104C33.6454 2.90939 34.2786 2.84575 34.7938 2.91261Z" fill="black"/>
<path fill-rule="evenodd" clip-rule="evenodd" d="M33.2319 50.2068C33.3745 50.4309 33.4793 50.5961 33.683 50.9168C33.7288 50.5772 33.7463 50.461 33.7595 50.3444C33.8024 49.958 33.8017 49.9587 34.2901 49.909C34.3512 49.9025 34.4452 49.9108 34.4671 49.8761C34.6898 49.525 35.0376 49.4267 35.3887 49.5325C35.7866 49.6523 36.2138 49.8024 36.5234 50.0634C37.7315 51.0816 38.4422 52.4462 38.9942 53.8941C39.0879 54.1412 39.0074 54.4543 39.0074 54.7332C38.8626 54.7171 38.7489 54.7046 38.6349 54.6917C38.6596 55.0414 38.5806 55.3006 38.1716 55.3832C38.0489 55.4082 37.8813 55.5912 37.8691 55.7146C37.828 56.1357 37.3954 55.9305 37.2445 56.1497C37.0036 55.766 36.5889 56.2305 36.3179 55.9562C36.0583 55.6938 35.703 55.4915 35.5314 55.1833C35.1535 54.5044 34.7917 53.798 34.5704 53.0586C34.4574 52.6804 34.2897 52.4291 33.9984 52.2575C33.5254 51.9797 33.1579 51.6275 32.9269 51.127C32.7342 50.7091 32.726 50.713 33.2319 50.2068Z" fill="black"/>
<path fill-rule="evenodd" clip-rule="evenodd" d="M51.5048 38.8666C51.5048 38.7697 51.4816 38.635 51.513 38.5141C51.5341 38.4333 51.6725 38.3783 51.6846 38.3007C51.6979 38.216 51.5985 38.1187 51.5974 38.0265C51.5967 37.9446 51.7118 37.8441 51.6893 37.7837C51.6482 37.6725 51.5559 37.5696 51.4612 37.4924C51.3983 37.4409 51.2935 37.4402 51.1641 37.4051C51.2249 37.6164 51.2739 37.7866 51.3232 37.9571C50.9789 37.7473 50.5964 37.5799 50.7648 37.0741C50.9071 37.1348 51.0468 37.1953 51.2202 37.2696C51.276 36.6608 50.7115 36.9775 50.4941 36.6894C50.8123 36.7269 51.0243 36.5078 51.3443 36.5503C51.4927 36.57 51.6857 36.2547 51.9131 36.0394C52.2288 36.2972 52.5827 36.5857 52.9967 36.9236C53.0371 36.6765 53.0661 36.5006 53.1011 36.2865C53.5691 36.196 54.0489 36.1034 54.534 36.0098C54.7832 36.3279 54.978 36.6182 55.2154 36.8681C55.4213 37.0841 55.7045 37.2282 55.9029 37.4495C56.4628 38.0744 56.7166 38.8634 56.9468 39.6438C57.0294 39.9231 57.1202 40.3649 56.5865 40.4397C56.589 40.9523 56.0484 41.0288 55.8046 41.3538C55.4989 41.7607 54.9584 41.8307 54.3749 41.5951C53.5011 41.2423 52.927 40.5601 52.3689 39.8959C52.0897 39.563 51.7762 39.2492 51.5048 38.8666Z" fill="black"/>
<path fill-rule="evenodd" clip-rule="evenodd" d="M67.5733 51.5111C67.7306 51.5647 67.8825 51.6162 68.0566 51.6755C68.092 50.8554 67.2444 50.6255 67.1264 49.8705C67.298 49.9463 67.4378 49.9784 67.539 50.0589C67.7013 50.1883 67.8378 50.3492 68.0402 50.5515C67.9712 50.1404 67.9254 50.046 67.6909 49.7646C68.2036 49.1447 68.2036 49.1447 68.8088 49.1426C69.1417 49.5176 69.4259 50.0117 69.8524 50.2719C70.3233 50.5597 70.462 51.051 70.8091 51.4031C71.1409 51.7402 71.3611 52.1993 71.581 52.6301C71.7018 52.866 71.8044 53.1674 71.7651 53.4155C71.715 53.7291 71.5813 54.1899 71.3597 54.2789C70.995 54.4258 71.0765 54.6836 70.9618 54.9053C70.8045 55.2081 70.5892 55.5027 70.1945 55.5677C69.964 55.6056 69.6894 55.7815 69.5203 55.7054C69.1088 55.5198 68.6837 55.2835 68.3795 54.9592C67.8053 54.3472 67.2919 53.674 66.8007 52.9919C66.6774 52.821 66.7342 52.5207 66.6978 52.1828C66.8615 52.3151 66.9266 52.3673 67.0646 52.4785C66.9931 51.9812 67.4278 51.8107 67.5733 51.5111Z" fill="black"/>
<path fill-rule="evenodd" clip-rule="evenodd" d="M62.4465 87.2692C62.1801 87.123 62.0518 87.0526 61.9274 86.9839C61.7082 87.7758 61.6539 87.8169 61.0064 87.5316C61.1773 87.9295 61.3143 88.2477 61.4633 88.5938C61.2942 88.6917 61.1212 88.7925 60.9464 88.8941C60.6303 88.5784 60.3097 88.2577 59.9593 87.907C59.7484 88.3821 60.329 88.6016 60.2718 89.0603C59.7509 89.1329 59.4488 88.7786 59.1488 88.4526C58.9851 88.2745 58.8964 88.026 58.7277 87.8544C57.9755 87.0908 57.2998 86.2653 56.6699 85.4001C56.6134 85.3226 56.5351 85.2604 56.465 85.1931C56.0853 84.831 55.6874 84.481 55.6592 83.8907C56.0381 83.6587 56.2394 84.0162 56.4972 84.2375C56.7592 83.8039 56.1529 83.746 56.1801 83.4263C56.2033 83.0409 56.9366 83.5325 56.7503 82.9026H57.806C58.1081 83.1153 58.4145 83.3259 58.7148 83.5443C59.0162 83.7635 59.2153 84.0784 59.5843 84.2568C59.9425 84.4306 60.1799 84.8403 60.4952 85.1181C60.7008 85.2993 60.8313 85.5485 61.1598 85.63C61.3976 85.6887 61.5245 86.0494 61.8856 86.0029C61.986 85.9897 62.1673 86.1713 62.2184 86.3004C62.316 86.5463 62.346 86.8184 62.4465 87.2692Z" fill="black"/>
<path fill-rule="evenodd" clip-rule="evenodd" d="M55.7473 22.0594C56.0826 22.0815 56.3143 21.9082 56.621 22.1295C56.4652 22.1831 56.3522 22.222 56.2289 22.2646C56.344 22.6553 56.472 23.0436 56.566 23.4397C56.5899 23.5413 56.5367 23.7418 56.4662 23.7715C56.0751 23.9367 55.9568 24.3575 55.6522 24.588C55.5174 24.6903 55.3154 24.7235 55.1392 24.7436C55.0509 24.7532 54.9468 24.6199 54.8585 24.6292C54.7509 24.6406 54.6522 24.7346 54.5389 24.799C54.3716 24.2077 54.3802 24.1837 53.7213 23.9592C53.327 23.8248 53.2451 23.4372 52.9655 23.1934C52.903 23.3268 52.8425 23.4555 52.775 23.5999C52.6767 23.4969 52.5111 23.4033 52.5115 23.3103C52.5165 22.1488 52.5154 22.1227 51.9852 21.4266C51.6864 21.9518 52.2591 22.2557 52.2902 22.7694C52.1483 22.7472 51.9363 22.7637 51.9116 22.7033C51.6624 22.0976 51.2827 21.5256 51.6721 20.7992C51.7929 20.5736 51.8147 20.4552 52.086 20.4506C52.2534 20.4481 52.4332 20.3498 52.5823 20.2554C52.9687 20.0112 53.3409 19.7452 53.7538 19.4639C53.8482 19.6047 53.9354 19.7352 53.9143 19.7034C54.24 19.9304 54.5797 19.3191 54.634 19.9565C54.6497 20.1374 55.0541 19.7059 55.0541 20.1796C55.0541 20.3626 55.3905 20.546 55.5596 20.7151C55.4992 20.8717 55.442 21.0212 55.3844 21.1706C55.4323 21.2039 55.4802 21.2371 55.5285 21.2704C55.6132 21.1091 55.698 20.9479 55.8049 20.7452C55.979 21.0412 56.0801 21.2124 56.2128 21.4373C56.0687 21.6297 55.9082 21.8445 55.7473 22.0594Z" fill="black"/>
<path fill-rule="evenodd" clip-rule="evenodd" d="M22.9749 51.1831C22.7504 50.9 22.5727 50.6758 22.3753 50.4263C22.2749 50.6318 22.2109 50.7623 22.1276 50.9325C21.7526 50.7566 21.5002 50.4663 21.2853 50.1635C20.8105 49.4939 20.4434 48.7553 19.9622 48.0846C19.6661 47.6724 19.6486 47.1543 19.7655 46.6181C20.2099 46.528 20.3061 47.0503 20.6765 47.1822V46.233C21.3765 46.1344 22.0511 46.0393 22.6696 45.9524C23.3184 46.5351 23.7457 47.1647 24.0485 47.8919C24.2215 48.3062 24.578 48.6173 24.6863 49.0913C24.7292 49.2787 24.4889 49.5307 24.7846 49.6701C24.7896 49.6723 24.6966 49.9004 24.6938 49.8993C24.2111 49.7252 24.0488 50.4252 23.5844 50.3129C23.5544 50.3054 23.4722 50.4849 23.4261 50.5832C23.3749 50.6912 23.3521 50.8149 23.2891 50.9143C23.2427 50.9886 23.1526 51.0351 22.9749 51.1831Z" fill="black"/>
<path fill-rule="evenodd" clip-rule="evenodd" d="M44.5704 62.9743C44.7098 63.2968 44.8113 63.5317 44.9565 63.8667C45.0487 63.6225 45.0913 63.5106 45.1363 63.3919C45.1799 63.4187 45.2514 63.4373 45.2607 63.4723C45.3487 63.8066 45.5074 64.0923 45.7487 64.3461C45.8931 64.498 45.9975 64.6936 46.0959 64.882C46.2692 65.2156 46.5152 65.4433 46.9135 65.5141C46.976 65.3875 47.0404 65.2567 47.0704 65.1959C47.2549 65.3339 47.4555 65.4844 47.6049 65.5963C47.6049 65.7179 47.6178 65.77 47.6031 65.7797C47.4265 65.8945 47.246 66.0028 47.0811 66.1036C47.1291 66.3699 47.172 66.6113 47.2367 66.9727C46.9446 66.8308 46.7848 66.7528 46.5545 66.6406C46.4269 66.8973 46.2989 67.1554 46.1613 67.4328C46.0304 67.4475 45.8771 67.4654 45.6894 67.4864V67.9197C45.1996 68.2866 44.7988 68.2372 44.3741 67.85C43.9115 67.4282 43.3899 67.0717 42.918 66.5694C43.1164 66.4382 43.308 66.3117 43.5182 66.173C43.411 65.7797 43.2183 65.4286 42.9405 65.0854C42.6627 64.7419 42.5104 64.2964 42.3105 63.9096C42.5962 63.5574 42.8218 63.818 43.0838 63.9282C43.0949 63.8298 43.1403 63.7251 43.1092 63.6543C42.9137 63.2146 42.9984 62.9972 43.4127 62.9783C43.8017 62.96 44.1921 62.9743 44.5704 62.9743Z" fill="black"/>
<path fill-rule="evenodd" clip-rule="evenodd" d="M16.8205 66.8298C16.9838 67.0715 17.1172 67.2692 17.2838 67.5155C17.327 67.3807 17.3864 67.2938 17.3728 67.2213C17.3063 66.8691 17.2201 66.5209 17.1301 66.1237H17.6967C17.7457 66.2256 17.8057 66.3504 17.9244 66.5974V65.8009C18.0353 65.7619 18.1296 65.7501 18.1958 65.7011C18.347 65.5885 18.5865 65.3329 18.6112 65.3529C18.859 65.5567 19.165 65.4337 19.4052 65.526C19.7635 65.6632 20.1038 65.9028 20.0992 66.3597C20.0977 66.4962 19.9168 66.6482 19.944 66.7629C19.9662 66.8562 20.2164 66.877 20.2911 66.9824C20.3523 67.0686 20.3573 67.2996 20.2944 67.35C20.0416 67.5516 20.0974 67.8126 20.1145 68.0571C20.1363 68.3624 20.0026 68.548 19.7316 68.6248C19.4421 68.7071 19.3745 68.8926 19.3137 69.1697C19.2276 69.5612 18.9591 69.8214 18.505 69.8021C18.3481 69.7957 18.1854 69.7993 18.0331 69.8325C17.6456 69.9172 17.1572 69.8243 17.0364 69.5401C16.7414 68.8465 16.3146 68.1912 16.3939 67.375C16.425 67.0568 16.6167 66.9664 16.8205 66.8298Z" fill="black"/>
<path fill-rule="evenodd" clip-rule="evenodd" d="M48.0877 49.2888C48.3301 49.3599 48.5833 49.4339 48.8943 49.5251C49.0262 49.2108 49.0652 48.9091 48.787 48.6285C49.1288 48.3178 49.3562 48.7861 49.6912 48.7354C49.7223 48.5663 49.7555 48.3882 49.7877 48.2138C50.0501 47.9327 50.2868 48.4511 50.6039 48.2066C50.9282 47.9563 51.01 48.4965 51.2857 48.5584C51.4405 48.5931 51.5853 48.7543 51.6957 48.8902C52.0618 49.3392 52.119 49.9745 52.612 50.3667C52.73 50.4603 52.6671 50.7825 52.6935 51.0688C52.1469 50.8003 52.1137 51.6676 51.587 51.4621C51.4251 51.7241 51.5781 52.1993 50.9857 52.2561C50.9231 52.1496 50.8252 51.9826 50.6858 51.7445C50.5671 51.9923 50.5095 52.1124 50.4505 52.2361C50.1188 52.3147 49.9668 52.0287 49.8578 51.8468C49.4956 51.2408 49.0266 50.7771 48.4199 50.4146C48.0466 50.1915 47.8418 49.8279 48.0877 49.2888Z" fill="black"/>
<path fill-rule="evenodd" clip-rule="evenodd" d="M43.3433 23.3848C42.8832 23.7452 42.5439 24.0112 42.1059 24.3547H41.2869C40.968 23.8936 40.8643 23.2869 40.3942 22.9061C40.3448 22.264 39.9008 21.8661 39.5151 21.4185C39.3924 21.2759 39.4189 21.0049 39.3667 20.7396C39.5076 20.7003 39.647 20.7032 39.7199 20.6349C40.4682 19.9352 41.1732 20.3285 41.7695 20.8058C42.2786 21.213 42.7083 21.7517 43.0691 22.3001C43.2736 22.6108 43.2682 23.0595 43.3433 23.3848Z" fill="black"/>
</svg>
