<svg width="301" height="345" viewBox="0 0 301 345" fill="none" xmlns="http://www.w3.org/2000/svg">
<path fill-rule="evenodd" clip-rule="evenodd" d="M46.4381 58.0082C46.3784 58.1663 46.3187 58.3244 46.259 58.4825C46.9392 58.764 47.6194 59.0455 48.2996 59.3269C48.3707 59.1399 48.4414 58.9524 48.513 58.7657C47.8209 58.5128 47.1298 58.2607 46.4381 58.0082ZM185.13 149.978C185.249 149.841 185.369 149.704 185.489 149.567C184.893 148.972 184.303 148.369 183.69 147.791C183.639 147.743 183.381 147.823 183.308 147.914C183.215 148.029 183.13 148.312 183.185 148.36C183.818 148.917 184.477 149.443 185.13 149.978ZM193.315 127.824C193.226 127.927 193.139 128.031 193.05 128.133C193.944 128.898 194.838 129.662 195.731 130.426C195.84 130.299 195.947 130.171 196.055 130.044L193.315 127.824ZM178.687 283.717L178.749 283.627C177.997 282.714 177.248 281.799 176.493 280.889C176.373 280.745 176.238 280.601 176.083 280.501C176.033 280.468 175.893 280.574 175.795 280.617C175.897 280.788 175.971 280.988 176.107 281.127C176.958 281.998 177.825 282.855 178.687 283.717ZM140.845 138.349C140.77 138.442 140.695 138.537 140.62 138.63C141.723 139.523 142.826 140.416 143.929 141.308C144.007 141.211 144.086 141.113 144.164 141.016C143.058 140.127 141.951 139.238 140.845 138.349ZM91.6913 34.5831C91.7567 34.4105 91.8217 34.2384 91.8867 34.0654C90.7081 33.7088 89.5303 33.3514 88.3513 32.9944C88.2924 33.1946 88.2336 33.3948 88.1756 33.5951C89.3477 33.9249 90.5201 34.2542 91.6913 34.5831ZM213.63 90.1507C213.555 90.3373 213.48 90.5244 213.405 90.7115C214.122 91.18 214.825 91.6745 215.569 92.0965C215.722 92.183 216.057 92.042 216.25 91.916C216.312 91.8756 216.247 91.4272 216.133 91.3671C215.315 90.9323 214.468 90.5494 213.63 90.1507ZM156.817 226.407C156.918 226.274 157.02 226.141 157.121 226.008C155.524 224.712 153.927 223.416 152.33 222.12C152.239 222.23 152.147 222.34 152.056 222.45C153.643 223.769 155.23 225.087 156.817 226.407ZM187.235 246.231C187.103 246.36 186.971 246.488 186.839 246.617L190.031 250.206C190.176 250.069 190.32 249.931 190.464 249.795C189.388 248.607 188.311 247.418 187.235 246.231ZM196.255 199.53C196.346 199.394 196.438 199.258 196.529 199.122C195.2 198.031 193.872 196.939 192.542 195.849C192.416 196.017 192.289 196.185 192.162 196.352C193.526 197.411 194.891 198.471 196.255 199.53ZM226.615 101.124L226.925 100.824C225.948 99.9945 224.987 99.1453 223.976 98.3588C223.829 98.2446 223.447 98.4339 223.173 98.4831C223.279 98.6956 223.329 98.9894 223.499 99.1057C224.523 99.8004 225.574 100.455 226.615 101.124ZM186.978 113.346C187.036 113.254 187.093 113.162 187.15 113.072C185.351 111.88 183.551 110.689 181.75 109.497C181.651 109.654 181.553 109.809 181.455 109.966C183.296 111.092 185.136 112.219 186.978 113.346ZM104.889 48.5228C104.927 48.37 104.964 48.2172 105.002 48.0648L96.7646 44.204C96.6952 44.3525 96.6267 44.5 96.5578 44.6471C99.3352 45.9386 102.112 47.2305 104.889 48.5228ZM67.7324 157.754C68.1953 156.668 67.66 155.082 66.8538 154.784C66.6114 154.694 66.441 154.421 66.2223 154.25C65.9307 154.021 65.6246 153.808 65.3243 153.589C65.3212 153.972 65.1631 154.463 65.3423 154.719C66.0532 155.734 66.8696 156.677 67.7324 157.754ZM172.65 172.015C172.554 172.095 172.46 172.175 172.365 172.256L177.986 177.877C178.07 177.786 178.154 177.694 178.238 177.602L172.65 172.015ZM157.675 239.231C157.632 239.273 157.589 239.314 157.546 239.355L168.428 250.237C168.471 250.196 168.513 250.154 168.556 250.112L157.675 239.231ZM228.86 102.329L228.362 102.858C229.703 104.385 231.031 105.925 232.405 107.424C232.554 107.585 232.969 107.504 233.26 107.535C233.281 107.248 233.434 106.83 233.301 106.693C231.846 105.213 230.347 103.778 228.86 102.329ZM157.789 316.27C157.728 316.318 157.668 316.368 157.608 316.417C161.486 319.375 165.355 322.346 169.257 325.273C169.678 325.589 170.297 325.641 170.824 325.816C170.431 325.589 170.036 325.364 169.643 325.137C169.596 325.108 169.56 325.061 169.515 325.027C165.606 322.107 161.698 319.188 157.789 316.27ZM70.798 53.191C69.3884 51.3932 63.2235 48.9873 61.9838 49.6605C64.8772 50.8193 67.6389 51.9263 70.798 53.191ZM70.4493 46.1207C69.4025 45.455 67.822 47.3753 67.2977 45.1841C67.0953 45.2618 66.895 45.3435 66.69 45.4142C66.5885 45.4489 66.4726 45.4954 66.3747 45.4774C66.1771 45.4405 65.8429 45.2767 65.8192 45.3154C65.6901 45.5341 65.4947 45.8867 65.5838 46.0294C65.8973 46.5291 66.2271 47.1303 66.7132 47.3889C68.4092 48.2909 68.9633 48.0573 70.4493 46.1207ZM229.826 257.818C229.994 257.598 230.163 257.376 230.331 257.156C227.121 254.562 223.91 251.969 220.7 249.376C220.62 249.47 220.54 249.564 220.46 249.657C223.582 252.378 226.704 255.098 229.826 257.818ZM180.203 171.103C180.352 170.964 180.501 170.826 180.649 170.687C176.413 166.164 172.176 161.642 167.94 157.12C172.062 161.75 175.662 166.864 180.203 171.103ZM182.999 138.014C182.888 138.12 182.778 138.225 182.667 138.33C182.951 138.666 183.225 139.011 183.52 139.336C185.561 141.573 187.583 143.826 189.666 146.022C190.041 146.416 190.95 146.917 191.137 146.769C191.916 146.151 191.668 145.428 190.942 144.811C188.286 142.555 185.646 140.281 182.999 138.014ZM60.7929 16.9043C60.8381 17.1208 60.8834 17.3364 60.9286 17.5529L79.8914 13.1217C78.3567 13.1011 76.8228 13.2815 75.285 13.4133C74.8638 13.4497 73.9311 14.0592 74.3641 12.7823C74.185 12.7392 73.986 12.6264 73.8315 12.6703C73.6268 12.7282 73.29 13.0124 73.2957 13.0216C73.9382 14.054 72.9673 13.8199 72.5584 13.9249C68.6392 14.9309 64.7152 15.9145 60.7929 16.9043ZM197.754 265.133C197.844 265.041 197.933 264.951 198.022 264.859L178.819 246.721C178.636 246.922 178.452 247.122 178.268 247.322C184.763 253.258 191.259 259.196 197.754 265.133ZM269.415 194.214C269.519 194.144 269.623 194.073 269.727 194.003C269.622 192.383 269.153 190.682 269.494 189.162C270.051 186.68 269.781 184.288 269.539 181.855C269.52 181.68 269.298 181.526 269.17 181.362C269.006 181.539 268.724 181.7 268.696 181.898C268.157 185.665 267.023 189.447 268.826 193.186C268.997 193.541 269.217 193.871 269.415 194.214ZM230.684 267.482C223.479 261.815 216.684 256.47 209.89 251.125C216.024 257.333 222.546 263.044 230.684 267.482ZM191.395 223.244C191.703 223.454 191.914 223.64 192.159 223.756C192.544 223.936 192.95 224.07 193.348 224.222C193.234 223.775 193.255 223.212 192.986 222.897C189.677 219.018 186.331 215.171 182.969 211.339C182.795 211.141 182.304 210.996 182.112 211.103C181.91 211.215 181.713 211.782 181.82 211.934C182.531 212.934 183.279 213.917 184.102 214.827C185.013 215.836 186.086 216.703 186.965 217.737C188.512 219.557 189.966 221.457 191.395 223.244ZM217.002 248.025C216.69 247.576 216.439 247.065 216.056 246.687C211.483 242.171 206.899 237.667 202.285 233.193C201.971 232.887 201.401 232.843 200.95 232.677C201.116 233.107 201.178 233.626 201.463 233.951C206.079 239.22 211.309 243.827 217.002 248.025ZM161.41 126.301C161.219 126.533 161.029 126.765 160.838 126.997C162.801 128.675 164.774 130.343 166.723 132.037C167.609 132.807 168.491 133.589 169.296 134.441C170.377 135.583 171.288 136.9 172.44 137.961C174.458 139.822 176.657 141.486 178.672 143.351C179.643 144.248 180.333 145.442 181.221 146.439C181.433 146.677 181.927 146.666 182.291 146.769C182.317 146.529 182.455 146.214 182.352 146.064C181.74 145.174 181.148 144.25 180.406 143.475C179.205 142.224 177.875 141.098 176.633 139.883C175.129 138.413 173.696 136.87 172.17 135.425C170.539 133.881 168.87 132.373 167.155 130.925C165.277 129.339 163.328 127.838 161.41 126.301ZM168.944 112.933C169.383 113.521 169.712 114.293 170.296 114.691C175.847 118.48 181.471 122.16 187.01 125.966C189.603 127.748 192.05 129.742 194.582 131.613C194.785 131.763 195.138 131.709 195.422 131.75C195.382 131.486 195.42 131.169 195.286 130.968C195.071 130.647 194.768 130.367 194.455 130.133C190.813 127.4 187.177 124.657 183.506 121.963C181.487 120.482 179.466 118.988 177.336 117.68C174.634 116.023 171.821 114.549 168.944 112.933ZM119.131 32.4216C127.277 38.3783 135.425 44.3351 143.571 50.2922C136.821 42.4073 128.307 36.9573 119.131 32.4216ZM168.287 121.023L167.927 121.513C168.267 121.823 168.572 122.188 168.954 122.433C170.699 123.56 172.541 124.551 174.213 125.775C180.522 130.392 186.775 135.085 193.063 139.729C193.269 139.881 193.633 139.821 193.923 139.861C193.863 139.564 193.909 139.15 193.728 138.988C191.731 137.201 189.824 135.278 187.65 133.732C182.953 130.389 178.13 127.222 173.324 124.032C171.696 122.952 169.97 122.022 168.287 121.023ZM232.116 277.043C220.237 269.265 209.509 260.023 198.794 250.767C208.755 260.982 219.419 270.302 232.116 277.043ZM169.306 125.301C169.835 125.977 170.002 126.364 170.296 126.538C172.995 128.135 174.503 131.084 177.662 132.344C180.024 133.286 181.891 135.501 183.92 137.218C184.349 137.581 184.522 138.244 184.814 138.768C186.753 137.562 186.165 141.061 188.008 140.506C188.39 140.391 189.198 142.035 189.96 142.696C190.387 143.065 191.121 143.08 191.717 143.255C191.687 142.767 191.846 142.122 191.594 141.818C190.857 140.929 189.999 140.124 189.114 139.375C183.041 134.232 176.565 129.653 169.306 125.301ZM202.387 271.175C202.483 271.068 202.579 270.96 202.676 270.853C201.517 269.839 200.325 268.862 199.206 267.806C192.112 261.102 185.054 254.357 177.921 247.695C177.123 246.949 175.927 246.629 174.915 246.112C174.808 246.303 174.701 246.495 174.595 246.686C183.183 255.617 192.564 263.646 202.387 271.175ZM253.595 113.249C232.609 94.0583 210.61 76.1911 185.886 61.8791C210.297 76.5986 232.117 94.7007 253.595 113.249ZM254.934 129.58C255.038 129.476 255.141 129.373 255.244 129.27C254.421 127.811 253.604 126.348 252.765 124.898C252.695 124.779 252.435 124.784 252.327 124.672C250.867 123.137 249.417 121.594 247.969 120.048C247.491 119.538 247.024 119.019 246.559 118.496C245.713 117.541 244.94 116.507 244.014 115.637C242.815 114.511 241.503 113.502 240.224 112.462C239.114 111.557 238.001 110.654 236.85 109.803C236.285 109.385 235.643 109.061 235.01 108.746C234.809 108.645 234.404 108.605 234.31 108.717C234.177 108.877 234.141 109.267 234.248 109.45C234.442 109.78 234.763 110.04 235.046 110.312C236.764 111.956 238.507 113.573 240.199 115.242C241.289 116.317 242.273 117.499 243.362 118.575C244.942 120.136 246.572 121.646 248.183 123.176C250.432 125.311 252.683 127.445 254.934 129.58ZM164.431 265.527C164.37 265.58 164.308 265.633 164.247 265.685C164.97 266.751 165.587 267.907 166.433 268.863C170.555 273.521 175.3 277.522 179.972 281.604C181.75 283.157 183.283 284.988 185.007 286.607C186.05 287.587 187.185 289.002 188.389 289.122C189.497 289.233 190.098 289.678 190.743 290.243C191.348 290.773 191.676 291.635 192.305 292.12C193.053 292.697 193.989 293.029 194.847 293.464C195.067 293.576 195.293 293.675 195.517 293.779C195.51 293.468 195.631 293.031 195.471 292.865C194.813 292.184 194.08 291.572 193.354 290.958C188.497 286.852 183.567 282.828 178.791 278.629C173.926 274.35 169.212 269.902 164.431 265.527ZM187.614 244.656C191.149 250.752 215.777 272.953 224.652 275.739C224.182 275.364 223.884 275.119 223.58 274.884C217.525 270.197 211.333 265.677 205.456 260.777C200.015 256.242 194.526 251.709 190.03 246.147C189.553 245.557 188.675 245.293 187.614 244.656ZM155.355 239.167C167.049 253.128 181.736 267.467 197.355 279.343C183.267 265.866 168.435 251.678 155.355 239.167ZM195.597 288.403C188.745 282.326 181.849 276.495 175.286 270.31C168.671 264.078 162.387 257.496 155.958 251.066C155.842 251.183 155.728 251.299 155.612 251.416C157.381 256.461 188.943 285.692 195.597 288.403ZM269.378 173.6C269.483 174.515 269.588 175.431 269.732 176.691C270.305 175.467 270.685 174.654 271.018 173.944C270.461 173.83 269.892 173.713 269.321 173.596C270.9 172.878 271.311 172.03 270.123 170.165C269.851 171.377 269.602 172.486 269.378 173.6ZM58.534 153.912C58.2437 153.554 57.9534 153.198 57.6649 152.84C57.3892 152.498 57.1415 152.127 56.8315 151.817C56.5829 151.568 56.0911 151.156 55.9976 151.223C55.0938 151.868 54.4865 152.208 53.8876 150.771C53.6254 150.143 52.5807 149.771 51.8224 149.437C50.804 148.988 51.0482 148.628 51.7113 148.068C51.9172 147.893 51.8988 147.453 51.9826 147.135C51.7578 147.175 51.504 147.304 51.3139 147.24C50.483 146.962 49.4476 146.844 48.8912 146.273C46.7922 144.12 44.9852 141.673 42.8185 139.597C39.5672 136.483 35.9791 133.719 32.7594 130.575C26.3175 124.284 18.5849 119.33 13.253 111.899C11.0894 108.884 8.75242 105.914 7.13248 102.611C5.56831 99.42 4.72694 95.8552 3.74857 92.4036C2.17035 86.8408 0.867461 81.2116 0.991305 75.3704C1.15641 67.5961 1.88887 59.9298 5.26619 52.7523C6.63012 49.8549 7.71564 46.8188 9.2113 43.9961C10.2498 42.0354 11.4776 39.9742 13.1459 38.5922C15.9958 36.2306 17.9104 33.2129 20.0116 30.3143C26.9063 20.8041 35.9295 14.0345 46.6051 9.31964C53.0049 6.49254 59.5786 4.19855 66.3737 2.53162C75.4763 0.298668 84.6954 -0.449602 94.0162 0.542823C98.902 1.06275 103.757 1.73198 108.371 3.69619C113.359 5.81937 118.592 7.39187 123.502 9.67138C131.573 13.4176 139.451 17.62 145.859 23.9575C150.509 28.5569 154.841 33.4747 159.375 38.1926C161.986 40.9104 164.743 43.4863 167.39 46.1698C172.965 51.8209 179.913 55.5509 186.591 59.5693C200.816 68.1305 214.48 77.4422 227.252 88.0554C234.97 94.4697 242.942 100.602 250.38 107.325C260.417 116.397 268.497 126.995 272.669 140.103C274.875 147.032 275.505 154.216 275.502 161.477C275.5 168.044 275.947 174.619 275.688 181.171C275.491 186.111 276.41 190.856 277.106 195.649C277.593 199.009 278.448 202.321 279.252 205.628C281.305 214.081 285.737 221.509 289.457 229.251C292.277 235.12 294.774 241.144 297.371 247.117C297.522 247.465 297.263 247.987 297.214 248.43C297.201 248.546 297.218 248.711 297.29 248.783C298.401 249.883 298.653 251.193 298.644 252.74C298.637 253.763 299.466 254.77 299.574 255.82C300.069 260.619 300.81 265.436 300.747 270.238C300.691 274.409 299.952 278.633 299.006 282.715C298.043 286.866 296.69 290.968 295.078 294.915C293.442 298.919 291.402 302.773 289.321 306.573C285.194 314.11 279.731 320.642 273.131 326.081C266.396 331.632 258.75 335.773 250.552 338.799C247.312 339.996 243.981 340.976 240.642 341.872C238.881 342.345 237.005 342.38 235.198 342.699C233.95 342.919 232.742 343.365 231.494 343.579C224.385 344.797 217.294 344.357 210.21 343.297C208.942 343.107 207.656 343.042 206.381 342.896C205.991 342.852 205.597 342.765 205.227 342.636C201.927 341.489 198.639 340.308 195.328 339.195C194.827 339.026 194.134 339.341 193.685 339.118C192.242 338.403 190.905 337.448 189.171 337.645C189.31 336.364 188.031 336.991 188.011 336.952C187 335.073 184.957 336.146 183.604 335.36C183.071 335.05 182.361 334.931 181.978 334.503C181.556 334.033 179.927 334.471 180.751 333.01C180.143 332.865 179.534 332.729 178.929 332.573C178.216 332.388 177.506 332.187 176.886 331.659C177.228 331.712 177.57 331.764 177.911 331.817C167.97 325.761 158.207 319.521 150.693 310.386C150.546 310.55 150.399 310.714 150.253 310.878C154.797 315.171 159.342 319.464 163.887 323.757C163.879 323.779 163.872 323.801 163.865 323.822C161.877 322.211 159.824 320.673 157.911 318.975C149.392 311.415 143.025 302.216 138.129 292.03C134.642 284.774 131.641 277.285 128.391 269.913C126.718 266.118 124.926 262.375 123.29 258.564C122.57 256.89 122.22 255.057 121.498 253.385C120.521 251.124 119.324 248.958 118.263 246.732C117.373 244.867 116.21 243.036 115.84 241.064C115.681 240.216 115.298 239.906 114.967 239.342C114.77 239.006 114.999 238.435 114.977 237.973C114.966 237.751 114.799 237.34 114.729 237.346C113.487 237.444 113.447 236.446 113.045 235.677C111.251 232.247 109.433 228.829 107.532 225.459C105.156 221.25 102.815 217.015 100.233 212.934C97.333 208.35 94.2556 203.872 91.1145 199.448C88.0472 195.127 84.8302 190.911 81.6254 186.689C78.9981 183.229 76.2567 179.855 73.6395 176.389C72.5816 174.988 71.7675 173.406 70.7421 171.978C70.3166 171.384 69.4028 171.086 69.1046 170.464C68.3388 168.87 66.6363 167.929 66.2823 166C66.1581 165.325 64.8956 164.929 64.3783 164.237C63.8342 163.51 63.5611 162.579 63.1615 161.741C63.1018 161.615 63.0161 161.439 62.9081 161.408C61.3663 160.981 60.9562 159.986 61.5266 159.008C60.8504 158.417 60.2483 157.939 59.7055 157.4C59.2032 156.903 58.8422 156.231 58.2801 155.831C57.0343 154.947 57.7528 154.456 58.5555 153.923C58.4958 154.371 58.22 155.076 58.3934 155.213C59.0166 155.705 59.7855 156.015 60.5149 156.363C60.6027 156.404 60.8943 156.261 60.9013 156.185C60.9197 155.987 60.9044 155.691 60.7775 155.589C60.0498 155.005 59.2857 154.465 58.534 153.912Z" fill="#FB8600"/>
</svg>
