<svg width="265" height="100" viewBox="0 0 265 100" fill="none" xmlns="http://www.w3.org/2000/svg">
<path fill-rule="evenodd" clip-rule="evenodd" d="M70.1587 95.3148C38.6417 90.3076 21.5548 82.1019 14.6163 68.5906C13.2128 65.7994 11.8142 64.2122 9.25444 62.3725C1.67575 51.0005 -6.48465 36.2551 8.28696 24.3894C23.8585 11.9223 72.2451 2.73979 125.713 2.12029C133.369 2.02041 145.723 1.65856 153.117 1.26108C245.247 -3.59771 281.167 23.8062 257.865 51.2468C243.684 67.9992 220.185 78.2618 179.313 85.7632C140.392 92.86 86.2958 88.7717 45.7802 77.1032C35.1916 74.0528 34.3784 76.1482 37.654 78.09C49.2058 84.9855 78.1959 91.4751 107.612 93.2988C133.856 94.941 145.932 95.3743 164.819 92.1288C172.199 90.873 177.202 94.2863 165.93 96.8081C153.973 99.3945 104.404 100.755 70.1587 95.3148ZM244.044 21.4029C229.878 11.1857 200.655 6.91779 154.819 8.47458C1.64035 13.695 21.6294 57.8184 21.6294 57.8184C21.7746 57.8499 75.5702 87.6964 169.731 80.5255C216.062 77.0447 286.464 52.0109 244.044 21.4029ZM58.9859 15.6561C74.0971 11.1889 55.9148 14.0795 33.3354 19.7033C-8.75237 30.175 9.56485 47.5459 11.6627 50.813C12.0097 34.2356 37.8397 21.8855 58.9859 15.6561Z" fill="#FF450D"/>
</svg>
