<svg width="227" height="11" viewBox="0 0 227 11" fill="none" xmlns="http://www.w3.org/2000/svg">
<path fill-rule="evenodd" clip-rule="evenodd" d="M10.5691 2.97771C5.42857 3.2817 2.36616 3.55527 1.87398 3.85927C0.67087 4.52807 3.07701 4.86259 10.6785 4.89298C10.7332 4.89298 208.098 2.40014 208.153 2.40014C217.066 2.18734 217.777 1.9138 217.777 1.39701C217.777 0.728209 215.371 0.272093 210.231 0.0592945C203.449 -0.275104 48.5764 0.819319 10.5691 2.97771ZM211.488 4.4977C209.082 4.5585 52.4593 6.56486 48.5218 6.74725C0.288094 8.72324 -3.43061 9.02733 1.76463 10.4865C4.28023 11.1857 9.03798 11.1856 29.6549 10.3952C79.3652 8.54084 220.895 8.32816 225.871 7.32497C228.168 6.83857 228.496 4.1633 211.488 4.4977Z" fill="#FF450D"/>
</svg>
