<svg width="109" height="48" viewBox="0 0 109 48" fill="none" xmlns="http://www.w3.org/2000/svg">
<path d="M1.05994 22.9478V0.5H14.4013V4.41233H4.99619V8.96601H12.8526V12.8783H4.99619V22.9478H1.05994Z" fill="#FF450D"/>
<path d="M15.8058 6.91365H19.742V22.9478H15.8058V6.91365ZM17.8062 4.84525C17.2254 4.84525 16.7361 4.65818 16.3381 4.28405C15.9402 3.89923 15.7412 3.41821 15.7412 2.84098C15.7412 2.27444 15.9402 1.79876 16.3381 1.41395C16.7361 1.02913 17.22 0.836717 17.79 0.836717C18.36 0.836717 18.8386 1.02913 19.2258 1.41395C19.6237 1.79876 19.8227 2.27444 19.8227 2.84098C19.8227 3.41821 19.6291 3.89923 19.2419 4.28405C18.8547 4.65818 18.3762 4.84525 17.8062 4.84525Z" fill="#FF450D"/>
<path d="M38.2708 12.8142V22.9478H34.3346V13.8404C34.3346 13.2097 34.1786 12.6378 33.8668 12.1247C33.5549 11.601 33.1354 11.1894 32.6085 10.8901C32.0922 10.5801 31.5168 10.4251 30.8823 10.4251C30.2478 10.4251 29.667 10.5801 29.14 10.8901C28.6238 11.1894 28.2097 11.601 27.8979 12.1247C27.5967 12.6378 27.4461 13.2097 27.4461 13.8404V22.9478H23.5099L23.4938 6.91365H27.43L27.4461 8.34068C27.9946 7.76345 28.6507 7.30915 29.4143 6.97778C30.1779 6.63572 31.0006 6.46469 31.8825 6.46469C33.0548 6.46469 34.1249 6.75331 35.0928 7.33053C36.0607 7.89707 36.8297 8.66137 37.3997 9.62341C37.9805 10.5748 38.2708 11.6384 38.2708 12.8142Z" fill="#FF450D"/>
<path d="M48.268 23.3646C46.7839 23.3646 45.4288 22.9852 44.2027 22.2262C42.9874 21.4673 42.0141 20.4464 41.2828 19.1637C40.5622 17.881 40.2019 16.4646 40.2019 14.9147C40.2019 13.7495 40.4116 12.6592 40.8311 11.6437C41.2505 10.6175 41.8259 9.71962 42.5572 8.94998C43.2993 8.16965 44.1597 7.56036 45.1384 7.12209C46.1171 6.68383 47.1603 6.46469 48.268 6.46469C49.5263 6.46469 50.6771 6.73193 51.7203 7.2664C52.7743 7.79018 53.6669 8.51171 54.3983 9.431C55.1296 10.3503 55.6619 11.3979 55.9953 12.5737C56.3287 13.7495 56.404 14.9788 56.2212 16.2615H44.4286C44.5791 16.8601 44.8265 17.4 45.1706 17.881C45.5148 18.3513 45.9504 18.7308 46.4773 19.0194C47.0043 19.2973 47.6012 19.4416 48.268 19.4523C48.9563 19.463 49.5801 19.3027 50.1394 18.9713C50.7094 18.6292 51.1826 18.1696 51.559 17.5924L55.5759 18.5223C54.9199 19.944 53.9412 21.1092 52.6398 22.0178C51.3385 22.9157 49.8812 23.3646 48.268 23.3646ZM44.2995 13.3273H52.2365C52.1182 12.6859 51.8655 12.1087 51.4783 11.5956C51.1019 11.0718 50.6341 10.6549 50.0748 10.3449C49.5156 10.035 48.9133 9.87996 48.268 9.87996C47.6227 9.87996 47.0258 10.035 46.4773 10.3449C45.9289 10.6443 45.461 11.0558 45.0738 11.5796C44.6974 12.0927 44.4393 12.6752 44.2995 13.3273Z" fill="#FF450D"/>
<path d="M71.0726 6.91365H75.0089V22.9478H71.0726L70.8952 20.9595C70.4542 21.6757 69.8681 22.2583 69.1368 22.7073C68.4162 23.1455 67.5612 23.3646 66.5718 23.3646C65.378 23.3646 64.2595 23.1402 63.2163 22.6912C62.173 22.2423 61.2535 21.6223 60.4577 20.8313C59.6726 20.0402 59.0542 19.1263 58.6025 18.0894C58.1615 17.0526 57.941 15.9409 57.941 14.7543C57.941 13.6106 58.1508 12.5363 58.5702 11.5315C59.0004 10.5267 59.5973 9.64479 60.3609 8.88584C61.1245 8.12689 62.0063 7.53363 63.0065 7.10606C64.0067 6.67848 65.0822 6.46469 66.233 6.46469C67.2977 6.46469 68.2495 6.69986 69.0884 7.17019C69.938 7.64053 70.6586 8.23913 71.2501 8.96601L71.0726 6.91365ZM66.475 19.5966C67.3138 19.5966 68.0559 19.3882 68.7012 18.9713C69.3465 18.5544 69.852 17.9932 70.2176 17.2877C70.5833 16.5715 70.7661 15.7859 70.7661 14.9307C70.7661 14.0649 70.5833 13.2792 70.2176 12.5737C69.852 11.8575 69.3411 11.291 68.6851 10.8741C68.0398 10.4572 67.3031 10.2487 66.475 10.2487C65.6468 10.2487 64.8886 10.4625 64.2003 10.8901C63.5228 11.307 62.9797 11.8682 62.571 12.5737C62.173 13.2792 61.9741 14.0649 61.9741 14.9307C61.9741 15.7965 62.1784 16.5822 62.5871 17.2877C62.9958 17.9932 63.5389 18.5544 64.2165 18.9713C64.9048 19.3882 65.6576 19.5966 66.475 19.5966Z" fill="#FF450D"/>
<path d="M87.9104 18.1215L91.4594 20.0296C90.7174 21.0344 89.7871 21.8414 88.6686 22.4507C87.5501 23.06 86.3294 23.3646 85.0066 23.3646C83.5224 23.3646 82.1673 22.9852 80.9413 22.2262C79.726 21.4673 78.7527 20.4518 78.0213 19.1797C77.3008 17.897 76.9405 16.4807 76.9405 14.9307C76.9405 13.7549 77.1502 12.6592 77.5696 11.6437C77.9891 10.6175 78.5644 9.71962 79.2958 8.94998C80.0378 8.16965 80.8982 7.56036 81.8769 7.12209C82.8556 6.68383 83.8988 6.46469 85.0066 6.46469C86.3294 6.46469 87.5501 6.76934 88.6686 7.37864C89.7871 7.98793 90.7174 8.80567 91.4594 9.83186L87.9104 11.7239C87.5339 11.2963 87.0876 10.9649 86.5714 10.7298C86.0659 10.4946 85.5443 10.377 85.0066 10.377C84.2322 10.377 83.5332 10.5908 82.9094 11.0184C82.2856 11.4353 81.7909 11.9911 81.4252 12.6859C81.0596 13.3701 80.8767 14.1183 80.8767 14.9307C80.8767 15.7324 81.0596 16.4807 81.4252 17.1755C81.7909 17.8596 82.2856 18.4101 82.9094 18.827C83.5332 19.2439 84.2322 19.4523 85.0066 19.4523C85.5658 19.4523 86.0982 19.3347 86.6036 19.0996C87.1091 18.8537 87.5447 18.5277 87.9104 18.1215Z" fill="#FF450D"/>
<path d="M100.95 23.3646C99.4655 23.3646 98.1104 22.9852 96.8844 22.2262C95.6691 21.4673 94.6958 20.4464 93.9645 19.1637C93.2439 17.881 92.8836 16.4646 92.8836 14.9147C92.8836 13.7495 93.0933 12.6592 93.5128 11.6437C93.9322 10.6175 94.5076 9.71962 95.2389 8.94998C95.981 8.16965 96.8414 7.56036 97.8201 7.12209C98.7987 6.68383 99.842 6.46469 100.95 6.46469C102.208 6.46469 103.359 6.73193 104.402 7.2664C105.456 7.79018 106.349 8.51171 107.08 9.431C107.811 10.3503 108.344 11.3979 108.677 12.5737C109.01 13.7495 109.086 14.9788 108.903 16.2615H97.1102C97.2608 16.8601 97.5082 17.4 97.8523 17.881C98.1965 18.3513 98.632 18.7308 99.159 19.0194C99.686 19.2973 100.283 19.4416 100.95 19.4523C101.638 19.463 102.262 19.3027 102.821 18.9713C103.391 18.6292 103.864 18.1696 104.241 17.5924L108.258 18.5223C107.602 19.944 106.623 21.1092 105.322 22.0178C104.02 22.9157 102.563 23.3646 100.95 23.3646ZM96.9812 13.3273H104.918C104.8 12.6859 104.547 12.1087 104.16 11.5956C103.784 11.0718 103.316 10.6549 102.757 10.3449C102.197 10.035 101.595 9.87996 100.95 9.87996C100.304 9.87996 99.7075 10.035 99.159 10.3449C98.6105 10.6443 98.1427 11.0558 97.7555 11.5796C97.3791 12.0927 97.121 12.6752 96.9812 13.3273Z" fill="#FF450D"/>
<path d="M0 44.4936V36.0757H0.84694V44.4936H0Z" fill="#808080"/>
<path d="M8.72017 40.7717V44.4936H7.87323V40.94C7.87323 40.6113 7.79257 40.3127 7.63125 40.0441C7.46993 39.7756 7.25416 39.5611 6.98395 39.4008C6.71373 39.2404 6.41327 39.1603 6.08256 39.1603C5.75588 39.1603 5.45542 39.2404 5.18117 39.4008C4.91096 39.5611 4.69519 39.7756 4.53387 40.0441C4.37255 40.3127 4.29189 40.6113 4.29189 40.94V44.4936H3.44495V38.4808H4.29189V39.3106C4.50564 39.0059 4.78392 38.7634 5.12673 38.583C5.46954 38.4026 5.84259 38.3125 6.2459 38.3125C6.70163 38.3125 7.11704 38.4227 7.49211 38.6432C7.86718 38.8636 8.16563 39.1603 8.38745 39.5331C8.60927 39.9058 8.72017 40.3187 8.72017 40.7717Z" fill="#808080"/>
<path d="M13.7034 44.4936H12.6266L10.4185 38.4628H11.3199L13.165 43.5075L15.0101 38.4628H15.9115L13.7034 44.4936Z" fill="#808080"/>
<path d="M20.3072 44.6499C19.7506 44.6499 19.2425 44.5076 18.7827 44.223C18.327 43.9384 17.962 43.5576 17.6877 43.0806C17.4175 42.5996 17.2824 42.0684 17.2824 41.4872C17.2824 41.0463 17.361 40.6354 17.5183 40.2546C17.6756 39.8698 17.8914 39.5331 18.1656 39.2444C18.4439 38.9518 18.7666 38.7233 19.1336 38.559C19.5006 38.3946 19.8918 38.3125 20.3072 38.3125C20.7548 38.3125 21.1662 38.4006 21.5413 38.577C21.9204 38.7534 22.2451 38.9999 22.5153 39.3166C22.7895 39.6333 22.9952 40.0041 23.1323 40.429C23.2735 40.8539 23.332 41.3128 23.3078 41.8059H18.1777C18.2261 42.1867 18.3471 42.5274 18.5407 42.8281C18.7383 43.1287 18.9884 43.3672 19.2909 43.5436C19.5974 43.7159 19.9361 43.8041 20.3072 43.8081C20.7105 43.8081 21.0735 43.7039 21.3961 43.4955C21.7228 43.287 21.9849 43.0004 22.1825 42.6357L23.0416 42.8341C22.7996 43.3672 22.4346 43.8041 21.9466 44.1449C21.4586 44.4816 20.9121 44.6499 20.3072 44.6499ZM18.1535 41.1264H22.4548C22.4265 40.7536 22.3116 40.4129 22.11 40.1043C21.9123 39.7916 21.6562 39.5431 21.3417 39.3587C21.0271 39.1703 20.6823 39.0761 20.3072 39.0761C19.9321 39.0761 19.5893 39.1683 19.2788 39.3527C18.9682 39.533 18.7141 39.7796 18.5165 40.0922C18.3189 40.4009 18.1979 40.7456 18.1535 41.1264Z" fill="#808080"/>
<path d="M27.1939 44.6078C26.8632 44.5998 26.5405 44.5397 26.2259 44.4275C25.9114 44.3152 25.6371 44.1629 25.4032 43.9705C25.1693 43.7781 25.0019 43.5596 24.9011 43.3151L25.6331 43.0024C25.6976 43.1588 25.8166 43.3031 25.99 43.4354C26.1675 43.5636 26.3691 43.6678 26.595 43.748C26.8208 43.8242 27.0446 43.8623 27.2665 43.8623C27.5125 43.8623 27.7424 43.8222 27.9561 43.742C28.1699 43.6618 28.3433 43.5476 28.4764 43.3993C28.6135 43.247 28.6821 43.0686 28.6821 42.8641C28.6821 42.6437 28.6095 42.4713 28.4643 42.347C28.3191 42.2188 28.1356 42.1185 27.9138 42.0464C27.6919 41.9702 27.4641 41.8981 27.2302 41.8299C26.8027 41.7137 26.4256 41.5854 26.0989 41.4451C25.7722 41.3048 25.5161 41.1264 25.3306 40.91C25.1491 40.6895 25.0584 40.4069 25.0584 40.0622C25.0584 39.6974 25.1612 39.3827 25.3669 39.1182C25.5766 38.8496 25.8488 38.6432 26.1836 38.4989C26.5224 38.3505 26.8833 38.2764 27.2665 38.2764C27.7585 38.2764 28.2062 38.3826 28.6095 38.5951C29.0168 38.8075 29.3112 39.0901 29.4927 39.4429L28.8091 39.8457C28.7365 39.6814 28.6216 39.5391 28.4643 39.4188C28.307 39.2986 28.1275 39.2043 27.9259 39.1362C27.7282 39.0681 27.5266 39.032 27.3209 39.028C27.0628 39.024 26.8228 39.062 26.601 39.1422C26.3792 39.2184 26.1997 39.3326 26.0626 39.4849C25.9295 39.6373 25.863 39.8237 25.863 40.0441C25.863 40.2646 25.9295 40.433 26.0626 40.5492C26.1957 40.6614 26.3752 40.7536 26.601 40.8258C26.8309 40.8939 27.089 40.9741 27.3754 41.0663C27.7424 41.1826 28.0872 41.3148 28.4098 41.4632C28.7325 41.6115 28.9926 41.7959 29.1902 42.0163C29.3878 42.2368 29.4846 42.5154 29.4806 42.8521C29.4806 43.2129 29.3717 43.5275 29.1539 43.7961C28.9361 44.0647 28.6538 44.2711 28.307 44.4154C27.9601 44.5557 27.5891 44.6199 27.1939 44.6078Z" fill="#808080"/>
<path d="M34.5827 39.3226H33.1368L33.1308 44.4936H32.2838L32.2899 39.3226H31.1949V38.4808H32.2899L32.2838 36.5928H33.1308L33.1368 38.4808H34.5827V39.3226Z" fill="#808080"/>
<path d="M36.6302 44.4936V38.4808H37.4771V39.3106C37.6949 39.0059 37.9732 38.7634 38.3119 38.583C38.6507 38.4026 39.0218 38.3125 39.4251 38.3125C39.8808 38.3125 40.2982 38.4247 40.6773 38.6492C41.0564 38.8696 41.3529 39.1643 41.5666 39.5331C41.7804 39.1643 42.0748 38.8696 42.4498 38.6492C42.8249 38.4247 43.2403 38.3125 43.6961 38.3125C44.1518 38.3125 44.5672 38.4227 44.9423 38.6432C45.3173 38.8636 45.6158 39.1603 45.8376 39.5331C46.0594 39.9058 46.1703 40.3187 46.1703 40.7717V44.4936H45.3234V40.9581C45.3234 40.6374 45.2447 40.3408 45.0875 40.0682C44.9302 39.7956 44.7184 39.5771 44.4522 39.4128C44.1901 39.2444 43.8977 39.1603 43.5751 39.1603C43.2524 39.1603 42.958 39.2384 42.6918 39.3948C42.4297 39.5471 42.22 39.7595 42.0627 40.0321C41.9054 40.3007 41.8267 40.6093 41.8267 40.9581V44.4936H40.9798V40.9581C40.9798 40.6093 40.9012 40.3007 40.7439 40.0321C40.5866 39.7595 40.3748 39.5471 40.1087 39.3948C39.8425 39.2384 39.5481 39.1603 39.2254 39.1603C38.9068 39.1603 38.6144 39.2444 38.3482 39.4128C38.0821 39.5771 37.8703 39.7956 37.713 40.0682C37.5557 40.3408 37.4771 40.6374 37.4771 40.9581V44.4936H36.6302Z" fill="#808080"/>
<path d="M50.8939 44.6499C50.3373 44.6499 49.8292 44.5076 49.3694 44.223C48.9137 43.9384 48.5487 43.5576 48.2744 43.0806C48.0042 42.5996 47.8691 42.0684 47.8691 41.4872C47.8691 41.0463 47.9478 40.6354 48.1051 40.2546C48.2623 39.8698 48.4781 39.5331 48.7524 39.2444C49.0306 38.9518 49.3533 38.7233 49.7203 38.559C50.0873 38.3946 50.4785 38.3125 50.8939 38.3125C51.3416 38.3125 51.753 38.4006 52.128 38.577C52.5071 38.7534 52.8318 38.9999 53.102 39.3166C53.3763 39.6333 53.5819 40.0041 53.7191 40.429C53.8602 40.8539 53.9187 41.3128 53.8945 41.8059H48.7645C48.8129 42.1867 48.9338 42.5274 49.1274 42.8281C49.3251 43.1287 49.5751 43.3672 49.8776 43.5436C50.1841 43.7159 50.5229 43.8041 50.8939 43.8081C51.2972 43.8081 51.6602 43.7039 51.9828 43.4955C52.3095 43.287 52.5717 43.0004 52.7693 42.6357L53.6283 42.8341C53.3863 43.3672 53.0213 43.8041 52.5333 44.1449C52.0453 44.4816 51.4989 44.6499 50.8939 44.6499ZM48.7403 41.1264H53.0415C53.0133 40.7536 52.8983 40.4129 52.6967 40.1043C52.4991 39.7916 52.243 39.5431 51.9284 39.3587C51.6138 39.1703 51.269 39.0761 50.8939 39.0761C50.5188 39.0761 50.176 39.1683 49.8655 39.3527C49.5549 39.533 49.3009 39.7796 49.1032 40.0922C48.9056 40.4009 48.7846 40.7456 48.7403 41.1264Z" fill="#808080"/>
<path d="M61.1747 40.7717V44.4936H60.3277V40.94C60.3277 40.6113 60.2471 40.3127 60.0858 40.0441C59.9244 39.7756 59.7087 39.5611 59.4385 39.4008C59.1682 39.2404 58.8678 39.1603 58.5371 39.1603C58.2104 39.1603 57.9099 39.2404 57.6357 39.4008C57.3655 39.5611 57.1497 39.7756 56.9884 40.0441C56.8271 40.3127 56.7464 40.6113 56.7464 40.94V44.4936H55.8995V38.4808H56.7464V39.3106C56.9602 39.0059 57.2384 38.7634 57.5812 38.583C57.924 38.4026 58.2971 38.3125 58.7004 38.3125C59.1561 38.3125 59.5715 38.4227 59.9466 38.6432C60.3217 38.8636 60.6201 39.1603 60.842 39.5331C61.0638 39.9058 61.1747 40.3187 61.1747 40.7717Z" fill="#808080"/>
<path d="M66.4455 39.3226H64.9996L64.9936 44.4936H64.1466L64.1527 39.3226H63.0577V38.4808H64.1527L64.1466 36.5928H64.9936L64.9996 38.4808H66.4455V39.3226Z" fill="#808080"/>
<path d="M76.2937 44.6499C75.7129 44.6499 75.1685 44.5377 74.6603 44.3132C74.1562 44.0847 73.7146 43.7701 73.3355 43.3692C72.9563 42.9643 72.6599 42.4994 72.4462 41.9742C72.2324 41.4451 72.1255 40.8799 72.1255 40.2786C72.1255 39.6653 72.2365 39.0941 72.4583 38.565C72.6801 38.0359 72.9846 37.5749 73.3718 37.182C73.7589 36.7852 74.2026 36.4765 74.7027 36.2561C75.2068 36.0356 75.7412 35.9254 76.3058 35.9254C76.9551 35.9254 77.5681 36.0757 78.1449 36.3763C78.7256 36.677 79.2177 37.1039 79.621 37.6571L78.8648 38.0659C78.5421 37.645 78.1529 37.3223 77.6972 37.0979C77.2455 36.8734 76.7797 36.7612 76.2997 36.7612C75.844 36.7612 75.4145 36.8534 75.0112 37.0377C74.6119 37.2181 74.259 37.4707 73.9525 37.7953C73.646 38.12 73.406 38.4948 73.2326 38.9197C73.0592 39.3447 72.9725 39.8016 72.9725 40.2907C72.9725 40.7757 73.0592 41.2307 73.2326 41.6556C73.406 42.0805 73.644 42.4553 73.9465 42.78C74.253 43.1006 74.6079 43.3532 75.0112 43.5376C75.4145 43.718 75.846 43.8081 76.3058 43.8081C76.6849 43.8081 77.0438 43.744 77.3826 43.6157C77.7254 43.4835 78.038 43.2991 78.3203 43.0626C78.6026 42.8261 78.8406 42.5495 79.0341 42.2328C79.2318 41.9161 79.3749 41.5714 79.4637 41.1986H77.1769V40.435H80.4498C80.4377 41.0162 80.3207 41.5614 80.0989 42.0704C79.8771 42.5795 79.5746 43.0285 79.1914 43.4173C78.8123 43.8021 78.3747 44.1048 77.8787 44.3252C77.3867 44.5417 76.8583 44.6499 76.2937 44.6499Z" fill="#808080"/>
<path d="M82.5989 44.4936V38.4808H83.4458V39.3106C83.6596 39.0059 83.9378 38.7634 84.2806 38.583C84.6235 38.4026 84.9965 38.3125 85.3998 38.3125C85.6337 38.3125 85.8596 38.3425 86.0774 38.4026L85.7325 39.2384C85.5632 39.1863 85.3978 39.1603 85.2365 39.1603C84.9098 39.1603 84.6093 39.2404 84.3351 39.4008C84.0649 39.5611 83.8491 39.7756 83.6878 40.0441C83.5265 40.3127 83.4458 40.6113 83.4458 40.94V44.4936H82.5989Z" fill="#808080"/>
<path d="M90.1514 44.6499C89.5948 44.6499 89.0867 44.5076 88.6269 44.223C88.1712 43.9384 87.8062 43.5576 87.5319 43.0806C87.2617 42.5996 87.1266 42.0684 87.1266 41.4872C87.1266 41.0463 87.2052 40.6354 87.3625 40.2546C87.5198 39.8698 87.7356 39.5331 88.0098 39.2444C88.2881 38.9518 88.6108 38.7233 88.9778 38.559C89.3448 38.3946 89.736 38.3125 90.1514 38.3125C90.7079 38.3125 91.2141 38.4548 91.6698 38.7394C92.1296 39.024 92.4946 39.4068 92.7648 39.8878C93.039 40.3688 93.1762 40.902 93.1762 41.4872C93.1762 41.9241 93.0975 42.333 92.9402 42.7138C92.7829 43.0946 92.5652 43.4313 92.2869 43.724C92.0126 44.0126 91.692 44.2391 91.325 44.4034C90.962 44.5678 90.5708 44.6499 90.1514 44.6499ZM90.1514 43.8081C90.5628 43.8081 90.9318 43.7019 91.2585 43.4895C91.5892 43.273 91.8493 42.9884 92.0388 42.6357C92.2324 42.2829 92.3292 41.9001 92.3292 41.4872C92.3292 41.0663 92.2324 40.6795 92.0388 40.3267C91.8453 39.97 91.5831 39.6854 91.2524 39.4729C90.9257 39.2605 90.5587 39.1542 90.1514 39.1542C89.74 39.1542 89.369 39.2625 89.0383 39.4789C88.7116 39.6914 88.4515 39.974 88.2579 40.3267C88.0683 40.6795 87.9735 41.0663 87.9735 41.4872C87.9735 41.9201 88.0723 42.313 88.27 42.6657C88.4676 43.0145 88.7317 43.293 89.0625 43.5015C89.3932 43.7059 89.7561 43.8081 90.1514 43.8081Z" fill="#808080"/>
<path d="M94.8677 42.1907V38.4808H95.7146V42.0223C95.7146 42.351 95.7953 42.6497 95.9566 42.9183C96.1179 43.1868 96.3337 43.4013 96.6039 43.5616C96.8782 43.722 97.1786 43.8021 97.5053 43.8021C97.836 43.8021 98.1345 43.722 98.4006 43.5616C98.6708 43.4013 98.8866 43.1868 99.0479 42.9183C99.2093 42.6497 99.2899 42.351 99.2899 42.0223V38.4808H100.137L100.143 44.4936H99.296L99.2899 43.6518C99.0762 43.9565 98.7979 44.199 98.4551 44.3794C98.1163 44.5597 97.7453 44.6499 97.3419 44.6499C96.8862 44.6499 96.4708 44.5397 96.0957 44.3192C95.7207 44.0988 95.4222 43.8021 95.2004 43.4293C94.9786 43.0565 94.8677 42.6437 94.8677 42.1907Z" fill="#808080"/>
<path d="M103.045 47.5H102.198V38.4808H103.045V39.6052C103.255 39.2244 103.541 38.9157 103.904 38.6792C104.267 38.4427 104.699 38.3245 105.199 38.3245C105.638 38.3245 106.05 38.4067 106.433 38.571C106.82 38.7354 107.159 38.9638 107.449 39.2565C107.739 39.5451 107.967 39.8798 108.133 40.2606C108.298 40.6414 108.381 41.0503 108.381 41.4872C108.381 41.9241 108.298 42.335 108.133 42.7198C107.967 43.1046 107.739 43.4434 107.449 43.736C107.159 44.0246 106.82 44.2511 106.433 44.4154C106.05 44.5798 105.638 44.662 105.199 44.662C104.699 44.662 104.267 44.5437 103.904 44.3072C103.541 44.0707 103.255 43.762 103.045 43.3812V47.5ZM105.193 39.1422C104.769 39.1422 104.4 39.2484 104.086 39.4609C103.775 39.6693 103.535 39.9499 103.366 40.3027C103.196 40.6554 103.112 41.0503 103.112 41.4872C103.112 41.9161 103.194 42.309 103.36 42.6657C103.529 43.0225 103.769 43.3071 104.079 43.5195C104.394 43.732 104.765 43.8382 105.193 43.8382C105.612 43.8382 105.997 43.734 106.348 43.5255C106.703 43.3171 106.987 43.0365 107.201 42.6838C107.415 42.327 107.522 41.9281 107.522 41.4872C107.522 41.0583 107.417 40.6675 107.207 40.3147C106.997 39.958 106.717 39.6733 106.366 39.4609C106.015 39.2484 105.624 39.1422 105.193 39.1422Z" fill="#808080"/>
</svg>
