<svg width="19" height="14" viewBox="0 0 19 14" fill="none" xmlns="http://www.w3.org/2000/svg">
<path fill-rule="evenodd" clip-rule="evenodd" d="M11.1498 0.399602C11.4427 0.106708 11.9176 0.106708 12.2105 0.399602L18.2805 6.4696C18.4212 6.61025 18.5002 6.80102 18.5002 6.99993C18.5002 7.19884 18.4212 7.38961 18.2805 7.53026L12.2105 13.6003C11.9176 13.8932 11.4427 13.8932 11.1498 13.6003C10.857 13.3074 10.857 12.8325 11.1498 12.5396L16.6895 6.99993L11.1498 1.46026C10.857 1.16737 10.857 0.692495 11.1498 0.399602Z" fill="white"/>
<path fill-rule="evenodd" clip-rule="evenodd" d="M0 7C0 6.58579 0.335786 6.25 0.75 6.25H17.58C17.9942 6.25 18.33 6.58579 18.33 7C18.33 7.41421 17.9942 7.75 17.58 7.75H0.75C0.335786 7.75 0 7.41421 0 7Z" fill="white"/>
</svg>
